<?xml version="1.0" encoding="UTF-8"?> <svg xmlns="http://www.w3.org/2000/svg" width="125.01" height="73" viewBox="0 0 125.01 73"><g id="Grupo_372" data-name="Grupo 372" transform="translate(-946.498 -186.321)"><g id="Grupo_2" data-name="Grupo 2" transform="translate(946.498 240.359)"><path id="Trazado_7" data-name="Trazado 7" d="M964.026,469.831a13.423,13.423,0,0,1-.613,4.437,7.774,7.774,0,0,1-3.076,4.02,8.788,8.788,0,0,1-4.9,1.348,8.46,8.46,0,0,1-7.072-3.138,9.657,9.657,0,0,1,.319-11.816,8.7,8.7,0,0,1,6.913-2.831,8.229,8.229,0,0,1,5.026,1.52,8.538,8.538,0,0,1,2.513,3.187l-4.118,1.7a4.842,4.842,0,0,0-1.23-1.757,3.655,3.655,0,0,0-2.4-.829,4.006,4.006,0,0,0-3.959,2.923,6.086,6.086,0,0,0-.418,2.225,5.539,5.539,0,0,0,1.512,3.974,3.912,3.912,0,0,0,2.988,1.186,3.571,3.571,0,0,0,2.631-.964,3.3,3.3,0,0,0,.836-1.88H955.4v-3.309Z" transform="translate(-946.498 -460.675)" fill="#fff"></path><path id="Trazado_8" data-name="Trazado 8" d="M1049.861,474.573h-4.032v-18.41h4.032Z" transform="translate(-1025.924 -456.126)" fill="#fff"></path><path id="Trazado_9" data-name="Trazado 9" d="M1091.02,495.3a5.782,5.782,0,0,1-1.557,4.057,7.822,7.822,0,0,1-10.578,0,5.908,5.908,0,0,1-1.557-4.155,5.663,5.663,0,0,1,1.569-3.935,6.966,6.966,0,0,1,5.406-2.071,6.69,6.69,0,0,1,5.148,2.071A5.727,5.727,0,0,1,1091.02,495.3Zm-4.192,0a2.637,2.637,0,0,0-2.648-2.647,2.514,2.514,0,0,0-2.025.936,2.643,2.643,0,0,0,0,3.436,2.514,2.514,0,0,0,2.025.936,2.627,2.627,0,0,0,2.648-2.66Z" transform="translate(-1051.111 -482.535)" fill="#fff"></path><path id="Trazado_10" data-name="Trazado 10" d="M1170.362,468.88a5.841,5.841,0,0,1-1.971,4.6,5.543,5.543,0,0,1-3.77,1.457,4.7,4.7,0,0,1-2.338-.576,3.753,3.753,0,0,1-1.163-1.054v1.262h-4.033v-18.41h4.033v8.163a4.539,4.539,0,0,1,1.261-.968,5.164,5.164,0,0,1,2.277-.515,5.477,5.477,0,0,1,3.684,1.384A5.83,5.83,0,0,1,1170.362,468.88Zm-4.192.012a2.536,2.536,0,0,0-.622-1.683,2.458,2.458,0,0,0-1.964-.909,2.592,2.592,0,1,0,0,5.185,2.435,2.435,0,0,0,1.964-.909A2.567,2.567,0,0,0,1166.17,468.892Z" transform="translate(-1114.887 -456.126)" fill="#fff"></path><path id="Trazado_11" data-name="Trazado 11" d="M1245.778,501.228h-4.033v-1.263a4.124,4.124,0,0,1-1.163,1.054,4.7,4.7,0,0,1-2.338.576,5.54,5.54,0,0,1-3.77-1.457,6.367,6.367,0,0,1,.049-9.257,5.478,5.478,0,0,1,3.684-1.384,5.267,5.267,0,0,1,2.277.5,4.527,4.527,0,0,1,1.261.968v-1.115h4.033Zm-3.91-5.687a2.472,2.472,0,0,0-.757-1.823,2.5,2.5,0,0,0-1.83-.75,2.463,2.463,0,0,0-1.964.9,2.555,2.555,0,0,0,0,3.342,2.441,2.441,0,0,0,1.964.9,2.507,2.507,0,0,0,1.836-.744A2.475,2.475,0,0,0,1241.868,495.54Z" transform="translate(-1175.19 -482.781)" fill="#fff"></path><path id="Trazado_12" data-name="Trazado 12" d="M1316.479,474.573h-4.033v-18.41h4.033Z" transform="translate(-1239.112 -456.126)" fill="#fff"></path><path id="Trazado_13" data-name="Trazado 13" d="M1348.99,466.361h-2.819v8.065h-4.033v-8.065H1340.7v-3.309h1.434v-1.508a5.451,5.451,0,0,1,1.275-3.873,5.018,5.018,0,0,1,3.8-1.692,4.2,4.2,0,0,1,1.777.415v3.495a3.023,3.023,0,0,0-1.4-.453,1.3,1.3,0,0,0-1.2.627,4.21,4.21,0,0,0-.219,1.759v1.23h2.819Z" transform="translate(-1261.707 -455.979)" fill="#fff"></path><path id="Trazado_14" data-name="Trazado 14" d="M1393.545,474.573h-4.033v-18.41h4.033Z" transform="translate(-1300.735 -456.126)" fill="#fff"></path><path id="Trazado_15" data-name="Trazado 15" d="M1433.54,496.436h-8.445q0,2.562,2.462,2.562a2.14,2.14,0,0,0,1.926-1.079h3.9a5.252,5.252,0,0,1-1.373,2.383,6.2,6.2,0,0,1-4.4,1.527,6.446,6.446,0,0,1-5.27-2.133,5.877,5.877,0,0,1-1.324-3.885,6.083,6.083,0,0,1,1.655-4.425,6.209,6.209,0,0,1,4.67-1.7,5.671,5.671,0,0,1,5.308,2.7,6.853,6.853,0,0,1,.895,3.537Zm-3.763-2.292a2.16,2.16,0,0,0-2.28-1.924,2.157,2.157,0,0,0-2.292,1.924Z" transform="translate(-1325.922 -482.928)" fill="#fff"></path><path id="Trazado_16" data-name="Trazado 16" d="M1504.584,502.646h-5.319l-2.929-3.383-2.917,3.383h-5.307l5.687-6.178-4.621-5.2h5.234l1.961,2.341,2-2.341h5.222l-4.707,5.2Z" transform="translate(-1379.574 -484.199)" fill="#fff"></path></g><path id="Trazado_30" data-name="Trazado 30" d="M1194.805,218.322l-.005-.137-.006-.136-.009-.137-.01-.134-.011-.133-.012-.133-.013-.133-.014-.132-.015-.132-.016-.132-.018-.131-.017-.122-.018-.122-.02-.121-.021-.121-.022-.12-.023-.12-.024-.12-.026-.119-.082-.36-.092-.354-.1-.349-.111-.344-.12-.339-.13-.334-.14-.329-.149-.324-.057-.118-.058-.117-.059-.116-.06-.115-.061-.114s-.616-1.011-.708-1.14c-.105-.146-.448-.578-.448-.578l-.019-.022-.02-.026-.024-.031-.028-.038L1192,210.7l-.037-.042-.038-.043-.04-.046-.043-.049-.047-.053-.052-.059-.056-.065-.04-.04-.041-.042-.045-.045-.049-.05-.055-.057-.063-.065-.073-.074-.083-.085s-.8-.7-1.09-.916-1.3-.816-1.3-.816l-.093-.049-.094-.049-.094-.047-.094-.046-.095-.046-.1-.044-.006,0-.007,0-.007,0-.008-.005-.01-.005-.012-.006-.015-.006-.017-.007-.013,0-.005,0c-.985-.548-2.24-1.212-3.273-1.688a22.561,22.561,0,0,0-2.787-1.028c-1.8-.644-4.534.014-4.887.08-.27.071-.539.13-.809.207-.246.073-.492.147-.734.233-.2.07-.4.148-.6.228l-.129.053c-.2.081-.39.166-.582.257l-.02.009q-.179.084-.356.174c-.094.048-.187.1-.281.152h0l-.006,0-.083.045a.032.032,0,0,1,0,.024l-.058.045a.207.207,0,0,1-.021.011l0,0-.049.039h-.005l-.009.005-.007.006-.006.006-.006.007-.005.008,0,.01a.073.073,0,0,0,0,.018c0,.063-.005.125-.005.186q-.007,3.825-.014,7.649c0,.043,0,.087,0,.13l3.654,1.988v-.007l.023.013c.011-.013.041-.043.078-.078a.651.651,0,0,0,.006.071c.058-.067.5-.48.626-.593s.243-.232.418-.393a9.678,9.678,0,0,1,2.832-1.594c.284-.067.643-.117.928-.157.048-.007.1-.011.146-.015s.1-.007.151-.012a4.9,4.9,0,0,1,.618-.014c.145,0,.288.013.43.028a5.555,5.555,0,0,1,.959,1.785,6.061,6.061,0,0,1,.249,1.087c.026.187.047.375.055.566a7.82,7.82,0,0,1-.059,1.366,8.87,8.87,0,0,1-.223,1.1c-.025.093-.053.185-.082.276-.01.031-.021.062-.032.093-.019.057-.038.113-.059.169q-.072.191-.155.377c-.012.028-.026.056-.039.084q-.078.169-.165.334c-.007.014-.014.029-.022.044-.064.118-.132.234-.2.348l-.055.088c-.072.115-.147.229-.225.342l-.023.032-.006.008a.1.1,0,0,1-.036.028l-.021.053c-.1.144-.212.283-.323.42-.033.04-.067.08-.1.119-.1.119-.2.237-.307.352l-.045.032-.047.063-.012.015-.028.032c-.009.01-.019.02-.029.029l-.021.02c-.021.018-.042.036-.071.057l-.041.053-.008.01-.026.029-.013.013-.019.016-.032.025-.036.025a.268.268,0,0,1-.059.078h0a.342.342,0,0,1-.08.053.137.137,0,0,1-.03.047l0,0a.436.436,0,0,1-.039.033c-.147.13-.294.263-.445.387q-.194.158-.393.307l-.128.093c-.09.066-.18.132-.271.2-.047.033-.095.064-.142.1-.094.063-.187.126-.282.186l-.167.1c-.088.054-.176.107-.264.159l-.176.1c-.089.05-.178.1-.268.147l-.174.092c-.1.049-.192.1-.289.143l-.157.076c-.158.074-.316.145-.476.213q-.521.219-1.047.4c-.222.076-.445.147-.668.21-.257.071-.515.14-.774.2s-.507.109-.759.159q-.232.045-.465.078c-.12.017-.239.028-.359.041-.054.006-.108.013-.162.018q-.252.023-.5.036c-.258.014-.516.017-.773.015-.349,0-.7-.022-1.037-.059l-.066-.008c-.134-.015-.268-.032-.4-.053l-.141-.023q-.177-.029-.352-.063l-.146-.029q-.205-.043-.408-.094l-.067-.016c-.137-.035-.274-.075-.41-.116-.218-.17-.432-.345-.637-.531a4.941,4.941,0,0,1-.372-.35c-.21-.2-.412-.413-.679-.717-.129-.153-.26-.308-.436-.526-.091-.119-.182-.238-.31-.407a3.465,3.465,0,0,1-.213-.324.119.119,0,0,1-.071-.1c-.042-.018-.062-.054-.094-.118-.072-.109-.141-.217-.242-.378-.059-.1-.118-.195-.206-.347a7.48,7.48,0,0,1-.489-.958c-.043-.013-.05-.059-.067-.094a15.664,15.664,0,0,1-.826-2.117,16.8,16.8,0,0,1-.47-1.882c-.056-.285-.1-.573-.143-.862-.033-.234-.063-.471-.085-.71-.022-.257-.052-.512-.061-.773,0-.036,0-.074-.006-.112-.008-.16-.02-.319-.023-.482,0-.3,0-.609,0-.914,0-.417.023-.838.049-1.257.01-.157.025-.314.041-.472s.036-.313.055-.47l.579-3.046q.115-.369.233-.739a20.9,20.9,0,0,1,2.119-4.652q.454-.739.969-1.432a1.46,1.46,0,0,1,.135-.182,30.371,30.371,0,0,1,3.815-3.739,1.693,1.693,0,0,1,.21-.147c.1-.072.206-.141.31-.21a14.461,14.461,0,0,1,2.758-1.418q.387-.151.78-.271c.206-.064.411-.125.618-.175.191-.044.379-.1.57-.137.225-.045.45-.084.674-.122.06-.011.121-.02.181-.029.145-.02.29-.035.434-.049l.357-.032c.15-.016.3-.02.448-.023s.287,0,.43,0c.252,0,.5.01.751.029.285.02.569.05.883.074h0l.5.046h0l1.184.372.205.157a16.173,16.173,0,0,1,2.059,1.865,13.973,13.973,0,0,1,1.5,1.889l.186.1,3.547,1.948.072-.016.012.008.019-.023.018-.024.018-.025.015-.022c.023-.035.046-.072.07-.106l.012-.018.011-.019,0-.008a.684.684,0,0,1,.087-.126l.025-.039.025-.038.052-.08.006-.009.031-.048.026-.041.021-.032.024-.037.041-.063.026-.04.021-.032.025-.039.028-.042.016-.024.128-.195.043-.066,0-.006.007-.01.028-.042.015-.022,0-.005c.035-.05.075-.1.125-.168a.284.284,0,0,1,.027-.066c.053-.086.108-.169.164-.252l.011-.015.007-.009.008-.01.009-.013.01-.016.011-.019.013-.024,0,0,.074-.11c.021-.031.042-.063.068-.1l.011-.015.011-.016.057-.077c.006-.015.013-.03.02-.045l2.563-3.833-.12-.185.011,0-.005-.011-.007-.01v0l-.007-.009-.01-.011,0,0a.492.492,0,0,1-.049-.068l-.084-.1,0-.005,0,0c-.089-.108-.18-.224-.283-.365a.934.934,0,0,1-.105-.1h0c-.015-.016-.031-.034-.049-.056l0,0,0-.006-.062-.077-.084-.092-.085-.092-.087-.094-.067-.073-.092-.1-.024-.026-.1-.106-.1-.111-.109-.118-.062-.062-.064-.064-.068-.068-.075-.075-.084-.084-.095-.095-.074-.074-.158-.157-.162-.15-.015-.014-.061-.057-.032-.03-.1-.094-.026-.023-.1-.095-.042-.037-.2-.179-.02-.018-.013-.011-.3-.261-.063-.052-.012-.01-.01-.008-.083-.068-.034-.028-.038-.031-.023-.019-.039-.032-.058-.047-.087-.067-.058-.045-.023-.018-.116-.091-.01-.008-.009-.008c-.1-.077-.2-.159-.308-.251l-.052-.024h0a.468.468,0,0,1-.047-.027h0c-.034-.022-.075-.053-.145-.107l-.2-.137-.03-.02a17.823,17.823,0,0,0-1.526-.923l-.189-.094-.018-.009-.106-.053-.108-.054-.056-.028-.172-.086h0l0,0-3-1.633h0l-.012,0a.278.278,0,0,1-.033-.008l-.015-.006-.564-.281-.308-.168h-.011l-.008,0a.118.118,0,0,1-.028,0,.154.154,0,0,1-.026-.009l-.033-.018-.01-.005.01.005.032.017a.242.242,0,0,1-.031-.01l-.04-.021h0l-.014-.006q-.644-.288-1.31-.522-.222-.078-.448-.149-.182-.058-.367-.111l-.158-.045-.065-.018-.082-.022-.051-.013-.113-.031-.1-.023-.092-.023-.187-.045-.063-.015h0l-.069-.016-.007,0h-.02l-.034-.008-.017,0-.007,0-.012,0-.012,0-.012,0-.011,0-.012,0-.012,0-.007,0h-.04l-.167-.035h-.009l-.015,0h0l-.009,0h-.083l-.008,0h-.013c-.113-.022-.226-.043-.358-.065-.235-.039-.454-.073-.755-.113l-.018,0h0l-.02,0c-.175-.022-.351-.041-.527-.056l-.155-.012c-.1-.008-.2-.017-.3-.023l-.144-.008c-.107-.005-.214-.008-.322-.012.105,0,.037,0-.033,0l-.064,0h-.086l-.349-.008h-.057l.006,0h0l0,0c-.1,0-.192,0-.287,0-.16,0-.322.011-.483.018-.212.011-.425.016-.639.034-.294.024-.588.057-.881.089-.071.008-.142.017-.213.027-.38.054-.759.131-1.19.206-.213.049-.425.1-.639.147-.254.055-.506.126-.756.2s-.525.157-.787.244c-.392.129-.78.272-1.167.426q-.292.116-.581.242c-.077.033-.152.069-.228.1-.112.051-.225.1-.336.152l-.006,0-.014.007-.017.008q-.36.171-.715.356c-.068.035-.136.074-.2.11-.144.077-.288.152-.43.232h0l-.169.1q-.641.368-1.265.782l-.021.014h0l-.021.014-.027.017a.179.179,0,0,1-.059.025l-.023.025-.012.012-.015.012-.035.027-.028.019-.018.012-.063.038c-.407.282-.808.578-1.3.962-.157.13-.315.257-.54.44-.12.105-.243.209-.43.372l-.132.119-.058.052-.114.1-.063.055c-.059.051-.121.1-.187.159a.343.343,0,0,1-.06.074l0,0a.334.334,0,0,1-.078.053.277.277,0,0,1-.024.039l-.01.013-.018.021-.037.036-.015.014-.064.055-.07.069-.026.024-.059.055-.03.027-.1.084-.041.054-.012.015-.025.028-.035.037-.018.019-.074.07c-.112.118-.227.236-.386.383a.657.657,0,0,1-.09.116c-.034.037-.07.072-.1.11l0,0-.033.038-.009.01a.247.247,0,0,1-.046.04c-.108.121-.217.242-.341.368a.445.445,0,0,1-.04.066c-.362.415-.713.842-1.144,1.389-.1.131-.2.261-.331.45l-.427.6-.136.2-.045.067-.105.152-.056.08c-.057.081-.116.163-.182.253a.329.329,0,0,1-.037.089l0,0a.266.266,0,0,1-.065.07.364.364,0,0,1-.014.041.36.36,0,0,1-.016.035.183.183,0,0,1-.009.018.7.7,0,0,1-.045.072c-.011.016-.023.033-.037.052-.074.12-.148.239-.286.468-.214.361-.423.723-.683,1.2-.066.127-.131.254-.2.387l-.05.091-.045.082c-.034.062-.07.125-.108.191a.637.637,0,0,1-.047.135l-.009.019a.629.629,0,0,1-.083.126.147.147,0,0,1-.009.057.132.132,0,0,1-.007.018c0,.009-.008.018-.013.027l-.011.022-.007.012c0,.008-.009.017-.013.025q-.078.163-.154.327l-.011.022-.047.1-.024.052-.025.057q-.15.332-.293.667l-.014.032q-.148.35-.286.7l-.022.055c-.021.053-.04.107-.06.161-.046.121-.094.241-.138.362-.018.048-.033.1-.051.143q-.068.189-.133.38c-.048.137-.1.275-.141.414-.017.051-.036.1-.052.153l-.051.159-.005.017c-.023.072-.046.145-.068.218l-.027.087q-.069.226-.134.453l-.024.083c-.006.021-.011.042-.017.064-.049.175-.1.35-.141.525-.017.064-.035.128-.051.193q-.092.36-.174.721c0,.006,0,.012,0,.018l-.026.116q-.059.262-.112.525c-.041.2-.079.4-.116.607l-.009.043c-.024.133-.047.267-.07.4a1.041,1.041,0,0,0-.024.2l-.051.327c-.01.042-.013.059-.016.076-.016.125-.037.251-.055.377s-.028.226-.039.338c-.016.152-.031.3-.047.452-.018.183-.042.365-.054.546-.015.264-.044.528-.05.79,0,.132-.019.264-.023.395-.021.708-.023,1.411,0,2.114.008.254.025.506.039.778.017.209.034.416.053.625.025.268.047.539.08.806.036.291.083.577.124.868s.1.6.154.9q.181.933.431,1.841l.049.176,0,.007c.027.1.057.192.086.288s.053.182.081.272c.041.131.084.261.127.391.028.085.056.172.085.257.047.136.1.271.146.406.028.077.055.155.084.232.058.153.119.305.18.457.023.056.044.113.067.169q.128.31.265.614c.021.046.043.09.064.136.072.157.144.313.22.468.037.075.076.149.114.224.062.123.124.247.188.369.044.083.09.164.135.246s.1.186.152.278v0l.064.113c.152.264.313.522.47.783a.828.828,0,0,1,.088.14c.144.212.288.424.485.715,1.4,2.4,6.1,5.444,6.1,5.444l.016.015a10.6,10.6,0,0,0,1.9.885c.005.034.027.05.123.121l.415.278c.17.1.34.21.542.352a2.194,2.194,0,0,1,.359.191l.4.216c.314.164.635.32,1.151.55a16.273,16.273,0,0,0,1.816.658c.1.03.2.059.3.087l.091.025.227.06.089.023c.1.025.2.049.366.087l.246.053.1.02.314.061.3.051q.36.059.724.1c.359.043.719.076,1.083.09.17.005.34.018.512.021q.282.007.565,0c.154,0,.31-.011.464-.013.281-.008.563-.02.846-.051.051-.005.1-.011.156-.013.123-.005.246-.017.369-.031q.211-.022.424-.052c.294-.043.589-.083.882-.139s.554-.1.83-.17c.178-.046.357-.078.535-.125.23-.06.458-.13.686-.193.31-.085.616-.187.922-.294.525-.185,1.047-.391,1.563-.623a20.441,20.441,0,0,0,3.293-1.864,26.073,26.073,0,0,0,2.757-2.29c.313-.315.947-.958,1.055-1.1a7.724,7.724,0,0,0,.733-.915c.019-.025.035-.054.066-.065a.581.581,0,0,1,.034-.069l.5-.71a.7.7,0,0,0,.084-.123c.2-.309.4-.62.645-1.05a24.5,24.5,0,0,0,1.605-3.82c.006-.036.011-.07.014-.1l0,0,0-.032v-.031l0-.031-.005-.031-.007-.031-.021-.082,0-.013.005-.016.005-.016.005-.016,0-.016,0-.016,0-.016,0-.015.04.136.006-.016.005-.016.005-.016.005-.016.005-.016,0-.016,0-.016,0-.016.052-.222.049-.222.047-.222.043-.223.04-.223.036-.223.033-.224.028-.223.005-.047.005-.047.005-.047.006-.047.005-.047.005-.047.005-.047.005-.047.01-.092.009-.092.008-.092.008-.092.007-.092.006-.092,0-.092,0-.091,0-.138v-.413Z" transform="translate(-165.956 0)" fill="#fff"></path></g></svg> 