<?xml version="1.0" encoding="UTF-8"?> <svg xmlns="http://www.w3.org/2000/svg" width="121" height="121" viewBox="0 0 121 121"><g id="Grupo_393" data-name="Grupo 393" transform="translate(-5131 -5066)"><rect id="Rectángulo_187" data-name="Rectángulo 187" width="121" height="121" transform="translate(5131 5066)" fill="none"></rect><path id="team_1_" data-name="team (1)" d="M66.4,54.2l1.126-11.825a3.727,3.727,0,0,0,1.693.419,3.781,3.781,0,0,0,3.776-3.776V24.243A5.054,5.054,0,0,0,69.344,19.4l-5.159-1.474V15.681A7.525,7.525,0,0,0,66.7,10.068V7.551a7.551,7.551,0,1,0-15.1,0v2.517a7.529,7.529,0,0,0,2.517,5.613v2.248L48.958,19.4a5.053,5.053,0,0,0-3.651,4.841v1.6l-1.259-.36V23.232a7.525,7.525,0,0,0,2.517-5.613V15.1a7.551,7.551,0,0,0-15.1,0v2.517a7.529,7.529,0,0,0,2.517,5.613V25.48l-1.259.36v-1.6A5.054,5.054,0,0,0,29.071,19.4l-5.159-1.474V15.681a7.525,7.525,0,0,0,2.517-5.613V7.551a7.551,7.551,0,1,0-15.1,0v2.517a7.529,7.529,0,0,0,2.517,5.613v2.248L8.685,19.4a5.053,5.053,0,0,0-3.651,4.841V39.014A3.781,3.781,0,0,0,8.81,42.79a3.727,3.727,0,0,0,1.693-.419L11.629,54.2C4.125,56.754,0,60.28,0,64.185,0,70.9,13.674,78.029,39.014,78.029S78.029,70.9,78.029,64.185C78.029,60.28,73.9,56.754,66.4,54.2Zm-11.139,8.73L52.983,39.014h4.909V62.926Zm5.148-23.912h4.909L63.041,62.926H60.409ZM54.117,7.551a5.034,5.034,0,1,1,10.068,0v2.517a5.034,5.034,0,1,1-10.068,0Zm5.034,10.068a7.514,7.514,0,0,0,2.517-.441v1.352a2.776,2.776,0,0,1-5.034,0V17.179A7.514,7.514,0,0,0,59.151,17.619ZM47.824,24.243a2.53,2.53,0,0,1,1.825-2.421l5.185-1.481a5.185,5.185,0,0,0,8.633,0l5.185,1.481a2.528,2.528,0,0,1,1.825,2.421V39.014a1.259,1.259,0,0,1-2.517,0V26.429H65.442V36.5H52.858V26.429H50.341v1.026a4.918,4.918,0,0,0-1.134-.5l-1.383-.4ZM33.98,15.1a5.034,5.034,0,0,1,10.068,0v2.517a5.034,5.034,0,1,1-10.068,0Zm5.034,10.068a7.514,7.514,0,0,0,2.517-.441v1.352a3.218,3.218,0,0,1-2.517,1.606A3.218,3.218,0,0,1,36.5,26.082V24.73A7.514,7.514,0,0,0,39.014,25.171ZM34.7,27.893a5.184,5.184,0,0,0,8.631,0l5.185,1.481a2.528,2.528,0,0,1,1.825,2.421V46.566a1.259,1.259,0,0,1-2.517,0V33.98H45.306V44.048H32.722V33.98H30.2V46.566a1.259,1.259,0,0,1-2.517,0V31.794a2.53,2.53,0,0,1,1.825-2.421Zm.426,42.585L32.846,46.566h4.909V70.478Zm5.148-23.912h4.909L42.9,70.478H40.273ZM14.988,62.926,12.71,39.014h4.909V62.926Zm5.148-23.912h4.909L22.768,62.926H20.136ZM13.844,7.551a5.034,5.034,0,0,1,10.068,0v2.517a5.034,5.034,0,0,1-10.068,0Zm5.034,10.068a7.514,7.514,0,0,0,2.517-.441v1.352a3.218,3.218,0,0,1-2.517,1.606,3.218,3.218,0,0,1-2.517-1.606V17.179A7.514,7.514,0,0,0,18.878,17.619ZM8.81,40.273a1.26,1.26,0,0,1-1.259-1.259V24.243a2.53,2.53,0,0,1,1.825-2.421l5.185-1.481a5.483,5.483,0,0,0,4.317,2.312,5.479,5.479,0,0,0,4.316-2.312l5.185,1.481A2.528,2.528,0,0,1,30.2,24.243v2.315l-1.383.4a4.918,4.918,0,0,0-1.134.5V26.429H25.169V36.5H12.585V26.429H10.068V39.014A1.26,1.26,0,0,1,8.81,40.273Zm30.2,35.239c-21.508,0-36.5-5.969-36.5-11.327,0-2.589,3.47-5.312,9.357-7.412l.825,8.67H25.056l1.52-15.963a3.666,3.666,0,0,0,4.063.442l2.2,23.073H45.193l2.2-23.073a3.666,3.666,0,0,0,4.063-.442l1.52,15.963H65.329l.825-8.67c5.888,2.1,9.357,4.823,9.357,7.412C75.512,69.542,60.522,75.512,39.014,75.512Zm0,0" transform="translate(5153 5087)" fill="#64137d"></path></g></svg> 