<?xml version="1.0" encoding="UTF-8"?> <svg xmlns="http://www.w3.org/2000/svg" width="89" height="89" viewBox="0 0 89 89"><g id="Grupo_408" data-name="Grupo 408" transform="translate(-5892 -4571)"><rect id="Rectángulo_198" data-name="Rectángulo 198" width="89" height="89" transform="translate(5892 4571)" fill="none"></rect><g id="placeholder" transform="translate(5901 4580)" opacity="0.677"><path id="Trazado_254" data-name="Trazado 254" d="M32.714,28.721a8.36,8.36,0,1,0-8.36-8.36A8.37,8.37,0,0,0,32.714,28.721Zm0-14.332a5.972,5.972,0,1,1-5.972,5.972A5.978,5.978,0,0,1,32.714,14.389Z" transform="translate(4.734 2.332)" fill="#64137d"></path><path id="Trazado_255" data-name="Trazado 255" d="M34.9,65.4,53.226,38.935C60.1,29.772,59.1,14.714,51.1,6.71a22.9,22.9,0,0,0-32.39,0c-8.006,8-9,23.065-2.155,32.19ZM20.4,8.4a20.515,20.515,0,0,1,29.013,0c7.225,7.225,8.114,20.826,1.879,29.141L34.9,61.2,18.492,37.5C12.282,29.223,13.172,15.622,20.4,8.4Z" transform="translate(2.333 0)" fill="#64137d"></path><path id="Trazado_256" data-name="Trazado 256" d="M1.194,57.643l-.844.844a1.194,1.194,0,1,0,1.689,1.689l.844-.844a1.194,1.194,0,1,0-1.689-1.689Z" transform="translate(0.001 11.134)" fill="#64137d"></path><path id="Trazado_257" data-name="Trazado 257" d="M8.81,52a1.194,1.194,0,1,0,0,2.389h2.174a1.194,1.194,0,1,0,0-2.389Z" transform="translate(1.482 10.105)" fill="#64137d"></path><path id="Trazado_258" data-name="Trazado 258" d="M6.857,53.782a1.193,1.193,0,0,0-1.689,0L3.631,55.319A1.194,1.194,0,1,0,5.32,57.008l1.537-1.537A1.193,1.193,0,0,0,6.857,53.782Z" transform="translate(0.639 10.384)" fill="#64137d"></path><path id="Trazado_259" data-name="Trazado 259" d="M19.733,52a1.194,1.194,0,1,0,0,2.389h2.174a1.194,1.194,0,1,0,0-2.389Z" transform="translate(3.604 10.105)" fill="#64137d"></path><path id="Trazado_260" data-name="Trazado 260" d="M14.271,52a1.194,1.194,0,0,0,0,2.389h2.175a1.194,1.194,0,1,0,0-2.389Z" transform="translate(2.543 10.105)" fill="#64137d"></path><path id="Trazado_261" data-name="Trazado 261" d="M25.194,52a1.194,1.194,0,1,0,0,2.389h1.194a1.194,1.194,0,1,0,0-2.389Z" transform="translate(4.666 10.105)" fill="#64137d"></path><path id="Trazado_262" data-name="Trazado 262" d="M1.195,55.071a1.191,1.191,0,0,0,.844-.35l4.629-4.629a2.152,2.152,0,0,1,.417-.325l.231-.124a1.087,1.087,0,0,1,.127-.069l.447-.137a2.518,2.518,0,0,1,.472-.048H26.276a1.194,1.194,0,0,0,0-2.389H8.361a4.928,4.928,0,0,0-.945.094,3.341,3.341,0,0,0-.333.094l-.156.047a3.228,3.228,0,0,0-.389.127,3.444,3.444,0,0,0-.408.207l-.113.062a2.8,2.8,0,0,0-.307.174,4.772,4.772,0,0,0-.73.6L.349,53.033a1.194,1.194,0,0,0,.846,2.039Z" transform="translate(0.001 9.134)" fill="#64137d"></path><path id="Trazado_263" data-name="Trazado 263" d="M58.487,49.233a1.191,1.191,0,0,0,.844-.35l.844-.844a1.194,1.194,0,1,0-1.689-1.689l-.844.844a1.194,1.194,0,0,0,.844,2.039Z" transform="translate(11.135 8.939)" fill="#64137d"></path><path id="Trazado_264" data-name="Trazado 264" d="M54.916,50.077l-1.8,1.8A1.194,1.194,0,1,0,54.8,53.569l1.8-1.8a1.194,1.194,0,1,0-1.689-1.689Z" transform="translate(10.255 9.664)" fill="#64137d"></path><path id="Trazado_265" data-name="Trazado 265" d="M47.869,52a1.194,1.194,0,1,0,0,2.389h2.55a1.194,1.194,0,0,0,0-2.389Z" transform="translate(9.072 10.105)" fill="#64137d"></path><path id="Trazado_266" data-name="Trazado 266" d="M41.464,52a1.194,1.194,0,1,0,0,2.389h2.55a1.194,1.194,0,0,0,0-2.389Z" transform="translate(7.827 10.105)" fill="#64137d"></path><path id="Trazado_267" data-name="Trazado 267" d="M36.194,52a1.194,1.194,0,1,0,0,2.389h1.194a1.194,1.194,0,0,0,0-2.389Z" transform="translate(6.803 10.105)" fill="#64137d"></path><path id="Trazado_268" data-name="Trazado 268" d="M68.455,52.592l-4.629,4.629a2.184,2.184,0,0,1-.414.324l-.225.122a1.362,1.362,0,0,1-.142.075.923.923,0,0,1-.116.035l-.332.1a2.311,2.311,0,0,1-.463.048H8.257L6.446,59.383a1.194,1.194,0,1,0,1.5,1.861l1.157-.93H62.134a4.683,4.683,0,0,0,.93-.093,2.89,2.89,0,0,0,.352-.1l.149-.044a3.266,3.266,0,0,0,.4-.133,3.638,3.638,0,0,0,.4-.2l.118-.064a2.62,2.62,0,0,0,.295-.167,4.734,4.734,0,0,0,.733-.6l4.629-4.629a1.194,1.194,0,1,0-1.689-1.689Z" transform="translate(1.167 10.153)" fill="#64137d"></path><path id="Trazado_269" data-name="Trazado 269" d="M39,48.777a1.194,1.194,0,0,0,1.194,1.194H54.732l3.933-3.933a1.194,1.194,0,1,0-1.689-1.689l-3.233,3.233H40.194A1.194,1.194,0,0,0,39,48.777Z" transform="translate(7.581 8.551)" fill="#64137d"></path></g></g></svg> 