<?xml version="1.0" encoding="UTF-8"?> <svg xmlns="http://www.w3.org/2000/svg" width="190" height="190" viewBox="0 0 190 190"><g id="Grupo_384" data-name="Grupo 384" transform="translate(1264 -1746)"><rect id="Rectángulo_175" data-name="Rectángulo 175" width="190" height="190" transform="translate(-1264 1746)" fill="none"></rect><g id="Grupo_12" data-name="Grupo 12" transform="translate(-1230 1777)" opacity="0.7"><g id="Grupo_8" data-name="Grupo 8" transform="translate(64.906)"><path id="Trazado_42" data-name="Trazado 42" d="M88.395,24H36.871A32.773,32.773,0,0,0,36,31.4V85.46H89.265V31.4A32.774,32.774,0,0,0,88.395,24ZM62.633,52.681c-7.92,0-14.341-4.587-14.341-10.243s6.421-10.243,14.341-10.243,14.341,4.587,14.341,10.243S70.553,52.681,62.633,52.681Z" transform="translate(-33.951 23.119)" fill="#64137d"></path><path id="Trazado_45" data-name="Trazado 45" d="M84.729,33.764,75.973,22.816V17.389a6.153,6.153,0,0,0,6.146-6.146v-4.1A6.153,6.153,0,0,0,75.973,1H51.389a6.153,6.153,0,0,0-6.146,6.146v4.1a6.153,6.153,0,0,0,6.146,6.146v5.427L42.631,33.762A34.964,34.964,0,0,0,35,55.519v60.046a12.37,12.37,0,0,0,8.936,12.214,7.934,7.934,0,0,0,7.812-2.352c1.016-.938,1.629-1.506,3.044-1.506s2.03.565,3.044,1.5a7.846,7.846,0,0,0,11.657,0c1.016-.938,1.631-1.5,3.05-1.5h0c1.42,0,2.034.565,3.05,1.5a7.955,7.955,0,0,0,7.83,2.348,12.384,12.384,0,0,0,8.936-12.214V55.519A34.944,34.944,0,0,0,84.729,33.764ZM49.341,11.243v-4.1A2.052,2.052,0,0,1,51.389,5.1H75.973a2.052,2.052,0,0,1,2.049,2.049v4.1a2.052,2.052,0,0,1-2.049,2.049H51.389A2.052,2.052,0,0,1,49.341,11.243Zm-3.509,25.08,9.655-12.069V17.389H71.876v6.865l9.655,12.069a30.842,30.842,0,0,1,6.734,19.2V82.946H39.1V55.519A30.841,30.841,0,0,1,45.831,36.323ZM88.265,87.044v4.1H39.1v-4.1Zm-5.871,36.763a3.748,3.748,0,0,1-.965.113c-1.422,0-2.036-.565-3.055-1.506a7.958,7.958,0,0,0-5.828-2.59h0a7.946,7.946,0,0,0-5.83,2.594c-1.016.938-1.631,1.5-3.05,1.5s-2.03-.565-3.044-1.5a7.837,7.837,0,0,0-11.651,0c-1.016.938-1.629,1.5-3.046,1.5a3.828,3.828,0,0,1-.959-.111c-3.4-.879-5.863-4.347-5.863-8.248V103.433H80.071v-4.1H39.1v-4.1H88.265v4.1h-4.1v4.1h4.1v12.126C88.265,119.454,85.8,122.924,82.394,123.807Z" transform="translate(-35 -1)" fill="#64137d"></path></g><g id="Grupo_9" data-name="Grupo 9"><path id="Trazado_57" data-name="Trazado 57" d="M20.413,58.952a10.212,10.212,0,0,1-9.068-15.276l8.967-15.692,8.967,15.69a10.213,10.213,0,0,1-8.866,15.278Z" transform="translate(8.561 27.666)" fill="#64127d"></path><path id="Trazado_60" data-name="Trazado 60" d="M54.553,101.516a38.879,38.879,0,0,1-.5-22.97,68.276,68.276,0,0,0,2.629-18.769A46.325,46.325,0,0,0,46.569,30.945l-6.385-7.983V17.119a6.179,6.179,0,0,0,4.125-5.808V7.187A6.2,6.2,0,0,0,38.122,1h-16.5a6.2,6.2,0,0,0-6.187,6.187v4.125a6.179,6.179,0,0,0,4.125,5.808v5.845l-6.385,7.981A46.317,46.317,0,0,0,3.062,59.777,68.3,68.3,0,0,0,5.692,78.548a38.859,38.859,0,0,1,1.5,10.677,38.786,38.786,0,0,1-1.994,12.292l-3.553,10.66A12.381,12.381,0,0,0,1,116.115a12.124,12.124,0,0,0,4.374,9.468c.262.214.507.441.753.668a7.894,7.894,0,0,0,11.733,0c1.021-.945,1.64-1.514,3.065-1.514s2.044.569,3.065,1.514a7.9,7.9,0,0,0,11.735,0c1.023-.945,1.642-1.514,3.071-1.514s2.05.569,3.073,1.516a7.909,7.909,0,0,0,11.743,0c.247-.227.493-.456.755-.668a12.11,12.11,0,0,0,4.382-9.474,12.352,12.352,0,0,0-.639-3.933ZM19.561,7.187a2.066,2.066,0,0,1,2.062-2.062h16.5a2.066,2.066,0,0,1,2.062,2.062v4.125a2.066,2.066,0,0,1-2.062,2.062h-16.5a2.066,2.066,0,0,1-2.062-2.062ZM16.4,33.521l7.288-9.111V17.5H36.06V24.41l7.288,9.111A42.1,42.1,0,0,1,51.478,50.5H8.266A42.128,42.128,0,0,1,16.4,33.521Zm-8.852,21.1H52.2a41.744,41.744,0,0,1,.357,5.156,64.177,64.177,0,0,1-2.471,17.639,42.983,42.983,0,0,0-1.654,11.809c0,.841.052,1.681.1,2.518H11.211c.049-.837.1-1.675.1-2.518A43,43,0,0,0,9.658,77.414,64.163,64.163,0,0,1,7.187,59.777,41.35,41.35,0,0,1,7.546,54.621Zm44.212,67.766c-.328.268-.637.553-.945.835-1.027.949-1.646,1.518-3.075,1.518s-2.05-.569-3.073-1.516a7.907,7.907,0,0,0-11.739,0c-1.025.947-1.644,1.516-3.073,1.516s-2.044-.569-3.065-1.514a7.893,7.893,0,0,0-11.731,0c-1.021.945-1.64,1.514-3.065,1.514s-2.044-.569-3.067-1.516c-.307-.285-.617-.567-.945-.833a8.029,8.029,0,0,1-2.858-6.28,8.231,8.231,0,0,1,.427-2.627L9.1,102.822a42.975,42.975,0,0,0,1.683-6.954H48.96a42.975,42.975,0,0,0,1.683,6.954L54.2,113.486a8.33,8.33,0,0,1,.423,2.625,8,8,0,0,1-2.863,6.276Z" transform="translate(-1 -1)" fill="#64137d"></path></g></g></g></svg> 