<?xml version="1.0" encoding="UTF-8"?> <svg xmlns="http://www.w3.org/2000/svg" width="190" height="190" viewBox="0 0 190 190"><g id="Grupo_385" data-name="Grupo 385" transform="translate(1494 -1746)"><rect id="Rectángulo_174" data-name="Rectángulo 174" width="190" height="190" transform="translate(-1494 1746)" fill="none"></rect><g id="gift" transform="translate(-1460 1780)" opacity="0.7"><path id="Trazado_61" data-name="Trazado 61" d="M3.592,318.65V269.742H0V318.65a8.988,8.988,0,0,0,8.978,8.978h6.841v-3.592H8.978A5.392,5.392,0,0,1,3.592,318.65Zm0,0" transform="translate(0 -205.289)" fill="#64137d"></path><path id="Trazado_63" data-name="Trazado 63" d="M302.3,258.451h-5.533a7.782,7.782,0,0,0-6.557-11.97h-.144a7.827,7.827,0,0,0-4.7,1.579l-8.206,6.216v-.014a7.781,7.781,0,1,0-15.561,0v.014l-8.206-6.217a7.828,7.828,0,0,0-4.7-1.578h-.143a7.782,7.782,0,0,0-6.558,11.97h-5.533v17.956h3.592v33.517h58.655V288.976h-3.591v17.357H278.358V276.407h16.759v12.569h3.591V276.407H302.3Zm-14.764-7.529a4.212,4.212,0,0,1,2.53-.85h.144a4.189,4.189,0,0,1,0,8.379H277.6Zm-18.155-.85a4.189,4.189,0,1,1-4.19,4.19A4.195,4.195,0,0,1,269.38,250.072Zm-23.792,7.151a4.19,4.19,0,0,1,2.963-7.151h.143a4.21,4.21,0,0,1,2.53.85l9.938,7.529H248.552A4.164,4.164,0,0,1,245.588,257.224Zm-1.945,19.183h4.19v-3.592h-7.781V262.043H260.4v10.773H247.833v3.592H260.4v29.926H243.643Zm20.35,29.926v-44.29h10.773v44.29Zm34.714-33.517H278.358V262.043h20.349Zm0,0" transform="translate(-179.96 -187.586)" fill="#64137d"></path><path id="Trazado_62" data-name="Trazado 62" d="M47.882,75.055H44.291v43.692H33.517V50.737a12.547,12.547,0,0,0,10.774,0V75.055h3.591V48.167l.021-.022L59.528,52.1a6.641,6.641,0,0,0,2.141.358,6.624,6.624,0,0,0,6.077-4.1h6.47V64.11h3.592V8.978A8.988,8.988,0,0,0,68.83,0h-10.5V3.592h10.5a5.393,5.393,0,0,1,5.386,5.386V30.405h-6.47a6.6,6.6,0,0,0-8.218-3.738L47.9,30.62l-.021-.021V3.592H58.331V0H8.978A8.988,8.988,0,0,0,0,8.978V64.77H3.592V48.361h6.47a6.62,6.62,0,0,0,6.077,4.1A6.645,6.645,0,0,0,18.28,52.1l11.625-3.952.021.021v70.579H15.486v3.592h45.2v-3.592h-12.8ZM74.217,44.77H68.232V34h5.985Zm-44.29-5.386A8.978,8.978,0,1,1,38.9,48.361,8.987,8.987,0,0,1,29.927,39.383Zm30.758-9.316A2.992,2.992,0,0,1,64.64,32.9V45.866A2.993,2.993,0,0,1,60.685,48.7L50.094,45.1a12.524,12.524,0,0,0,0-11.428ZM44.291,28.029a12.547,12.547,0,0,0-10.774,0V3.592H44.291ZM3.592,34H9.576V44.77H3.592Zm6.47-3.591H3.592V8.978A5.392,5.392,0,0,1,8.978,3.592H29.927V30.6l-.021.021L18.28,26.668a6.6,6.6,0,0,0-8.218,3.737ZM17.124,48.7a2.993,2.993,0,0,1-3.956-2.833V32.9a2.992,2.992,0,0,1,3.956-2.835l10.591,3.6a12.524,12.524,0,0,0,0,11.428Zm0,0" fill="#64137d"></path></g></g></svg> 