<?xml version="1.0" encoding="UTF-8"?> <svg xmlns="http://www.w3.org/2000/svg" width="105" height="105" viewBox="0 0 105 105"><g id="Grupo_375" data-name="Grupo 375" transform="translate(1876 -266)"><rect id="Rectángulo_167" data-name="Rectángulo 167" width="105" height="105" transform="translate(-1876 266)" fill="none"></rect><g id="pesticide" transform="translate(-1862.25 279.75)" opacity="0.7"><path id="Trazado_340" data-name="Trazado 340" d="M65.6,23.221V21.085a.944.944,0,0,0-.944-.944H61.6a.944.944,0,0,0-.944.944V23.2H56.493V20.366h1.6a.944.944,0,0,0,.944-.944V15.69a.944.944,0,0,0-.944-.944H42.623a.944.944,0,0,0-.944.944v3.732a.944.944,0,0,0,.944.944h1.6V23.2H35.335a2.876,2.876,0,0,0-2.873,2.873V53.548h-4a.944.944,0,0,0-.944.944v1.939h-3.24A1.128,1.128,0,0,1,23.149,55.3V31.625a4.9,4.9,0,0,0,2.119-4.03V23.379a4.9,4.9,0,0,0-2.119-4.03V16.388A6.145,6.145,0,0,0,17.01,10.25H11.194a.944.944,0,0,0-.944.944V14.6a.944.944,0,0,0,.944.944H16.33a1.526,1.526,0,0,1,1.524,1.524v2.111a4.9,4.9,0,0,0-2.389,4.2V27.6a4.9,4.9,0,0,0,2.389,4.2V56.41a5.321,5.321,0,0,0,5.315,5.315h4.346v1.939a.944.944,0,0,0,.944.944h4v.769a2.876,2.876,0,0,0,2.873,2.873H65.377a2.876,2.876,0,0,0,2.873-2.873V26.072A2.868,2.868,0,0,0,65.6,23.221ZM34.35,32H66.362V59.314H34.35Zm0-1.888V28.594H66.362v1.518Zm0,31.091H66.362V62.72H34.35Zm28.19-39.17H63.71V23.2H62.541Zm-18.974-5.4H57.145v1.844H43.566Zm2.541,3.732h8.5V23.2h-8.5ZM35.335,25.087H65.377a.986.986,0,0,1,.985.985v.634H34.35v-.634a.986.986,0,0,1,.985-.985ZM16.33,13.656H12.138V12.138H17.01a4.254,4.254,0,0,1,4.249,4.249v2.175a4.586,4.586,0,0,0-1.517-.041V17.069a3.416,3.416,0,0,0-3.413-3.413Zm1.025,9.723a3.012,3.012,0,1,1,6.025,0V27.6a3.012,3.012,0,0,1-6.025,0ZM23.17,59.837a3.43,3.43,0,0,1-3.427-3.427V32.452a4.586,4.586,0,0,0,1.518-.041V55.3a3.021,3.021,0,0,0,3.015,3.015h3.239v1.518Zm6.233-4.4h3.059V62.72H29.4ZM65.377,66.362H35.335a.986.986,0,0,1-.985-.985v-.769H66.362v.769a.986.986,0,0,1-.985.985Z" fill="#64137d"></path><path id="Trazado_341" data-name="Trazado 341" d="M76.162,77.2a9.053,9.053,0,1,0-9.053-9.053A9.053,9.053,0,0,0,76.162,77.2Zm0-16.218A7.164,7.164,0,1,1,69,68.149a7.164,7.164,0,0,1,7.165-7.165Z" transform="translate(-26.182 -22.492)" fill="#64137d"></path><path id="Trazado_342" data-name="Trazado 342" d="M77.7,76.332a.944.944,0,0,0,1.335,0l1.876-1.876,1.876,1.876A.944.944,0,0,0,84.123,75l-1.877-1.874,1.876-1.878a.944.944,0,1,0-1.335-1.335l-1.876,1.876-1.876-1.876A.944.944,0,1,0,77.7,71.244l1.877,1.878L77.7,75A.944.944,0,0,0,77.7,76.332Z" transform="translate(-30.931 -27.344)" fill="#64137d"></path></g></g></svg> 