<?xml version="1.0" encoding="UTF-8"?> <svg xmlns="http://www.w3.org/2000/svg" width="105" height="105" viewBox="0 0 105 105"><g id="Grupo_377" data-name="Grupo 377" transform="translate(1513 -266)"><rect id="Rectángulo_169" data-name="Rectángulo 169" width="105" height="105" transform="translate(-1513 266)" fill="none"></rect><g id="clean-dishes" transform="translate(-1492 287)"><path id="Trazado_345" data-name="Trazado 345" d="M59.912,28.384l-1.574,1.232C60,31.747,61,35.271,61,39.042a17.891,17.891,0,0,1-4.607,11.993,5.917,5.917,0,0,0-.709.116,5.98,5.98,0,0,0-.752-1.519,15.963,15.963,0,0,0,1.6-19.166l-1.691,1.068a13.972,13.972,0,0,1-1.291,16.643,5.964,5.964,0,0,0-9.239,2.973A5.881,5.881,0,0,0,43,51a5.971,5.971,0,0,0-3.885,1.436A14.065,14.065,0,0,1,31,46.195V31.8A14.015,14.015,0,0,1,45.8,25.28l.4-1.96a16.021,16.021,0,0,0-15.2,5.1V25.738a17.946,17.946,0,0,1,18.633-3.406l.734-1.86A19.956,19.956,0,0,0,31,23.139V20a3,3,0,0,0-3-3H23V12a1,1,0,0,0-1-1H21V9h6v3a1,1,0,0,0,1,1h4a1,1,0,0,0,1-1V8a5.006,5.006,0,0,0-5-5H21V2a1,1,0,0,0-1-1H12a1,1,0,0,0-1,1v9H10a1,1,0,0,0-1,1v5H4a3,3,0,0,0-3,3V60a3,3,0,0,0,3,3H28a3,3,0,0,0,3-3V54.951a19.991,19.991,0,0,0,6.1,3.14A6.007,6.007,0,0,0,43,63H57a6,6,0,0,0,1.8-11.722A19.88,19.88,0,0,0,63,39.042c0-4.266-1.125-8.151-3.088-10.658ZM21,5h7a3,3,0,0,1,3,3v3H29V8a1,1,0,0,0-1-1H21ZM13,3h6v8H13ZM11,13H21v4H11ZM29,60a1,1,0,0,1-1,1H4a1,1,0,0,1-1-1V55H29Zm0-7H3V27H29Zm0-28H3V20a1,1,0,0,1,1-1H28a1,1,0,0,1,1,1Zm8.092,30.987A18.026,18.026,0,0,1,31,52.354V49.577a16.1,16.1,0,0,0,6.746,4.531,5.96,5.96,0,0,0-.654,1.879ZM61,57a4,4,0,0,1-4,4H43a4,4,0,1,1,1.644-7.637,1,1,0,0,0,1.406-.8,3.971,3.971,0,0,1,7.9,0,1,1,0,0,0,1.406.8A3.962,3.962,0,0,1,57,53a4,4,0,0,1,4,4Z" fill="rgba(100,19,125,0.7)"></path><path id="Trazado_346" data-name="Trazado 346" d="M32.343,38H43.657v2H32.343Z" transform="translate(-16.447 38.293) rotate(-45)" fill="rgba(100,19,125,0.7)"></path><path id="Trazado_347" data-name="Trazado 347" d="M42.343,38H53.657v2H42.343Z" transform="translate(-13.518 45.364) rotate(-45)" fill="rgba(100,19,125,0.7)"></path><path id="Trazado_348" data-name="Trazado 348" d="M8,35H24a1,1,0,0,0,1-1V30a1,1,0,0,0-1-1H8a1,1,0,0,0-1,1v4A1,1,0,0,0,8,35Zm1-4H23v2H9Z" fill="rgba(100,19,125,0.7)"></path><path id="Trazado_349" data-name="Trazado 349" d="M5,37H27v2H5Z" fill="rgba(100,19,125,0.7)"></path><path id="Trazado_350" data-name="Trazado 350" d="M7,41H25v2H7Z" fill="rgba(100,19,125,0.7)"></path><path id="Trazado_351" data-name="Trazado 351" d="M7,49H25v2H7Z" fill="rgba(100,19,125,0.7)"></path><path id="Trazado_352" data-name="Trazado 352" d="M5,45H27v2H5Z" fill="rgba(100,19,125,0.7)"></path><path id="Trazado_353" data-name="Trazado 353" d="M53.684,6.949a5.353,5.353,0,0,1,3.368,3.368,1,1,0,0,0,1.9,0,5.353,5.353,0,0,1,3.368-3.368,1,1,0,0,0,0-1.9,5.353,5.353,0,0,1-3.368-3.368,1,1,0,0,0-1.9,0,5.353,5.353,0,0,1-3.368,3.368,1,1,0,0,0,0,1.9ZM58,4.2A7.431,7.431,0,0,0,59.8,6,7.431,7.431,0,0,0,58,7.8,7.431,7.431,0,0,0,56.2,6,7.431,7.431,0,0,0,58,4.2Z" fill="rgba(100,19,125,0.7)"></path><path id="Trazado_354" data-name="Trazado 354" d="M48,26a1,1,0,0,0,.684.949,5.353,5.353,0,0,1,3.368,3.368,1,1,0,0,0,1.9,0,5.353,5.353,0,0,1,3.368-3.368,1,1,0,0,0,0-1.9,5.353,5.353,0,0,1-3.368-3.368,1,1,0,0,0-1.9,0,5.353,5.353,0,0,1-3.368,3.368A1,1,0,0,0,48,26Zm5-1.8A7.413,7.413,0,0,0,54.8,26,7.431,7.431,0,0,0,53,27.8,7.413,7.413,0,0,0,51.2,26,7.431,7.431,0,0,0,53,24.2Z" fill="rgba(100,19,125,0.7)"></path></g></g></svg> 