<?xml version="1.0" encoding="UTF-8"?> <svg xmlns="http://www.w3.org/2000/svg" width="121" height="121" viewBox="0 0 121 121"><g id="Grupo_392" data-name="Grupo 392" transform="translate(-5131 -4898)"><rect id="Rectángulo_185" data-name="Rectángulo 185" width="121" height="121" transform="translate(5131 4898)" fill="none"></rect><g id="factory" transform="translate(5150 4936)"><g id="Grupo_174" data-name="Grupo 174" transform="translate(0 0)"><g id="Grupo_173" data-name="Grupo 173" transform="translate(0)"><path id="Trazado_245" data-name="Trazado 245" d="M106.1,177.754H99.693V137.469A1.444,1.444,0,0,0,98.228,136h-65a1.444,1.444,0,0,0-1.465,1.465v40.285H26.265a1.465,1.465,0,0,0,0,2.93h80.02a1.444,1.444,0,0,0,1.465-1.465A1.946,1.946,0,0,0,106.1,177.754Zm-53.285,0H43.661V160.175h9.156Zm11.9,0H55.563V160.175h9.156Zm32.045,0H67.648v-18.86a1.444,1.444,0,0,0-1.465-1.465H42.2a1.444,1.444,0,0,0-1.465,1.465v19.044H34.322V138.751H96.763v39Z" transform="translate(-24.8 -136.004)" fill="#64137d"></path></g></g><g id="Grupo_178" data-name="Grupo 178" transform="translate(17.762 9.705)"><g id="Grupo_177" data-name="Grupo 177"><path id="Trazado_247" data-name="Trazado 247" d="M113.02,259.2h-9.156a1.465,1.465,0,1,0,0,2.93h9.156a1.465,1.465,0,1,0,0-2.93Z" transform="translate(-102.4 -259.2)" fill="#64137d"></path></g></g><g id="Grupo_180" data-name="Grupo 180" transform="translate(33.143 9.705)"><g id="Grupo_179" data-name="Grupo 179"><path id="Trazado_248" data-name="Trazado 248" d="M180.22,259.2h-9.156a1.465,1.465,0,1,0,0,2.93h9.156a1.444,1.444,0,0,0,1.465-1.465C181.5,259.932,180.953,259.2,180.22,259.2Z" transform="translate(-169.6 -259.2)" fill="#64137d"></path></g></g><g id="Grupo_182" data-name="Grupo 182" transform="translate(48.341 9.522)"><g id="Grupo_181" data-name="Grupo 181"><path id="Trazado_249" data-name="Trazado 249" d="M246.62,258.4h-9.156A1.444,1.444,0,0,0,236,259.865c.183.916.732,1.465,1.465,1.465h9.156a1.465,1.465,0,1,0,0-2.93Z" transform="translate(-236 -258.4)" fill="#64137d"></path></g></g><g id="Grupo_184" data-name="Grupo 184" transform="translate(47.792 21.424)"><g id="Grupo_183" data-name="Grupo 183"><path id="Trazado_250" data-name="Trazado 250" d="M247.883,310.4H235.065a1.444,1.444,0,0,0-1.465,1.465v9.522a1.444,1.444,0,0,0,1.465,1.465h12.818a1.444,1.444,0,0,0,1.465-1.465v-9.522C249.165,311.132,248.615,310.4,247.883,310.4Zm-1.465,9.522H236.347v-6.775h10.071Z" transform="translate(-233.6 -310.4)" fill="#64137d"></path></g></g></g></g></svg> 