<?xml version="1.0" encoding="UTF-8"?> <svg xmlns="http://www.w3.org/2000/svg" width="105" height="105" viewBox="0 0 105 105"><g id="Grupo_376" data-name="Grupo 376" transform="translate(1715 -266)"><rect id="Rectángulo_168" data-name="Rectángulo 168" width="105" height="105" transform="translate(-1715 266)" fill="none"></rect><g id="lipstick" transform="translate(-1682 287)"><path id="Trazado_343" data-name="Trazado 343" d="M4.244,0A1.061,1.061,0,0,0,3.183,1.061V14.856a1.061,1.061,0,0,0-1.061,1.061V33.956a1.061,1.061,0,0,0-1.061,1.061V38.2A1.061,1.061,0,0,0,0,39.261V60.483a3.183,3.183,0,0,0,3.183,3.183H13.794a3.183,3.183,0,0,0,3.183-3.183V39.261A1.061,1.061,0,0,0,15.917,38.2V35.017a1.061,1.061,0,0,0-1.061-1.061V15.917a1.061,1.061,0,0,0-1.061-1.061V9.55A9.561,9.561,0,0,0,4.244,0ZM14.856,60.483a1.061,1.061,0,0,1-1.061,1.061H3.183a1.061,1.061,0,0,1-1.061-1.061V40.322H14.856ZM3.183,38.2V36.078H13.794V38.2Zm1.061-4.244V16.978h8.489V33.956Zm1.061-19.1V2.2A7.44,7.44,0,0,1,11.672,9.55v5.306Zm0,0" fill="rgba(100,19,125,0.7)"></path><path id="Trazado_344" data-name="Trazado 344" d="M176.978,215.261V179.183A3.183,3.183,0,0,0,173.794,176H163.183A3.183,3.183,0,0,0,160,179.183v36.078a1.061,1.061,0,0,0,1.061,1.061h14.856A1.061,1.061,0,0,0,176.978,215.261Zm-2.122-1.061H162.122V179.183a1.061,1.061,0,0,1,1.061-1.061h10.611a1.061,1.061,0,0,1,1.061,1.061Zm0,0" transform="translate(-138.778 -152.656)" fill="rgba(100,19,125,0.7)"></path></g></g></svg> 