<?xml version="1.0" encoding="UTF-8"?> <svg xmlns="http://www.w3.org/2000/svg" width="190" height="190" viewBox="0 0 190 190"><g id="Grupo_386" data-name="Grupo 386" transform="translate(1725 -1746)"><rect id="Rectángulo_173" data-name="Rectángulo 173" width="190" height="190" transform="translate(-1725 1746)" fill="none"></rect><g id="Grupo_383" data-name="Grupo 383" transform="translate(-1710 1788)" opacity="0.7"><g id="paper-roll" transform="translate(0)"><g id="Grupo_7" data-name="Grupo 7" transform="translate(0)"><path id="Trazado_39" data-name="Trazado 39" d="M45.055,0V.069c-14.7.667-25.979,6.844-26.823,14.763h-.086v76.8a2.551,2.551,0,0,0,.069.578c.711,7.83,14.162,14.565,29.484,14.565,11.191,0,21.375-3.6,26.348-8.586h39.041V0H45.055ZM107.8,5.284V92.909H77.108c.041-.229.052-.461.072-.695a2.55,2.55,0,0,0,.069-.578v-76.8h-.086c-.4-3.688-3.048-7-7.267-9.548ZM64.537,98.193a41.492,41.492,0,0,1-16.84,3.3c-14.726,0-24.141-6.433-24.257-9.859h-.01v-.065h0V24.879c4.829,3.706,12.581,6.2,21.625,6.612.872.039,1.749.069,2.642.069s1.77-.03,2.642-.069c9.044-.41,16.8-2.906,21.625-6.612V91.571h0v.065h-.01a2.911,2.911,0,0,1-.394,1.275,9.238,9.238,0,0,1-2.47,2.642A22.739,22.739,0,0,1,64.537,98.193ZM45.055,5.348c.863-.04,1.744-.064,2.642-.064s1.779.023,2.642.064c12,.586,20.424,5.1,21.507,9.483a4.108,4.108,0,0,1,.118.948,4.265,4.265,0,0,1-.39,1.694,7.876,7.876,0,0,1-2.038,2.642c-3.445,3.082-10.333,5.662-19.2,6.1q-1.3.065-2.642.064c-.9,0-1.779-.023-2.642-.064-8.863-.433-15.753-3.013-19.2-6.1a7.869,7.869,0,0,1-2.038-2.642,4.262,4.262,0,0,1-.39-1.694,3.921,3.921,0,0,1,.119-.948C24.631,10.452,33.052,5.934,45.055,5.348Z" transform="translate(-18.146)" fill="#64137d"></path><path id="Trazado_40" data-name="Trazado 40" d="M72.544,40.038a19.866,19.866,0,0,0,6.978,1.686c.886.072,1.773.113,2.642.113s1.756-.039,2.642-.113a19.868,19.868,0,0,0,6.978-1.686A5.924,5.924,0,0,0,94.65,37.4a3.951,3.951,0,0,0,.381-1.694,4.027,4.027,0,0,0-.12-.948c-.762-3.2-5.379-4.687-10.1-5.076-.886-.072-1.773-.113-2.642-.113s-1.756.039-2.642.113c-4.726.388-9.342,1.872-10.1,5.076a4.038,4.038,0,0,0-.12.948,3.95,3.95,0,0,0,.381,1.694A5.924,5.924,0,0,0,72.544,40.038Zm12.262-3.628a24.84,24.84,0,0,1-5.284,0,17.7,17.7,0,0,1-3.644-.708,17.526,17.526,0,0,1,3.644-.709,24.78,24.78,0,0,1,5.284,0,17.526,17.526,0,0,1,3.644.709A17.592,17.592,0,0,1,84.807,36.409Z" transform="translate(-52.614 -19.922)" fill="#64137d"></path></g></g><g id="paper-roll-2" data-name="paper-roll" transform="translate(90.693 27.984)"><g id="Grupo_7-2" data-name="Grupo 7" transform="translate(0)"><path id="Trazado_39-2" data-name="Trazado 39" d="M38,0V.051C27.155.543,18.832,5.1,18.21,10.945h-.064V67.621a1.882,1.882,0,0,0,.051.427C18.722,73.825,28.647,78.8,39.954,78.8c8.259,0,15.774-2.655,19.443-6.336H88.206V0H38ZM84.3,3.9V68.56H61.656c.03-.169.038-.34.053-.513a1.883,1.883,0,0,0,.051-.427V10.945H61.7C61.4,8.223,59.447,5.783,56.334,3.9ZM52.379,72.459A30.618,30.618,0,0,1,39.952,74.9c-10.867,0-17.814-4.747-17.9-7.276h-.008v-.048h0V18.359c3.563,2.735,9.284,4.576,15.958,4.879.644.029,1.291.051,1.95.051s1.306-.022,1.95-.051c6.674-.3,12.394-2.144,15.958-4.879V67.573h0v.048h-.007a2.148,2.148,0,0,1-.291.941,6.817,6.817,0,0,1-1.822,1.95A16.78,16.78,0,0,1,52.379,72.459ZM38,3.946c.637-.03,1.287-.047,1.95-.047s1.312.017,1.95.047c8.858.433,15.072,3.767,15.87,7a3.031,3.031,0,0,1,.087.7,3.147,3.147,0,0,1-.288,1.25,5.812,5.812,0,0,1-1.5,1.95c-2.542,2.275-7.625,4.178-14.167,4.5q-.956.048-1.95.047c-.663,0-1.313-.017-1.95-.047-6.54-.32-11.625-2.224-14.167-4.5a5.807,5.807,0,0,1-1.5-1.95,3.145,3.145,0,0,1-.288-1.25,2.893,2.893,0,0,1,.088-.7C22.931,7.713,29.145,4.379,38,3.946Z" transform="translate(-18.146)" fill="#64137d"></path><path id="Trazado_40-2" data-name="Trazado 40" d="M71.694,37.293a14.659,14.659,0,0,0,5.15,1.244c.654.053,1.309.083,1.95.083s1.3-.029,1.95-.083a14.661,14.661,0,0,0,5.15-1.244,4.371,4.371,0,0,0,2.114-1.95,2.916,2.916,0,0,0,.281-1.25,2.972,2.972,0,0,0-.089-.7c-.562-2.364-3.969-3.459-7.456-3.746-.654-.053-1.309-.083-1.95-.083s-1.3.029-1.95.083c-3.487.287-6.894,1.382-7.456,3.746a2.98,2.98,0,0,0-.089.7,2.915,2.915,0,0,0,.281,1.25A4.371,4.371,0,0,0,71.694,37.293Zm9.049-2.677a18.331,18.331,0,0,1-3.9,0,13.061,13.061,0,0,1-2.689-.522,12.935,12.935,0,0,1,2.689-.523,18.287,18.287,0,0,1,3.9,0,12.934,12.934,0,0,1,2.689.523A12.981,12.981,0,0,1,80.742,34.616Z" transform="translate(-56.986 -22.449)" fill="#64137d"></path></g></g></g></g></svg> 