<?xml version="1.0" encoding="UTF-8"?> <svg xmlns="http://www.w3.org/2000/svg" width="715.585" height="809.665" viewBox="0 0 715.585 809.665"><g id="Grupo_405" data-name="Grupo 405" transform="translate(-934.415 -456)"><g id="Grupo_352" data-name="Grupo 352" transform="translate(1823.543 218.967)"><path id="Trazado_379" data-name="Trazado 379" d="M-713.989,450.013c-.78-1.074-2.83.195-4.976-1.267a9.4,9.4,0,0,0-1.983-.974.965.965,0,0,1-.164.1,17.652,17.652,0,0,0-3.239,2.7c1.542,1.217,7.282,3.023,8.852,3.023a2.133,2.133,0,0,0,1.47-.606A5.951,5.951,0,0,0-713.989,450.013Z" transform="translate(192.007 245.566)" fill="#64137d" opacity="0.08"></path><path id="Trazado_380" data-name="Trazado 380" d="M-711.04,457.2c.195-.39-1.169-2.635,1.464-2.828s4.584-.487,4.976-2.148,3.512-.877,4.391-.974c.725-.08,3.051-2.222,5.324-2.137.032-2.219-2.982-1.5-5.065-3.588-2.224-2.217-7.074-1.208-9.7-.2s-5.66-1.111-8.49.5l-.1.05a16.511,16.511,0,0,1-2.46,2.54c-1.906,1.546-1.381,3.072-2.081,3.516a9.4,9.4,0,0,1,1.983.974c2.146,1.462,4.2.193,4.976,1.267a5.951,5.951,0,0,1-.041,2.975c.4-.325.7-.55,1.358,0,.593.491.487,1.106.409,1.713l1.689-.394A7.269,7.269,0,0,0-711.04,457.2Z" transform="translate(193.839 241.401)" fill="#64137d" opacity="0.08"></path><path id="Trazado_381" data-name="Trazado 381" d="M-665.759,488.054c.487-.1,5.56.589,6.05-.682s-3.8-4.095-3.319-4.393.684-3.413,1.464-3.413,7.905.195,8.293,0,1.758-2.732,2.927-2.83c.535-.043,1.371.608,2.126,1.325,1.312-1.219,1.778-3.96,2.025-6.186.3-2.728-.606-3.638.81-5.153s2.93-1.618,2.525-3.742-2.323,0-3.941-1.009-3.031-.3-7.176.305-6.065,2.326-5.861,5.251-1.416,1.62-1.314,4.146-3.235,2.626-3.033,4.147-2.627,0-3.436-.509-9.5,2.126-10.714,2.323-3.436-2.522-5.154-2.421-2.425-2.529-2.631-4.653-3.436-4.043-4.85-5.959-1.615-6.171-1.717-8.9a31.716,31.716,0,0,1,1.516-12.732,6.786,6.786,0,0,0,.409-1.9,3.718,3.718,0,0,0-1.9-.71c-1.728.108-5.615-2.267-6.372-2.267s-.647-1.836-1.295-2.808-.216-2.811-1.081-3.458a13.532,13.532,0,0,1-4.317-6.156c-.864-3.023-6.156-4.532-8.1-4.638s-3.023,4-3.562,4.207-4.212-2.157-5.29-2.7a3.069,3.069,0,0,1-1.62-2.914c0-1.3-2.269-3.35-2.916-3.562s-5.184-4.647-5.184-4.647h-7.126l-1.511,1.942-12.957.11s-9.934-3.672-11.77-4.1-5.076-2.7-5.076-2.7l-10.48,1.375a18.541,18.541,0,0,0,2.412,3.8,22.848,22.848,0,0,1,3.841,8.891c.2,1.617,3.133,2.934,5.66,4.553s2.527,5.151,2.224,6.061-3.438-.606-3.638.3,4.04,4.445,5.658,4.246,2.427.808,4.954,3.031,2.325,4.852,1.312,5.66,2.022,2.527,5.257,4.647a11.513,11.513,0,0,1,4.85,5.861c.3,1.115,1.719.1,2.226-1.414s-1.011-1.921-1.011-3.638-2.629-1.416-3.841-1.615.1-2.83-1.111-4.045-2.326-4.246-2.934-6.465-3.739-4.447-5.052-6.873a16.16,16.16,0,0,0-3.64-4.956c-.909-.606,1.314-1.514.507-2.423s-2.023-.81-3.538-1.52a3.9,3.9,0,0,1-2.527-3.534,28.741,28.741,0,0,0-1.516-6.771c-.507-1.317,1.111-1.113,1.615-.509s.912,1.215,1.62.81a1.82,1.82,0,0,1,2.425,1.011c.5,1.111,2.224.1,3.031.606s-1.819,1.113.808,5.76.81,2.022.81,5.156,1.617,1.719,2.122,1.212,1.92,1.009,3.235,2.629,3.839,1.717,3.839,2.627a3.007,3.007,0,0,0,2.226,3.034c1.717.3,2.02,2.222,3.133,2.425s1.312,1.418.706,2.728,0,2.427,2.83,3.54,1.518,1.312,3.742,3.436a131.916,131.916,0,0,1,9.8,10.915,18.358,18.358,0,0,1,2.224,4.95c.5,1.416-1.011,2.124-.2,3.339s-1.516.708-1.416,1.615,1.416,5.459,3.64,5.662,4.75,2.927,6.569,4.447,4.547,1.21,7.28,2.222,5.051,3.436,8.995,4.551a40.92,40.92,0,0,1,10.309,4.445c2.527,1.615,5.66.912,9.2-.5s6.266.4,8.289,1.212a26.278,26.278,0,0,1,4.9,3.815A40.289,40.289,0,0,1-665.759,488.054Z" transform="translate(125.63 197.669)" fill="#64137d" opacity="0.08"></path><path id="Trazado_382" data-name="Trazado 382" d="M-712.672,452.922a16.5,16.5,0,0,0,2.46-2.54c-1.587.857-2.068.035-1.836-1.08l-2.282.305.234-9.211c-1.838.08-6.992-.061-7.65-.061-.78,0-.974,3.12-1.464,3.413s3.807,3.127,3.319,4.393-5.562.585-6.05.682a40.29,40.29,0,0,0-3.729,4.922,64.648,64.648,0,0,0,5,4.27c1.92,1.213,5.056-.1,6.368,1.113.039.032.1.074.145.11a17.652,17.652,0,0,1,3.239-2.7C-713.938,456.239-714.722,454.582-712.672,452.922Z" transform="translate(185.812 236.9)" fill="#64137d" opacity="0.08"></path><path id="Trazado_383" data-name="Trazado 383" d="M-721.708,441.859a2.49,2.49,0,0,1-.643.061l-.234,9.211,2.282-.305a4.151,4.151,0,0,1,1.429-2.3c1.819-1.416-.912-7.074,1.212-7.578a2.324,2.324,0,0,0,1.011-.593c-.755-.717-1.594-1.364-2.131-1.321C-719.95,439.126-721.316,441.664-721.708,441.859Z" transform="translate(194.066 235.376)" fill="#64137d" opacity="0.08"></path><path id="Trazado_384" data-name="Trazado 384" d="M-685.581,435.656c-2.024,1.416,3.029,4.447,3.029,6.264s-8.111-.34-8.893,1.62c-.4,1.011,2.83,2.423,5.864,1.414a7.463,7.463,0,0,1,6.323.831c.225-3.06.576-6.513.9-8.858C-680.923,436.271-684.111,434.623-685.581,435.656Z" transform="translate(230.313 231.061)" fill="#64137d" opacity="0.08"></path><path id="Trazado_385" data-name="Trazado 385" d="M-679.829,443.082c3.64-1.215,9.5,1.009,9.5-1.821s-9.7-5.861-12.128-5.051a4.674,4.674,0,0,1-2.484-.145c-.32,2.345-.671,5.8-.9,8.858.117.063.234.123.346.178C-683.871,445.909-683.468,444.292-679.829,443.082Z" transform="translate(236.89 231.923)" fill="#64137d" opacity="0.08"></path><path id="Trazado_386" data-name="Trazado 386" d="M-708.413,465.3c1,.5,3.505,0,4.51.749a3.219,3.219,0,0,0,2.256.251c-.292-.424-.518-.767-.63-.979-.706-1.31.5-3.941,1.113-5.861s-.507-6.565.606-7.78.5-1.923,1.011-4.751a2.586,2.586,0,0,0,.009-.459c-2.274-.084-4.6,2.057-5.324,2.137-.879.1-4-.68-4.391.974s-2.341,1.953-4.976,2.148-1.269,2.438-1.464,2.828a7.277,7.277,0,0,1-1.366,1.271l-1.689.394a1.447,1.447,0,0,0,.7,1.724c1.617.905,3.841,4.447,5.558,5.357a3.174,3.174,0,0,1,1.559,1.847A5.755,5.755,0,0,1-708.413,465.3Z" transform="translate(198.492 244.045)" fill="#64137d" opacity="0.08"></path><path id="Trazado_387" data-name="Trazado 387" d="M-594.33,650.924c2.83-2.025,2.124-3.235,3.434-5.66s.2-3.436,2.43-5.56-.4-3.538,2.423-4.848,2.427,1.213.1,4.14-2.731,3.739.3,1.518,4.144-5.359,5.864-8.895,3.034-4.649,4.549-4.854,1.513-3.939,1.312-6.565-1.009-5.056.1-6.775,0-3.332,1.418-3.332,3.536-2.124,5.76-4.35a7.8,7.8,0,0,1,5.963-2.626c2.326-.2,1.011-1.011,2.529-1.414s2.527-1.821,3.536-2.733,5.156.1,7.581.1,4.043.2,4.043-1.31a2.618,2.618,0,0,1,2.529-2.733c1.412,0,2.02-.4,2.02-2.425a4.65,4.65,0,0,1,1.817-4.144c1.215-.907,1.418-2.927,1.821-4.242s1.717-.509,1.717-2.425.708-4.042.708-5.563,1.617-1.314,2.326-2.427-.606-2.522.5-5.658,0-6.065,0-8.893,0-5.762,1.011-6.673.507-1.414-.3-1.821.1-1.514.808-1.31,1.516,1.717,2.83.907,2.527-4.246,3.638-7.074,2.934-2.728,4.346-3.335,4.45-4.045,6.368-9-.1-9.8-.91-13.236-1.92-2.733-3.939-2.631-5.866-.4-10.919-5.861-10.008-5.054-13.34-4.144-6.773-1.618-9-2.12-4.346,2.323-5.961,2.929.808-2.427.909-4.348-6.067-4.649-10.716-6.468-6.669-.909-6.669,2.022-1.821-.912-3.235,2.224-4.045,1.111-2.325.1A10.3,10.3,0,0,0-573,494.159c.608-1.921-6.669-3.441-9.2-2.425s-.912,4.649-2.932,3.538-.405-3.845,1.213-3.742,3.438-3.233,4.549-5.658-1.921-2.836-3.741-4.852c-1.8-2-1.425-7.832-3.269-8.754-1.979,1.957-4.638,5.019-5.387,7.265-.959,2.873-2.191,1.232-4.789,2.057s-3.833-.279-4.517-1.368c-.682-1.1-3.285,0-5.06-.143s-.686,2.191-1.916,2.878-4.38-1.366-5.474-.136-1.778,0-2.323,1.093-2.464.411-3.012,1.093-2.462,1.094-4.928-1.643-2.053-7.251-.955-8.072a2.392,2.392,0,0,0-.413-3.832c-1.5-.68,0-3.558-1.912-3.83s-1.641,2.191-2.873,2.6-4.242,2.466-5.612,2.191-3.148.275-3.148,1.775-1.5,1.1-1.778-.132-3.144-.55-3.967-1.368-4.651-.411-3.01.546,1.778,1.916,1.778,3.421,1.232,1.093,1.232,2.873,1.368.546,2.326.546.957,1.648-.546,1.916a3.054,3.054,0,0,0-2.6,2.468c-.411,1.368-1.778.4-3.01,1.5s-2.328,2.193-3.148,1.643-1.5-.134-2.462.411-1.368,0-2.737-1.093c-1.026-.821-1.667-2.8-3.482-4.6a13.892,13.892,0,0,1-4.463,1.308c-1.6,0-6.611-.364-6.883.5a2.233,2.233,0,0,0,1.184,2.5c.821.184,2.553.684.914,1.871s-3.1-.411-3.1,2.458,3.681,4.738,2.917,7.39a34.063,34.063,0,0,0-.935,6.216c0,1.347-.535,5.928-1.75,6.193s-2.293-1.07-3.91.275-3.638.537-5.524,2.025-3.908.938-4.042,2.691-1.886,2.7-1.481,4.313-.81,1.213-2.022,2.425.134,2.02-.676,2.967.271,2.421,1.213,3.906,2.022,2.559,1.89,3.911.94,1.886,2.289,1.747.266,2.564,2.427,2.564,4.309.541,4.85-.673,2.02-2.156,2.02-.4-.4,6.47,1.078,5.928a11.07,11.07,0,0,1,5.933.134,3.727,3.727,0,0,0,3.906-.944c.944-.944,2.02-.94,3.906-2.02s3.64-2.425,5.394-2.425,4.716-1.081,4.311.264-.673,6.338,1.483,8.9,3.367,3.505,5.39,3.237,1.752.805,3.235.676.539,1.613,1.888,1.613,3.77.271,3.77,1.752,4.045.271,4.989,1.08,2.02,1.481,1.752,3.1,2.023,2.832.676,3.505.4,2.018.539,3.772,2.02,2.427,4.984,2.291,3.774.136,3.774,2.3,2.02,2.423,2.694,4.448-.808,4.306-.537,5.926a3.326,3.326,0,0,1-1.388,3.1c1.039,1.323,1.124,1.923.193,2.436-1.23.68,1.507,2.6.823,5.606s-.818,3.557,2.33,3.7,2.871,1.094,3.965.407,2.734,2.33,3.146,3.839,1.641,5.056,2.189,5.056,2.189-1.643,3.832-.818c1.526.76-.377,5.9-.431,8.154a9.433,9.433,0,0,1,3,.195c.821.414,1.23,5.937.823,6.966s-3.794,1.944-5.532,3.068a34.538,34.538,0,0,0-7.886,8.3,36.246,36.246,0,0,1-4.019,4.794,2.628,2.628,0,0,0,1.358-.082c.92-.414,2.356-.414,3.891,1.429s1.436,3.28,2.048,3.178,1.334-2.457,2.561-.717,4.4,3.073,5.119,3.893,3.073,1.434,3.073,3.581c0,1.54-.725,4.45.479,6.914A10.047,10.047,0,0,1-594.33,650.924Z" transform="translate(231.846 268.677)" fill="#f3ecf5"></path><path id="Trazado_388" data-name="Trazado 388" d="M-635.144,556.284c0-2.148-2.356-2.763-3.073-3.581s-3.889-2.154-5.119-3.893-1.947.611-2.561.717-.511-1.334-2.048-3.179-2.971-1.843-3.891-1.429a2.629,2.629,0,0,1-1.358.082,4.5,4.5,0,0,0-1.41,2.577c0,1.949-1.433,4.1-1.531,7.784s-1.13,3.073-1.232,5.937.922,2.356,1.329,2.769c.229.223-.05,1.137-.338,1.91.431.381.86.981,1.8.875,1.821-.2,3.64.509,5.864,1.518s1.412-.307,3.538,0,4.547.5,6.87-.911c1.591-.97,2.393-2.65,3.636-4.261C-635.869,560.734-635.144,557.824-635.144,556.284Z" transform="translate(270.055 358.508)" fill="#64137d" opacity="0.08"></path><path id="Trazado_389" data-name="Trazado 389" d="M-655,703.349c-2.527-.1-7.479-4.748-8.995-5.963s-.405-2.427-2.224-2.12-.606-1.416.4-1.923c.931-.47-.362-2.191-1.6-2.468-.134,2.711-.7,14.893.03,15.012s6.1-.628,7.68.4c.609.195,1.44.684,2.072-.009,1.013-1.113,4.043-.507,5.662-1.516S-652.472,703.453-655,703.349Zm56-159.6a9.424,9.424,0,0,0-3-.195,3.109,3.109,0,0,0,.018.465c.275,1.916-.955,6.84-2.323,6.7s-2.462,2.053-3.558,1.78-2.6,1.641-3.969.818-3.28.275-4.376-.411-4.244-.134-4.244-.953,1.507-.55,1.507-3.014,4.1-5.2,3.557-6.154-7.529-3.012-8.484-4.242a6.651,6.651,0,0,0-5.062-2.6c-2.739-.275-2.6-1.643-5.064-3.148a24.433,24.433,0,0,1-6.327-6.481c-1.669-.171-4.03-.522-4.5.041-.673.81-1.749,4.582-2.693,2.7s-3.235-1.886-5.257-2.159-1.884-2.152-4.043.139a18.826,18.826,0,0,1-3.337,2.756,18.347,18.347,0,0,1-.931,5.331c-.548.959-5.062,3.012-5.2,4.1s.546,2.6-.275,3.287,1.916,4.1.411,4.922,1.094,2.193.136,3.012-2.735,1.23-2.735,2.187-.139,3.285-1.371,3.835-2.053,2.6-2.053,4.105-1.916.544-1.23,2.462,1.5,4.244,0,4.653-1.1,3.558-1.918,3.558-1.232,3.283,0,4.924a6.891,6.891,0,0,1,1.509,4.517c0,1.5,1.639,2.326,1.091,3.967s-.271,3.148-1.229,3.83-.139,2.737-1.371,3.285.959,4.924,0,5.747-3.419,1.507-3.419,4.517.463,4.712.136,6.022c-.273,1.094,1.368.814,1.1,2.6s-2.466.68-2.6,1.773.548,3.287-.273,3.423-1.232.955-1.232,2.873-1.1,2.187-1.23,3.148.957,2.052.957,3.144.682,4.79-.275,4.928-1.5,4.242-.682,4.79a1.883,1.883,0,0,1,.409,2.462c-.409.818,1.914,1.637.684,2.875s-.255,2.808,1.369,2.323c1.369-.409,2.189,2.048.684,2.048s-3.012,0-1.778.961,2.46,2.326.682,3.01-.273,1.914-.682,3.558,1.23,3.148-.136,3.557.546,2.873-1.371,3.148-.684,2.053-1.914,3.012,1.641,2.6.134,3.555-.409,3.144-1.914,3.144-2.328,2.055-2.464,3.01-1.094,2.878.136,4.242-.273,2.466.821,3.012,4.79-.275,4.242,1.368-.409,5.2.275,5.2,1.1,2.048,2.191,1.914,6.019-.682,8.072-.139a6.132,6.132,0,0,1,2.458,1.418c1.171-.52,3.737,1.154,4.32.574.708-.708-2.527-3.335-2.425-4.242s-.507-2.432-.507-3.438-.5-3.233.912-4.246,1.516-2.02,2.425-1.814,2.728-.812,2.83-3.237,1.212-3.337,3.235-5.056c2.2-1.871,5.861-3.636,5.357-4.448s.808-3.436.808-4.445-3.436-.81-4.549-1.212-5.154-3.237-3.131-6.972,6.266-4.149,7.479-4.248.1-1.819,1.111-2.425,1.213-1.615,1.213-3.133c0-1.719,0-4.447,1.819-4.651s2.325-1.213,1.215-1.514-1.618-1.615.2-1.821,1.212,1.514,2.525,1.514,3.538-2.222,1.818-3.536-2.224.606-3.131.81-1.62-1.213-2.527-1.213-.305-2.529-.708-3.436-1.011-3.133-.2-4.246,4.246,1.717,7.28,1.923,5.255-1.513,5.255-2.631-1.418-3.135.4-4.344.305-1.622-.2-3.237.805-2.631,1.615-1.819,6.771.305,11.725-.7,8.39-2.834,8.691-4.246,3.438-4.751,4.144-5.965.1-2.733-1.92-3.032-1.921-2.631-.808-3.943-.607-2.527-2.527-2.73-4.952-1.513-3.237-3.131c.829-.784,1.234-.624,1.637-.271.288-.773.567-1.687.338-1.91-.407-.413-1.431.1-1.33-2.769s1.124-2.25,1.232-5.937,1.531-5.835,1.531-7.784,3.486-4.192,5.428-7.371a34.538,34.538,0,0,1,7.886-8.3c1.738-1.124,5.121-2.046,5.532-3.068S-598.182,544.167-599,543.754Z" transform="translate(232.478 336.631)" fill="#f3ecf5"></path><path id="Trazado_390" data-name="Trazado 390" d="M-676.223,698.452c-1.1.134-1.507-1.914-2.191-1.914s-.821-3.557-.275-5.2-3.144-.821-4.242-1.369.411-1.643-.821-3.012-.271-3.285-.137-4.242.957-3.01,2.464-3.01.411-2.191,1.914-3.144-1.368-2.6-.134-3.555,0-2.741,1.914-3.012,0-2.739,1.371-3.148-.275-1.916.136-3.557-1.1-2.876.682-3.558.548-2.053-.682-3.01.273-.962,1.778-.962.684-2.457-.684-2.048c-1.624.485-2.6-1.094-1.368-2.324s-1.093-2.057-.684-2.875a1.883,1.883,0,0,0-.409-2.462c-.823-.548-.275-4.653.682-4.79s.275-3.83.275-4.928-1.1-2.187-.957-3.144,1.23-1.236,1.23-3.148.411-2.735,1.232-2.873.136-2.327.273-3.423,2.325,0,2.6-1.773-1.368-1.507-1.1-2.6c.327-1.31-.136-3.01-.136-6.022s2.462-3.692,3.419-4.517-1.23-5.2,0-5.747.411-2.6,1.371-3.285.684-2.187,1.23-3.83S-668.56,593.5-668.56,592a6.891,6.891,0,0,0-1.509-4.517c-1.232-1.641-.821-4.924,0-4.924s.411-3.148,1.918-3.558.682-2.737,0-4.653,1.23-.957,1.23-2.462.821-3.557,2.053-4.105,1.371-2.873,1.371-3.835,1.778-1.368,2.735-2.187-1.643-2.187-.136-3.012-1.232-4.242-.411-4.922.136-2.194.275-3.287,4.651-3.144,5.2-4.1a18.332,18.332,0,0,0,.931-5.331c-1.41.916-2.637,1.407-2.863.881-.4-.942.134-3.776-1.078-4.987s-.405-3.638-1.618-4.175-2.693-2.964-1.617-3.776,0-2.423.944-3.233-.539-.946-1.888-2.564.541-3.635-1.076-4.85-1.617-2.7-2.022-2.02-.537,2.966-1.886,3.64a6.383,6.383,0,0,0-.989.717c.011,1.115-.392,3,.045,4.1.606,1.518.909,8.9.305,11.725a58.6,58.6,0,0,1-1.821,6.87c-.607,1.724,1.416,1.825.606,2.631s-.5,2.832-.5,6.067-1.923,8.689-2.022,10.408-1.416,2.83-1.213,4.751-.909,3.033-2.022,3.941,1.819,3.841,1.719,5.461-2.224,2.323-1.719,4.954c.632,3.278,0,8.888,0,10.006s-1.314,1.009-1.009,3.129-1.314,2.631-1.618,5.662-2.628,7.377-3.538,9.7-.909,3.638-2.122,3.638-1.516,1.317-.609,3.339-.606,3.737.609,5.76.808,2.728.2,4.651-1.416,2.02-1.416,3.837-1.414,3.339-.606,5.359.606,2.733-.4,2.733-1.516,1.615-1.918,4.95-.3,3.235,2.122,3.031.507-8.187,2.022-8.187.2-1.314,1.717-1.717.2,1.412,1.215,1.717,1.717,1.113.3,2.02.3,2.73-.4,3.843-1.719,2.323-1.113,3.64-.708,1.213-.808,2.93.91,1.821.2,2.224.909,1.717-.1,1.921-.4,1.516.2,2.728-1.314.5-2.325,1.317,1.011,1.914.4,3.031-2.224-.606-2.932-1.215,1.113-1.817,2.022-3.031-.909-3.941-2.425-3.339,1.516,2.323,1.516,3.64-2.527-.3-2.427,1.111-1.717.912-2.626,1.923,1.213,1.921.2,2.226-2.728,1.717-2.83,2.728,1.113,1.213,1.113.2,1.615-1.312,2.122,0,1.213,0,2.627.305,1.215,2.425.4,2.326-1.617,1.314-1.414,2.828,3.031,0,4.244.407.81,2.525.1,1.817-2.326-1.923-3.031-.7-1.821.606-2.73.2-4.144,1.724-3.031,2.529,1.011,2.122,1.719,2.025a3.2,3.2,0,0,0,2.222-1.418c.4-.812,1.821-1.615,1.921.2s-1.921.911-2.323,1.923a6.7,6.7,0,0,1-2.427,2.73,1.091,1.091,0,0,0,1.011,1.923c1.011-.511-.3,1.208,1.113,1.412,1.3.186,1.717-.81,1.414-1.819s.708-3.233,1.92-2.122-.606,2.224-.606,3.233-.708,2.328-.708,3.436-1.314.5-1.213,1.721-2.83.4-1.516,1.213-.808,1.918-.1,2.728,1.314-1.113,2.425-.708.912.708,2.326.1,2.224,1.113.909,1.516-2.728,1.921-2.122,2.124,2.325-1.009,2.728.3,1.414.912,1.518-.507,2.527-.2,2.93,1.011-2.527,1.921-4.043,1.619-2.326,1.414-1.314,2.728,2.224,0,3.335-1.113,6.571-.81,6.974.4-2.527.2-2.828.907-2.527,1.314-2.83.509-2.427.3-2.527,1.615-1.719,1.312.1,1.821,1.314-1.923,4.144-1.719,4.346-2.63,5.153-1.009-2.323,2.932-3.434,1.916-2.427.708-2.326,2.226-3.235-.405-4.852-.609-.909,1.518.5,3.034,2.224-.2,3.943.909,1.719,2.328,2.93,1.215,0-1.009-.805-1.518-.1-2.222,1.819-1.317a2.614,2.614,0,0,0,3.536-3.233c-.606-2.425,1.719-3.538,4.045-4.348s1.111,1.52-.606,2.224-2.022,1.217-.708,2.631,3.031-.911,4.144.2-2.022.909-2.527,2.025,1.918,2.423.2,3.233-.909-3.339-1.92-3.742-1.921.509-.909,2.834-1.213.3-2.224-.812-2.425.507-1.215,1.719-2.321-.1-2.321,1.819,1.514.3,3.332.71,1.013,3.034,2.326,4.041.2-3.235,1.617-3.536.1,3.233,3.235,4.244.2-.606,1.618-1.62,3.233,3.033,4.75,3.436.5-1.816-.609-3.033,1.113-.5,2.629,0,2.728.708,3.033-.4c.112-.416.394-.407.756-.29-1.581-1.033-6.944-.279-7.68-.4s-.167-12.236-.03-15.012a1.314,1.314,0,0,0-.323-.058c-1.314,0-4.246.3-3.739-1.719a.92.92,0,0,1,.53-.676,6.131,6.131,0,0,0-2.458-1.418C-670.2,697.77-675.129,698.313-676.223,698.452Z" transform="translate(227.228 325.321)" fill="#f3ecf5"></path><path id="Trazado_391" data-name="Trazado 391" d="M-628.1,542.061c-1.643-.825-3.282.818-3.832.818s-1.778-3.555-2.189-5.056-2.05-4.521-3.146-3.839-.821-.271-3.965-.407-3.012-.682-2.33-3.7-2.053-4.926-.823-5.606c.931-.513.847-1.113-.193-2.436a1.47,1.47,0,0,1-.769.271c-1.079,0-2.427-1.89-4.313-1.89s-3.908-.134-5.255.539-3.911-.134-5.528.946-3.635,3.367-3.5,4.311-.541,6.738-1.349,7.007a5.342,5.342,0,0,1-1.563-.041,24.429,24.429,0,0,0,6.327,6.481c2.464,1.5,2.326,2.873,5.064,3.148a6.651,6.651,0,0,1,5.062,2.6c.955,1.23,7.936,3.28,8.484,4.242s-3.557,3.692-3.557,6.154-1.507,2.191-1.507,3.014,3.146.271,4.244.953,3.008-.407,4.376.411,2.875-1.093,3.969-.818,2.189-1.914,3.557-1.78,2.6-4.787,2.323-6.7S-626.457,542.879-628.1,542.061Z" transform="translate(259.007 329.974)" fill="#64137d" opacity="0.08"></path><path id="Trazado_392" data-name="Trazado 392" d="M-701.551,464.793a3.9,3.9,0,0,1,.693-2.9,57.983,57.983,0,0,1-4.506-5.623,3.219,3.219,0,0,1-2.256-.251c-1-.749-3.508-.247-4.51-.749a5.753,5.753,0,0,0-2.514-.149,1.562,1.562,0,0,1-.344,1.793c-.911.606-1.011,3.031,1.213,3.939s1.516-.5,2.626-.5,1.011,1.717,2.022,1.717,3.337,1.213,3.233,2.828.81,2.326,2.631,2.326a8.285,8.285,0,0,1,1.1.084C-701.852,466.228-701.393,465.351-701.551,464.793Z" transform="translate(202.209 254.07)" fill="#64137d" opacity="0.08"></path><path id="Trazado_393" data-name="Trazado 393" d="M-685.633,461.337c-1.615-2.429-4.547-2.224-6.366-3.034s-4.144.305-6.47,2.43-5.255.907-7.277-.2a11.761,11.761,0,0,1-2.343-2.094,3.9,3.9,0,0,0-.693,2.9c.158.559-.3,1.436-.611,2.516,2,.247,4.6,1.124,5.87,2.646,1.516,1.821,2.425.6,3.337,2.224s3.031.1,3.536-.912-1.111-1.414-1.312-2.522,2.02-.71,2.425-2.23,3.638-2.222,5.054-1.615,2.629,1.615,1.315,3.135c-.979,1.128,1.015,3.157,2.683,4.742a40.647,40.647,0,0,1,3.072-2.979,2.439,2.439,0,0,0,.63-1.429C-683.584,464.529-684.509,463.024-685.633,461.337Z" transform="translate(209.44 257.531)" fill="#64137d" opacity="0.08"></path><path id="Trazado_394" data-name="Trazado 394" d="M-625.99,536.887c-.673-2.025-2.693-2.3-2.693-4.448s-.81-2.425-3.774-2.3-4.852-.537-4.985-2.291-1.89-3.1-.539-3.772-.946-1.886-.676-3.506-.808-2.291-1.752-3.1-4.989.405-4.989-1.08-2.425-1.752-3.77-1.752-.4-1.75-1.888-1.613-1.215-.946-3.235-.675-3.235-.675-5.39-3.237-1.888-7.546-1.483-8.9-2.559-.264-4.311-.264-3.506,1.345-5.394,2.425-2.962,1.076-3.906,2.02a3.726,3.726,0,0,1-3.906.944,7.555,7.555,0,0,0-1.526-.347c.8,1.984,2.715,5.238,3.142,6.411.539,1.483-.674,1.886-1.212,2.425s.268,5.389.4,6.47-1.888,3.1-1.081,3.772-1.076,2.7-1.076,3.91,1.752,1.213,1.752,2.152a6.488,6.488,0,0,1-2.425,3.638c-.5.284-.507,1.05-.385,1.875.282-.093.481,1.133,1.866,2.17,1.618,1.215-.268,3.235,1.076,4.85s2.83,1.754,1.888,2.564.134,2.423-.944,3.233.405,3.237,1.617,3.776.4,2.962,1.617,4.175.674,4.045,1.078,4.987,4.043-1.347,6.2-3.638,2.022-.4,4.043-.139,4.313.273,5.257,2.159,2.02-1.886,2.694-2.7,5.255.271,6.065,0,1.483-6.06,1.349-7.007,1.884-3.235,3.5-4.311,4.179-.269,5.528-.946,3.367-.539,5.255-.539,3.235,1.89,4.313,1.89,2.427-1.754,2.156-3.371S-625.314,538.9-625.99,536.887Z" transform="translate(242.347 305.901)" fill="#f3ecf5"></path><path id="Trazado_395" data-name="Trazado 395" d="M-652.325,559.8c.056-.093.108-.139.156-.15-.121-.825-.11-1.591.385-1.875a6.487,6.487,0,0,0,2.425-3.638c0-.94-1.752-.94-1.752-2.152s1.884-3.237,1.076-3.911,1.215-2.7,1.08-3.772-.944-5.933-.4-6.47,1.752-.942,1.213-2.425c-.427-1.174-2.345-4.428-3.142-6.411a10.5,10.5,0,0,0-4.406.212c-1.481.541-1.078-4.181-1.078-5.928s-1.481-.81-2.02.4-2.7.673-4.85.673-1.078-2.7-2.427-2.564-2.427-.4-2.289-1.747-.946-2.427-1.89-3.91-2.022-2.962-1.213-3.906-.537-1.752.676-2.966,2.427-.81,2.022-2.425,1.345-2.562,1.481-4.313,2.157-1.215,4.042-2.691,3.906-.678,5.524-2.025c1.52-1.267,2.562-.171,3.687-.255-.678-.944-2.334-1.412-2.711-2.161-.474-.957,1.745-2.7,2.38-3.813s-2.538-2.375-3.332-2.7-2.219.632-3.014.158a2.731,2.731,0,0,0-2.7.32c-.634.472-5.394.793-5.236-.637s-1.905-1.9-1.745-2.858-1.111-2.7-2.856-2.852-1.427-3.014-2.694-3.807c-.721-.453-2.509-.186-3.924.123,1.522,1.719,2.064,2.436,1.059,3.246-1.34,1.072,0,1.262-2.529,4.632s-6.849,4.216-8.958,4.852-2.949,4.525-4.11,7.269-2.107,1.788-3.265.21-2.107.314-3.477-.948-.736-1.262,0-2.319c.4-.567-.043-1.472-.883-2.343-1.5.312-3.025,2.393-3.772,3.98-.81,1.719,1.414,5.054,1.717,6.264s-1.212.1-1.414,1.215,3.337,2.728,4.952,3.938,3.031,4.655,4.549,6.271,1.618,3.029,3.233,6.974,4.853,10.612,7.076,13.442,3.235,5.054,2.731,5.864.1,3.031,1.717,4.144,2.932,2.93,7.176,5.056,12.028,6.16,13.141,8.083,4.751,3.737,5.456,4.144c.195.11.253.429.258.851a6.39,6.39,0,0,1,.989-.717C-652.862,562.761-652.728,560.471-652.325,559.8Z" transform="translate(213.429 281.911)" fill="#f3ecf5"></path><path id="Trazado_396" data-name="Trazado 396" d="M-683.284,456.079c-1.323,1.786-3.962,3.33-4.01,5.153s0,2.507-.682,3.376-1.689,2.187-.687,2.094,2.144-.089,2.144,1,2.187,1.319,2.005,3.005-.957,6.112,2.962,6.019,6.154-1.414,7.8.684a6.742,6.742,0,0,0,6.379,2.78c2.553-.318,6.7-.818,5.333,1.414s-2.276,7.018-1.094,8.341,2.737,2.412,1.778,3.506-1.414,2.464-.184,3.419a2.083,2.083,0,0,1,.823,2.325c-.011.061-.26.2-.641.379,1.815,1.8,2.456,3.781,3.482,4.6,1.368,1.093,1.78,1.639,2.737,1.093s1.641-.955,2.462-.411,1.916-.544,3.148-1.643,2.6-.13,3.01-1.5a3.054,3.054,0,0,1,2.6-2.468c1.5-.268,1.5-1.916.546-1.916s-2.325,1.232-2.325-.546-1.232-1.368-1.232-2.873-.137-2.466-1.778-3.421,2.189-1.368,3.01-.546,3.7.139,3.967,1.368,1.778,1.643,1.778.132,1.78-2.051,3.148-1.776,4.383-1.78,5.612-2.191c.643-.212.877-.983,1.228-1.635a31.378,31.378,0,0,0-2.988-3.674c-.981-.819.658-1.306.492-2.453s0-1.966,2.131-2.128,1.8-1.8.654-2.458.489-2.455,1.637-3.112a5.719,5.719,0,0,0,1.674-2.183,18.211,18.211,0,0,0-6.61-.676c-1.717.1,1.111-1.914,1.213-3.735s-4.852-2.126-6.773-2.529-1.416-2.425.606-2.523-1.113-1.518-3.839-1.117a31.346,31.346,0,0,0-8.793,3.135c-2.226,1.213-6.065-3.536-8.594-2.529s-6.063,1.011-5.963-1.007-1.009-3.744-3.536-3.538-1.92-2.529-3.841-2.529,0,2.323-1.314,2.93-5.864,1.719-6.167,3.538,2.427,4.852,1.518,6.673-3.943.3-4.85-1.615,2.625-4.852,2.021-5.965a4.451,4.451,0,0,1-.6-3.157A2.664,2.664,0,0,0-683.284,456.079Z" transform="translate(233.102 251.418)" fill="#f3ecf5"></path><path id="Trazado_397" data-name="Trazado 397" d="M-652.292,469.354c.654,1.31-.816,1.966-2.129,2.128s-.983,3.111-1.8,3.93,3.114,2.951,3.765,4.748a46.02,46.02,0,0,0,2.7,5.119,3.6,3.6,0,0,0,2.286.145c1.23-.686.137-3.014,1.916-2.878s4.378-.961,5.06.143a5.319,5.319,0,0,0,.446.582c.574-.862,1.186-1.8,1.349-2.128a11.627,11.627,0,0,0-.494-6.058c-.818-1.964-.158-4.586.825-5.4a7.7,7.7,0,0,0,.89-2.339,10.077,10.077,0,0,0-4.56-1.037c-2.425.307-4.952,1.418-5.861.1s-2.224-1.111-3.436-.1a.555.555,0,0,1-.453.13C-652.2,467.617-652.623,468.694-652.292,469.354Z" transform="translate(271.267 266.207)" fill="#f3ecf5"></path><path id="Trazado_398" data-name="Trazado 398" d="M-658.082,462.849c-1.148.656-2.784,2.458-1.637,3.112s1.472,2.3-.654,2.457-2.293.983-2.131,2.129-1.472,1.635-.491,2.453a31.4,31.4,0,0,1,2.988,3.675,1.476,1.476,0,0,1,1.645-.964c1.912.273.407,3.151,1.912,3.83a2.392,2.392,0,0,1,.414,3.833c-1.1.821-1.507,5.339.955,8.072s4.38,2.325,4.928,1.643,2.462,0,3.012-1.094,1.23.136,2.323-1.093c.632-.712,1.948-.331,3.187-.009a45.986,45.986,0,0,1-2.7-5.119c-.652-1.8-4.584-3.928-3.765-4.748s.491-3.768,1.8-3.93,2.783-.818,2.128-2.128c-.331-.66.089-1.737.5-2.919-1.258-.126-3.122-3.768-4.2-3.768a2.307,2.307,0,0,1-2.326-2.728c.3-1.717-2.83-1.923-4.549-3.839a4.108,4.108,0,0,0-1.676-1.048A5.718,5.718,0,0,1-658.082,462.849Z" transform="translate(263.138 260.592)" fill="#f3ecf5"></path><path id="Trazado_399" data-name="Trazado 399" d="M-647.958,474.086a11.632,11.632,0,0,1,.494,6.059c-.163.327-.775,1.267-1.349,2.128.745.842,1.945,1.453,4.071.786,2.6-.825,3.83.816,4.79-2.057.749-2.246,3.408-5.307,5.387-7.265a.429.429,0,0,0-.065-.041c-1.921-.81-4.852-5.459-7.782-6.063a24.983,24.983,0,0,1-3.83-1.291,7.692,7.692,0,0,1-.89,2.338C-648.116,469.5-648.776,472.122-647.958,474.086Z" transform="translate(280.03 267.206)" fill="#f3ecf5"></path><path id="Trazado_400" data-name="Trazado 400" d="M-674.417,437.858c-3.031,0-12.938-6.875-22.034-8.9s-17.03,4.519-16.17,5.66c1.21,1.617,5.658-2.022,7.881-3.638s4.246.806,4.448,1.819,3.031,1.615,7.682,1.819,5.255,4.043,9.7,5.052,0,2.836,2.224,3.642,13.949.6,14.756-.4S-671.383,437.858-674.417,437.858Z" transform="translate(205.603 223.198)" fill="#64137d" opacity="0.08"></path><path id="Trazado_401" data-name="Trazado 401" d="M-699.738,439.721c.808,1.412,8.49,3.436,9.3,1.615S-700.74,437.96-699.738,439.721Z" transform="translate(220.615 235.284)" fill="#64137d" opacity="0.08"></path><path id="Trazado_402" data-name="Trazado 402" d="M-675.661,440.476c1.819,2.834,7.024,1.143,7.479,0C-667.372,438.453-677.48,437.648-675.661,440.476Z" transform="translate(248.489 234.93)" fill="#64137d" opacity="0.08"></path><path id="Trazado_403" data-name="Trazado 403" d="M-680.806,483.219c-1.689-1.9-2.845-3.059-3.265-2.533s-2.215.74-3.477,0-1.9-2.107-2.847-2.107c-.881,0-3.928-1.728-5.625-3.153a3.571,3.571,0,0,0,0,.626c.1.907-1.414,1.514-3.133,1.615s-1.516,2.025-1.516,3.332-1.416,1.314-2.02,2.733.2,1.719-1.212,2.427-1.819,1.923-1.011,3.133-.1,2.321-.3,3.029,1.213,1.013,2.629,2.325,1.615-.507,2.222.5-.4,2.834-2.02,2.834a1.735,1.735,0,0,0-.372.061c.84.87,1.282,1.776.883,2.343-.736,1.057-1.369,1.057,0,2.319s2.319-.634,3.477.948,2.107,2.529,3.265-.21,2.005-6.639,4.11-7.269,6.429-1.475,8.958-4.852,1.189-3.56,2.529-4.632C-678.487,485.852-679.119,485.113-680.806,483.219Z" transform="translate(214.173 277.79)" fill="#f3ecf5"></path><path id="Trazado_404" data-name="Trazado 404" d="M-726.917,478.872c-2.02,3.031,1.994,5.991,2.83,4.647C-723.077,481.9-724.9,475.841-726.917,478.872Z" transform="translate(188.363 280.832)" fill="#64137d" opacity="0.08"></path><path id="Trazado_405" data-name="Trazado 405" d="M-752.126,512.184c-1.314-1.416-4.751-1.113-5.257-2.429s-3.637-6.061-5.357-5.961a8.452,8.452,0,0,1-5.963-1.312c-2.02-1.518-3.335-1.617-4.748-.708s1.513,1.113,1.414,2.122.907,1.617,2.122,1.416,1.921,2.326,3.133,2.427,1.617,2.016,3.031,2.016,1.717,1.62,2.427,2.529,2.323.1,2.323,1.011c0,.816,1.617,1.552,2.024,2.575,2.767.329,5.138.589,7.2.017A4.435,4.435,0,0,1-749.3,514C-748.59,512.691-750.814,513.6-752.126,512.184Zm-3.438-160.608c3.64.81,4.034,7.277,6.47,7.277,1.617,0,.4-2.022,3.031-2.022s2.023-1.414,4.448-1.212,4.447-.606,4.447-3.436,1.821-3.841,4.246-4.447.2-3.638,3.638-4.445,12.94-4.852,14.555-6.065-2.02-2.83-5.66-5.054-6.468-2.83-9.3-1.011-.606-2.022-2.83-1.009-8.289-1.62-9.1-2.631-11.725,2.224-14.352,2.224.2,2.83,2.02,4.246-4.445,5.861-3.233,6.873-1.212,3.638-4.045,6.873S-759.2,350.768-755.565,351.576Zm101.073,16.575c1.215-1.414,6.268,2.83,6.472-.2s-5.662-4.45-8.087-6.065-3.436-.81-7.277-3.64,1.011-4.246-1.819-6.47-3.841-8.289-1.821-10.307,4.246-5.056.609-6.472-9.5,1.215-8.895,2.022,5.66,3.64,5.66,4.852-4.649-3.436-6.268-2.427-3.434-2.02-4.85,0,1.821,9.1,3.031,11.118-1.21,2.022-2.83,2.425-1.817-5.66-3.434-7.882-8.085-4.852-8.492-3.235,4.043,1.615,3.436,3.841-3.029-1.416-5.255.4-1.819.606-1.414-1.215-3.235-3.839-7.277-3.434-1.821,3.233-3.033,4.244-7.277-.606-3.436-1.416,2.224-3.031.81-5.255-5.255.4-11.524,2.626-9.1,4.649-8.289,4.852,1.011,1.213-1.414,3.235,0,3.841,2.224,3.841.266,1.78,1.819,2.221c1.416.407,8.694-2.83,10.714-1.414s-11.926,2.224-11.926,4.651,7.682,3.839,13.34,2.83,15.566.808,15.566,2.224-6.671,1.009-11.725.808-13.745,1.414-13.34,3.034c.451,1.808,1.011,1.819,6.266,4.242s10.714-1.212,10.512,2.224,2.83,4.246,9.9,4.447,10.309-3.233,13.747-3.029,5.051-.407,6.671-2.83,3.033-1.013,3.436.2,4.85,1.009,5.861,2.02c2.579,2.579,11.119,1.821,14.354.2s-1.416-6.065-3.034-4.043-3.031.808-3.436-.2S-655.7,369.567-654.492,368.151Zm-76.815-49.727c3.64.4,7.278-2.83,7.076-4.649S-733.115,318.225-731.307,318.424Zm-16.776-5.66c1.416.608,0,3.436,1.615,2.629s2.022-1.011,3.237-.606c2.183.73,2.624-1.213,3.638-2.224s.606,3.638,3.233,3.638c2.224,0,1.821-4.85,3.841-3.436s2.629-.6,3.034-2.02.4-3.841,2.629-4.246.4,2.224,1.414,4.043c1.47,2.65,4.043.2,4.244-1.011s3.841-.4,3.638-1.819,1.011-1.819,0-3.436,1.62-1.213,2.832-2.425-1.615-.2-3.64-2.02-2.83.6-2.83,1.819-3.841.2-6.063-.608-5.056,2.629-8.291,4.246-3.434,4.447-6.468,4.244S-749.5,312.16-748.083,312.764Zm31.533-1.011c-2.828.2-2.626,3.034.608,3.034s4.246,1.011-.4.808-6.673,3.841-3.438,3.033,7.074-.81,4.649,0-9.034,1.364-8.085,2.626c.606.81,3.233.606,5.861,1.617s4.246,1.617,6.268-.606,4.649-4.448,3.638-1.414,3.235.808,8.691.6-1.011,3.237-6.669,3.64-4.649,3.235-.2,4.246,13.949-2.832,16.172-5.054,4.244,1.213,6.468-.4,6.47.2,10.311-.606,4.445-8.087,1.617-9.3-2.83,1.416-5.054,1.821-3.439-2.425-5.258-4.246-.606-5.255-3.233-4.852c-2.607.4-8.289,4.651-4.852,5.054s2.222,2.224.4,3.034,4.246,2.221,3.436,3.436-10.105.2-10.51-1.819-7.68-5.66-10.714-4.852-1.819-2.425-4.85-2.629S-713.721,311.551-716.551,311.753Zm10.512-14.555c1.011-2.425-6.7-2.022-6.063-1.213C-710.687,297.806-707.05,299.625-706.038,297.2Zm16.779-1.011c2.629-.4,1.416-2.425-2.828-1.817s-11.523.6-11.523,3.638c0,2.425,1.414,3.64,6.063,4.043s8.694-4.043,6.47-4.043S-691.888,296.591-689.26,296.186Zm-9.9-3.839c2.02.81,4.042-1.819,5.456-.606s7.682,2.224,7.682-1.011-7.884-3.64-9.906-2.425-11.32,1.617-8.691,3.638C-703.011,293.185-701.186,291.54-699.164,292.347Zm33.756-6.266c2.427-1.62,6.875,1.009,6.067,2.83s-7.806-.366-7.28,1.213c.2.606,1.011,3.034,5.861,1.617a12.648,12.648,0,0,1,12.13,2.224c3.235,2.626,6.266,3.638,8.49,1.011s-2.83-3.034-1.819-5.054-3.235-3.237-5.459-3.237-3.031-4.04-4.85-3.233-3.031,2.224-3.031-.4-10.512-2.83-13.141-1.819S-667.832,287.7-665.407,286.081Zm1.416,16.98c1.617-2.022-6.47-8.49-6.872-5.459S-665.71,305.209-663.991,303.061Zm26.278-26.481c1.416-2.427-8.525-4.331-6.062-2.224C-642.362,275.571-639.127,279.007-637.714,276.58Zm-22.841,45.886c1.414-1.615-3.031-5.054-4.244-2.224S-661.995,324.112-660.555,322.466Zm22.841-14.148c-.2,2.02-4.85-.4-8.488-1.821s-1.416,2.83,1.414,5.255-1.414,1.213-5.255-1.414-3.438,1.821-1.617,3.235-.4,3.434-2.832.2-3.636-6.671-7.479-6.873-2.09,3.733-.6,5.66c2.02,2.627,4.042,3.235,7.277,5.054s8.49-.81,10.915-.2-2.629,3.64-1.011,5.662,6.065.6,9.5.4,1.819-2.224,3.841-3.638-2.022-1.212-.4-4.651S-637.51,306.3-637.714,308.318Zm8.492-11.928a21.311,21.311,0,0,0,8.085-1.414c2.629-1.011-1.414-1.011.4-3.436s-4.448-2.629-4.852-1.821-8.287-4.852-9.5-3.034S-632.255,296.39-629.221,296.39Zm16.374,1.011c-.4-1.215-15.731.634-13.342,2.427C-622.147,302.86-612.443,298.614-612.848,297.4Zm-2.224,29.513c3.638-.2,1.819-4.649-2.224-7.68s-13.126,3.2-11.521,4.445C-627,325.095-618.711,327.117-615.071,326.914Zm-25.875,28.3c4.447,3.031,3.031-2.427,8.087-2.226s5.255-8.085,6.063-11.116-4.042-2.83-2.83-.606-.2,4.447-.606,1.819-4.244-.2-5.66-2.224,4.447-2.224,5.864-4.852-4.651-2.224-3.235-4.244-8.895.2-5.863,1.414.2,2.83-2.627.81-10.67,1.36-7.884,3.64c2.222,1.817,8.893-1.215,5.054,4.04s-5.459-1.414-9.1-.808-2.02,5.054,3.436,6.671S-645.394,352.182-640.946,355.216ZM-608,322.871c1.414,4.043,3.031,1.213,5.255,2.83s5.66,2.629,7.479,1.011,2.629-2.83,3.235-1.416c.985,2.3,5.459,2.629,15.161,2.832s7.278-4.045,10.108-2.427,9.3,1.617,12.13,1.011,4.244-5.054,4.04-7.277-21.83-4.043-25.671-1.819-9.906-1.011-12.937.606-2.02-2.022-7.479-2.226.4-3.031,1.414-4.244-8.286-4.445-12.128-3.638-6.065-1.213-9.7-2.83-13.516-1.232-11.521,1.617c1.414,2.02,13.139,6.266,14.353,4.246s4.244,2.425,6.063,4.649S-609.411,318.829-608,322.871Zm10.307-23.853c-3.638-1.821-8.2,2.027-4.445,3.436C-598.9,303.667-594.049,300.837-597.688,299.019Zm-29.108-22.64c2.982,1.492,1.213,3.436,4.448,4.85s12.533-1.819,13.343.4-9.5,2.425-8.087,3.841,7.278,3.638,6.47,4.852,9.7,4.649,10.712,3.031,3.843-1.215,6.47-.2,2.83-6.268,4.651-5.056,1.615-2.626,4.649-3.841,7.4-1.226,7.682-2.626c.2-1.011-.81-2.427-4.45-2.022s-6.063-1.009-4.445-3.031-4.045-2.629-2.022-4.246-3.839-3.233-3.235-.808-3.638.2-4.246-2.022-8.893-3.031-14.349-7.884-11.119-1.615-7.886-1.011,3.034,2.226.4,2.024-7.277.2-3.031,1.817-.405,2.224-3.841,2.224-3.64,4.447.808,5.054,1.215,3.235-2.425,2.224S-630.029,274.761-626.8,276.379Zm24.459-20.014c2.83-1.819,5.056-.606,2.631.606s-1.62,2.022,1.819,1.819-1.416,1.011-1.416,3.034,4.042.81,4.246,2.83,8.893,2.83,11.521.4,1.618.6,1.416,2.222,12.331,3.034,12.935,1.011,2.427-1.212,4.853-.606,14.353-2.224,14.555-4.649,3.841,1.212,0,3.839-11.523,2.226-14.958,3.237,2.222,3.434,5.658,6.063-4.446,1.213-7.68-2.224-10.512-3.436-14.354-3.235-2.626,7.28.2,7.28,5.662,1.011,8.492,5.456,8.895,3.436,8.895,5.459-7.884-1.617-12.333-2.425-11.521,2.02-11.723,5.255,6.468,2.83,10.915.2,1.213.81-1.011,2.83,5.257,3.64,5.257,6.065-5.459,1.617-6.065-.606-2.629-4.448-7.884-4.045-3.841,4.045-.607,4.45,3.436,2.828-.2,2.828-11.846,2.284-9.3,4.651c2.83,2.629,13.139,0,14.96,1.617s6.872,2.224,8.083.4,5.259-1.011,9.3-1.011,5.054.606,6.875,2.224,5.054,1.009,7.278-.606,2.222-1.617,5.054-1.617,3.436-1.819,2.022-4.043-5.056,1.615-5.461,0c-.5-2-3.839-2.629-9.5-1.821s-3.233-3.638.2-2.627,8.087.606,11.926-.4.81-2.83.81-4.448,4.85-.606,8.49-.606,8.893-5.861,9.1-9.3-8.085-2.629-12.13-2.629,2.629-3.034,10.311-2.629,4.244-3.031,5.658-4.244,5.053,1.414,8.9.606,1.212-4.045,3.841-4.045c1.864,0,6.065-2.828,14.353-7.479s14.757-3.841,15.161-6.468-11.523,0-13.546-.81,8.289-3.031,10.716-2.425,5.66,0,13.948-4.043,4.649-5.054,1.215-4.448-7.28-.606-7.076-2.83-5.056-.2-5.257-1.414-5.056-.608-10.311,1.414-.4-2.022,1.821-2.83-13.342,0-15.971-1.819-5.66,3.031-8.087.6-8.689-.4-7.882,1.416-1.011,1.819-3.438-.2-7.074.2-11.318-.4-2.427,3.436-7.076,1.416-9.7-1.011-8.286-.4-.4,1.819-2.427,1.213-3.841.2-2.83,2.224-7.481-.606-7.481,1.617-3.031,3.436-5.456,1.416-10.108-2.629-7.884-.81-6.873.81-4.447,2.629-3.031,3.235-3.031,2.222-5.054-2.83-7.076-1.009-2.626,4.043-3.638,2.83-5.459-.808-9.7.808S-605.167,258.184-602.337,256.365ZM-551.4,430.816c1.416-.2,4.246-5.255.606-5.054S-553.595,431.132-551.4,430.816Zm-17.79-4.445c3.235,2.022,8.087-3.436,7.682-5.052S-573.093,423.933-569.185,426.371Zm14.557-11.116c.4-2.022-6.673-2.834-6.269-5.054s-6.671-4.043-8.893-5.257-5.662-1.819-5.662-4.244-4.85-.609-5.054,3.031-2.224,2.828-1.21,6.264-4.45,4.248-3.844,6.067,3.235-.2,5.66-.2-.656,3.384,2.427,3.638c2.425.206,6.671-2.624,7.682-4.242s3.031-2.226,5.861-.206S-555.033,417.275-554.628,415.254Zm66.1-17.792c2.425.2,2.83,3.237,6.671,6.47s4.244,1.011,4.85-1.21,4.85-.407,4.651-2.631,3.438-4.85,5.861-5.859-2.02-3.438-5.255-3.237-3.841-2.022-3.841-3.436-6.065-4.85-8.085-4.244-5.459-2.629-8.087-2.832-6.47-2.222-6.065-5.054,5.257.81,6.266-1.414-5.054-1.009-5.255-2.629,1.416-1.011,2.629-2.022-1.011-3.031-2.427-3.839-1.819,1.615-3.235,1.615-.2-2.222.81-3.638-4.649-3.031-7.074-2.224-3.235-.606-3.235-2.222-4.246,0-5.863,1.21-3.638-1.21-1.615-1.414,4.445-1.819,3.839-3.638-5.861-2.022-6.872.2-5.257-2.427-5.257-4.244-6.468-.2-5.658-3.235-7.479-3.841-9.7-3.841-5.459,1.819-5.056,3.841-2.425,1.21-2.83-1.011-5.862,2.425-7.479,2.425,1.011-5.863.2-7.682-2.02-2.425-3.233-5.456-7.277-1.819-8.895,0-6.873,1.011-9.7,3.841.2,5.66,1.416,6.671-4.246,2.626-2.427,4.244,4.649.808,4.852,3.436-6.671-.808-7.682-3.031.4-4.246-1.011-5.864-.2-3.638,2.425-6.468,4.651-2.427,4.651-4.045-11.32-1.615-17.991,4.448-4.649,14.152-4.244,15.77,6.266.808,9.7,1.819,1.618,2.425-1.009,2.022-7.076-1.215-6.875.606,5.662,5.255,8.895,4.447,3.235-.81,4.651,1.009,5.255,1.212,9.094,1.416,8.291,1.615,10.11,1.819a5.626,5.626,0,0,0,4.649-2.022c.607-1.009,8.085,1.62,10.309,1.414s.81-2.221-.606-2.828-.81-3.235,1.011-2.224,4.85,1.615,5.459,3.436c.513,1.548,2.221.808,2.425,2.224s6.671,3.031,6.872,4.651-6.266,2.423-4.448,3.841,4.649-1.823,7.076-2.022,2.425,5.253,4.244,4.45c2.479-1.1,4.45,1.007,6.873,4.443s-.2,6.671,0,7.884,4.852.807,7.481-.606,5.054,1.617,7.074,3.436-7.479,4.852-6.669,3.235-5.66-6.468-11.524-4.246-1.819,5.662-1.212,7.685-5.255,4.04-10.714,2.224-3.841,1.21-6.065,1.21-4.649,3.436-2.627,5.662,6.468.2,10.108.4,4.042,1.213,4.445-.808,4.246-1.011,6.872-.4,2.022,4.244,5.255,4.649.608,3.64,2.631,5.864,8.49,1.009,10.915,3.436,12.71,7.258,14.15,5.456c1.615-2.02-8.895-11.322-11.926-12.13s3.031-1.817,6.872,1.215,9.5,4.447,12.331.808-2.425-2.626-2.425-5.255-1.821-6.268-4.651-6.268-10.105-5.66-7.479-6.868-.81-2.834,1.215-5.056S-490.954,397.261-488.527,397.462Zm-42.654-9.7c2.425-.4,1.977-4.144.607-6.065-1.011-1.416-3.64-1.62-5.862-1.416s-6.065,3.638-4.042,7.076S-533.605,388.165-531.18,387.762Zm-25.269-52.56c-1.212,2.626,2.629,2.626,2.83,5.66s4.045,4.043,6.875,2.224,10.915.539,10.915-1.819c0-2.224-8.49-6.269-11.524-5.66S-555.236,332.574-556.449,335.2Zm75.8,172.028c.4,1.62,12.132,6.47,12.535,4.248S-480.992,505.845-480.645,507.23Zm51.28,12.063c-.805,1.481-2.02-1.078-.268-2.427s-.273-1.884-1.888-1.076-1.215-3.64.271-4.447-3.64-2.427-3.64-.946-3.64.539-4.042-.81-2.962-1.747-2.02-2.691-3.1-1.481-3.505.132-1.617-1.074.4-3.233,1.347-4.04,3.235-5.123-.134-2.287-2.157-1.479-7.412,8.221-7.412,10.242-.136,4.45-2.02,4.309-4.047,1.62-2.564,2.7-3.913,4.14-1.347,5.528c1.752.942,4.582-.4,7.009-.136s4.447.4,6.468-1.076,2.022,1.345,4.179,1.076-1.215,1.752-1.078,3.233,2.291-.808,3.908-1.615,3.638,0,2.83,1.349,4.447,2.694,5.66.537S-428.556,517.812-429.365,519.293Zm-365.38-37.145c-3.64,1.936,5.106,11.164,6.933,10,1.247-.8-2.161-4.662-2.161-7.046S-791.11,480.217-794.745,482.148Zm333.1,46.107c-1.414.2-.3-2.02-.1-3.131s-3.031.5-3.131,1.817-2.323,1.821-2.323,2.629c0,2.358-.305,1.111-1.923,1.918s-7.884,0-8.085-1.416-4.751-2.118-4.952-4.043-2.427-2.525-.608-4.647-.3-3.135-2.02-1.518-2.728-.907-.405-1.817,6.671-1.819,4.448-5.863-16.172,1.213-19.708,3.233-7.986,8.492-9.906,8.492,3.334-3.436,4.144-4.751-.2-2.631.909-2.122,4.244-4.346,6.368-5.965,4.445-.1,4.75-1.414,1.314-2.224,3.335-4.043,26.178-1.518,28.5-1.416,6.875-3.031,8.185-5.054,3.033-2.022,6.268-1.819,4.751-2.728,6.366-3.839,1.011-1.617-.4-1.921-2.728-1.215-1.314-1.314,2.122-.909,2.728-2.728-.5-1.011-2.425-3.54-2.93.81-4.85.606,1.312-2.626-.305-3.638-4.649-.3-7.074,1.717-2.224-.1-4.348,1.921-2.122-1.009-1.111-1.817,1.722.1,2.629-1.111,1.819,0,4.144-1.518,4.346-.81,5.054-1.921-1.115-2.629-3.337-2.124-3.737-3.031-5.153-2.02-1.111-1.516-2.73-.507-2.525-.3-3.233-2.224-5.056-5.054-7.682-5.861-.907-2.222.5-1.215,3.034-1.007,3.64-2.02-1.009-1.918-1.821-2.02-.808-1.42-.606-2.429-2.828-2.328-2.932-3.337-1.819-1.719-1.717-2.629-1.717-2.221-1.717-3.434-3.034-3.64-3.135-5.054-1.717-2.425-2.323-4.144-1.414-.909-2.022,1.516-2.728,2.328-2.122,3.133c1.245,1.661.3,1.717-.606,2.728s.606,2.529-.91,2.529-.808,3.133-1.617,1.717-2.728-1.011-2.728.4-3.235,2.728-4.549,2.629-1.314-2.832-2.425-2.025-.909-2.323-2.629-2.221-2.932-.1-2.425-1.617-2.932-2.222-1.819-3.133-.3-2.527-.507-5.153,1.518-2.83,1.518-3.841-1.215-1.009-2.427-.2-1.213-1.111-2.527-1.011-5.257-.1-5.456-1.923-1.518-.907-2.122-2.626-2.224-.4-2.224-1.615-.708-1.719-1.923-1.823-1.615-1.412-3.235-1.615-3.638,1.113-4.547,1.514-3.235-1.412-4.144-.706-1.111-.5-3.638-1.21-5.864-.912-6.065,0-2.224,1.21-1.921,3.335,2.427,1.717,2.932,3.133-1.011.909-1.113,2.222-1.414,1.217-1.414,2.124.909.708,1.414,2.529,1.518,1.717,1.821,4.142-.81,1.92-1.821,2.224.1,1.514-1.314,3.131-2.626,3.337-1.516,4.346,5.255,2.73,6.875,5.461,1.516,6.974,1.009,10.01-3.941,3.737-6.468,6.364-5.155,2.226-6.368,2.325-.507,2.529,1.213,4.447.3,2.527,1.212,4.549,0,3.638,1.314,5.456.5,2.529-1.011,3.843.608.608.708,2.326-.708.706-2.022-.2-2.527,1.717-2.527,2.83-3.133-1.514-3.839-1.416.2-1.717-1.619-3.133-3.233-1.717-3.233-3.131-3.133-2.427-3.133-4.043.4-5.762-.3-6.977-.1-2.527.5-3.638-.706-2.83-2.527-2.83-4.346-.606-6.872-.407-3.943-.2-4.751-.91a16.833,16.833,0,0,0-6.266-3.031c-3.133-.808-4.549-2.423-4.852-3.332s-3.436-1.617-4.142-2.529-3.741-1.412-4.954-1.213-4.244-2.531-6.063-2.425-6.065,1.921-6.773,2.02.1-1.513.606-2.224-1.516-3.742-2.022-5.764-1.213-4.246-3.334-3.943a8.559,8.559,0,0,1-5.054-1.21c-.606-.407-.708-6.167-.2-8.59s3.133-6.069,3.133-7.583,1.717-2.226,3.233-2.626.3-3.337,1.821-3.538,1.615-.81,1.92-2.02,2.122-.4,1.111-1.416-.2-1.314,2.122-1.314,5.762-.81,5.257-3.135-6.569-.6-6.569-2.525-7.683-2.022-7.178-3.133,7.682.808,10.309,1.817a9.983,9.983,0,0,0,5.459.81c2.124-.1.708-2.83,1.113-3.941s4.448,1.717,6.771,1.111,4.549-5.357,6.47-6.669.2-2.529-3.538-2.224-5.861-1.113-7.884-2.631-1.819-2.728.3-2.525,7.176,4.348,9.1,4.445,5.255-3.739,6.873-4.952-1.513-1.719-2.626-2.626,1.919-1.516,3.538-1.516,2.323,1.414,2.929,2.12,3.439-.5,4.853-.5-.2-2.328-2.527-3.235.1-2.626.81-1.213,2.321,1.111,3.131,2.73c1.178,2.356,1.923.805,3.943.1a9.654,9.654,0,0,0,4.144-3.133c1.111-1.213,1.314.2,2.627-1.717s-.606-3.742-2.224-4.956.1-2.423-1.516-3.231-1.921-2.328.1-1.923a4.107,4.107,0,0,0,4.549-1.618c.909-1.416-3.034-1.717-1.212-2.73s.3-2.018-1.518-2.018-3.337-.91-3.436-2.427-3.235-.5-5.153-1.416-6.167-.706-7.178-.606-1.113,4.246.4,4.348,2.728,1.717,1.414,2.226.2,2.118-.808,2.016-2.626-.6-2.932,2.022-.5,3.64-2.224,4.549-.4-2.929-2.02-2.828-1.819,3.235-.606,3.538,1.414,1.312,1.717,2.828-2.221.4-3.233,2.226-1.113-.812-2.529-2.022-3.133-3.237-3.031-4.751a1.993,1.993,0,0,1,1.921-2.022c1.111-.2,0-1.215-.1-3.033s-1.414-1.213-3.031-3.133-3.334-1.918-4.246-1.011-.3,2.629-1.717,3.237-.81,3.434-2.02,3.635-.506-4.952-1.518-5.454-.909-1.719.606-1.921,2.425-1.821,1.111-1.821-3.638-1.414-4.547-1.821-2.425,1.719-3.436.91.1-2.83.2-3.941,1.617.507,2.628-.909-2.83-1.414-2.83-2.932-3.034-1.921-4.043-2.425.706-3.031.2-4.043-4.246-4.346-5.861-4.043-2.022-2.122-1.113-2.022,1.618-.5,3.337-2.425,1.918-2.527.706-2.932-1.819-1.617.305-1.516,5.862,1.516,7.074.606,5.054-6.873,6.57-8.995-1.111-2.325-4.751-2.022-4.447-1.416-7.479-1.618-8.692.606-9.5,1.516,1.516,1.719,1.213,2.73-2.122-.708-2.93-.305.3,1.719,0,5.257.706,3.739,1.717,5.054.81,3.031.81,5.255-2.124,2.122-2.83,2.629,1.819,1.314,1.414,2.728-2.527-.808-3.742-.4-2.221,3.841-.907,4.954,1.819.91.808,2.224-2.122,3.233.305,5.153,6.87,1.719,9.2,3.235-1.011.609-.1,2.326-1.515,2.325-1.416,3.64,1.013.6,2.226-1.62,2.122.608,2.02,2.529-1.819.808-3.133,2.728-2.527,2.219-4.447,1.819-.808,2.728,0,4.448-.2,2.323-2.425,1.717-3.538-2.02-2.427-3.737,1.923-3.744.609-3.54-4.346-.1-5.258-1.513.608-.81,3.337-.507.4-1.819,2.425-1.819,3.538,1.111,5.257-.407-1.113-4.445-2.527-3.939-3.64,1.111-3.64-.3,2.427-.4,3.739-.71-.708-2.12-2.728-1.615-3.436.606-5.054-1.113-4.549-2.728-5.255,1.213-3.538,1.821-4.651,3.135,1.314,2.224,4.045,2.323,4.748,2.629,3.436,2.629-.708,1.921-2.124,1.215-2.83,0-1.819,1.208-.4,1.717-.3,2.936-2.122.1-4.244-.1-6.065.5-8.895,1.113-5.966-.4-7.176-1.719-2.83-1.111-4.852-1.111-1.416-1.923-4.043-2.022-2.022-2.323-2.326-3.638-5.558-.909-7.479.3-5.66.708-6.671,2.934.909,1.921,2.022,1.921c1.546,0,1.414-1.819,4.244-1.418s4.852-2.93,6.065-1.717-4.853,3.536-7.479,3.943-2.022,2.527.5,6.266-1.111,1.615-1.111,3.436-4.753-.606-2.83-1.212,1.009-2.527-.507-3.739-2.527,0-2.323-1.314-1.62.1-3.034-1.009-2.124-2.022-4.043-1.013-4.144.708-8.388,1.414-12.028.507-13.444-.909,3.638-3.941,5.156-3.534c1.468.388.606-1.62-1.717-3.438s-7.483-2.932-7.379-1.819-2.932.1-6.671-.6-4.246-2.027-6.671-2.124a16.155,16.155,0,0,1-8.895-3.031c-2.83-2.228-9.5-1.62-10.309.4s-3.034,1.921-5.257,1.921,1-2.5.2-2.932c-1.065-.569.1-3.334-1.518-3.536s-3.131,6.671-6.164,6.468-4.346-7.275-6.873-9.1-4.852-1.921-2.73.81-1.819.808-1.615,2.626-3.436,3.943-3.337,2.932-2.02-2.124-4.447.706-4.144,2.427-4.346,1.418-7.377,2.626-7.074,3.839-1.113,2.122-3.034,2.022-.4-1.717,1.111-2.529c1.706-.905,6.37-4.649,8.793-5.049s7.078-2.325,7.178-3.438-2.323-.2-3.943-.507-4.445,1.518-7.176,2.73-5.861.808-5.052,2.425-2.527-.2-3.235.911-2.022-.1-1.011-.71-2.427-1.717-2.427-1.011-.606,1.618-3.031,1.618-4.852,1.719-3.233,2.934,2.627,1.819,1.817,2.626-3.334-2.124-6.873-1.819-10.612-3.941-10.612-4.952c0-.821-4.974-.312-8.421-.682v69.86s1.75,1.306,2.423.5,1.888.271,4.179-.81,3.1,1.215,3.1,2.289,3.235,2.834,4.582,4.584,2.022,3.233,3.506,2.291,4.177-1.483,4.177-3.237,6.2-2.018,6.2.275,6.333,4.984,9.837,11.181,2.964,7.548,8.087,9.57,4.987,3.1,4.311,4.855,3.1,2.693.944,4.175c-.827.567-1.988,1.394-3.109,2.2.1.888.9,1.459,1.931,2.319,1.213,1.009-2.224,1.009-1.215,1.918s-.2,2.326.81,3.436,2.83.708,3.941-.2,1.923,1.113,1.011,2.626a1.226,1.226,0,0,0,1.923,1.52c.907-1.115,2.828,1.817,3.737,2.323s1.821,2.02.3,2.02-1.314,2.629-.2,2.728,1.009,1.518,1.009,2.427,3.538,2.224,4.855,1.821,2.524.806,3.131,1.921,3.034,1.916,3.943,1.21,1.516,1.314,1.719,2.728,2.224.606,3.436.507,1.919,1.617,2.728,1.314c1.78-.669,2.319,2.44,3.5,4.266l125.625-.678s.084-3.118,1.567-2.04.134,2.828,1.886,3.506,2.967,1.749,3.908,1.345,2.561-1.752,4.177.139,2.83.266,3.774,1.481,2.7,2.157,3.908.676c.983-1.2,4.712.251,6.518.914,2.215-1.776,3.967-5.565,5.948-5.565,2.628,0,9.3.6,9.7,4.04s4.45.206,4.852,3.441c.342,2.745,3.014,4.911,2.568,6.366a29.332,29.332,0,0,1,2.6,1.8c1.284-.431,4.7.117,6.965.925,2.83,1.009,7.074-1.21,8.49,2.226s4.7,6.028,1.615,6.264c-2.626.2-6.063-3.436-5.861-1.414s-1.414,1.013-1.414,4.04-2.023,7.28-3.235,7.076a.629.629,0,0,1-.117-.048,3.975,3.975,0,0,0,.738,3.575c1.539-1.12,3.748-3.047,5.645-2.919,3.034.2,3.841,2.022,5.864.608s2.423-2.02,2.83-1.013a.582.582,0,0,1-.069.455c.768-.409,1.312-.808,1.349-1.132a5.155,5.155,0,0,0-.257-1.806c-2.027.3-2.687.448-3.248-.955-.808-2.018,6.065-4.04,9.3-3.635,3.066.381,5.223-1.771,6.3-.45,1.944-1.747,5.257-4.6,6.1-4.6,1.215,0,15.636-.139,15.636-.139s4.984-3.1,5.658-5.926,3.908-9.573,5.794-8.085,5.931.4,6.065,1.75c.125,1.245-1.343,5.827,3.841,12.678,1.825-1.154,3.709-2.057,4.783-2,1.819.1,4.547-2.323,5.359-3.841s1.918,1.416.3,1.921,1.314,1.717,4.144,1.617-1.314,1.009-3.436.909-3.031.2-5.862,3.036-2.122,3.635-.507,5.049,3.74.812,5.963-1.111,2.124-3.841,4.348-3.739,7.983-2.022,10.51-2.828.909-1.217.909-2.33,4.448-1.109,6.065-2.224S-460.227,528.051-461.643,528.255ZM-724.714,397.246c-2.653,3.3-3.538,3.781-6.271,3.3s-4.417.888-3.055,1.851,1.449,1.769-1.362,2.412-4.664,2.81-5.788,2.57,4.822-4.5,3.293-5.625-5.3,1.931-5.383,3.3-2.572,1.446-4.1,1.364-3.536-1.529-2.011-1.689.483-1.847,2.574-2.648-.4-2.009.24-2.893,4.9.883,4.982-.723-4.259-2.975-5.705-2.009-4.822,3.213-8.841,1.442c-1.264-.554,10.127-1.762,12.056-3.532s10.605-3.781,11.251-2.174-4.66,2.657-2.09,4.1,6.751.483,7.713-1.046S-722.063,393.954-724.714,397.246Zm25.557,32.47c-3.135,2.73-2.895,2.007-5.628,2.488s-.561,3.216-3.856,3.456-11.253.565-12.377-1.284c-.377-.617,4.339-.162,4.662-1.524s1.607-3.54,3.616-3.54,1.847-2.648-1.446-4.259,4.742-2.652,6.589-.08,5.145,4.424,6.992,2.572,12.377-6.992,12.377-4.582S-696.024,426.983-699.157,429.716Zm70.341,73.472c-2.213.245.2-5.861-3.843-8.085-4.751-2.613-6.87-7.479-6.87-10.108s4.04-3.841,5.66-1.819,4.042,10.311,5.456,12.937S-627,502.986-628.816,503.188Z" transform="translate(66.208 2.617)" fill="#64137d" opacity="0.082"></path><path id="Trazado_406" data-name="Trazado 406" d="M-715.7,408.432c.676-1.756.81-2.832-4.311-4.854s-4.582-3.369-8.087-9.571-9.836-8.893-9.836-11.181-6.2-2.022-6.2-.275-2.7,2.3-4.176,3.237-2.157-.539-3.506-2.291-4.582-3.5-4.582-4.584-.808-3.367-3.1-2.289-3.5,0-4.179.81-2.423-.5-2.423-.5v-69.86a8.626,8.626,0,0,1-2.092-.431c-2.93-1.113-7.278-3.133-9.6-2.629s-6.974,1.111-8.592.3a11.394,11.394,0,0,0-7.176-1.011c-3.334.507-5.459-1.819-9.7-2.83s-10.207.3-11.621.808-1.113-1.516-2.932-1.312-.4-.808-1.416-2.325-6.065-.1-7.884.1-2.325-.909-2.224-1.819-1.617-.606-2.323.606a2.511,2.511,0,0,1-3.538.606c-.81-.81,1.717-1.111,1.819-2.022s-2.629-1.414-3.64-1.717-2.626,1.011-4.75,2.93-5.255,1.719-7.176,1.516-4.346.2-4.244,1.316,2.425,1.009,1.011,2.425-1.921-1.921-3.337-.4-5.66,1.414-6.671,1.213-4.346,3.434-5.357,4.448.808,1.923-1.918,4.852-10.008,2.326-11.524,2.326-.4,1.717-1.212,2.83.909,2.122,5.054,3.233,6.974,6.567,7.479,7.884,5.66-.1,7.682.2-.2,3.133,1.516,3.943,4.348-.407,4.852,1.011-3.438,0-5.458,1.514-3.031,2.226-3.841,1.111-4.144-.4-5.861-.2-.1-2.126,0-3.138-2.326-1.717-5.662.2-2.122,1.215-2.525,2.728-1.819-.909-3.941.4-5.561,2.226-6.169,3.538,4.549,2.224,6.571,2.629-2.425,1.717-.81,2.222.912,2.025,3.439,3.337,8.185,0,9.7,0,2.932,1.821,4.142.507,5.762-4.952,8.087-2.83-2.527,1.817-1.314,3.133,2.728,4.445.5,6.065-4.344.5-5.558.4-.5,2.224-2.427,3.737-3.335-1.613-5.76-1.613-1.919,3.133-1.821,4.647-3.635-.3-4.547,3.337-4.748.507-2.224,4.043,2.124,1.314,4.146,2.73-2.226,3.943-.2,4.346,4.244,4.045,5.66,5.357,3.233-.708,5.357-.808,1.111-3.031,2.323-1.921,2.932,4.344,1.821,5.153-.2,3.335-.4,4.549,4.649.81,4.952-.606,4.145-1.821,6.269.5,2.83,2.728,2.83.912,1.819-3.841,1.918-2.328,1.821,1.918,4.952.5,1.719.1.1,2.122c-2.232,2.8,0,6.875-1.615,7.278s-2.932,4.551-5.56,4.854-7.074,5.259-7.682,6.067-6.266-1.617-7.074.706-4.231,4.056-3.335,4.954c.6.606,5.255-1.717,5.457-2.932s.81-1.009,1.618-.1,2.83-.4,3.739-1.215,2.425-.5,3.335-.4,1.316-1.111,4.045-1.617,2.122-1.314,2.728-2.726,7.076-4.45,8.289-4.755.5-2.321,1.819-2.427,3.334-1.717,5.054-3.133,2.122-.808,3.436-1.312.3-3.133,1.618-3.337A2.576,2.576,0,0,0-823.177,387c0-1.111-3.334-1.111-3.64-1.817s2.629-3.337,3.739-3.237a3.188,3.188,0,0,0,3.031-2.726c.1-1.615,1.721-1.921,3.034-3.334s1.011-2.629,2.326-2.73,2.525-1.921,3.941-2.728,0,1.007,2.73,1.113,2.122,2.626.1,1.717-2.93-.81-4.751.909-.4,2.224-1.819,4.144-1.516,3.131.3,3.335.1,1.516-1.617,2.02-.5,1.518,1.819,1.518,5.762-3.337,9-4.954,5.66,0,6.57-.3-1.011-1.819.1-2.321-1.317-.812-2.025-2.733,1.113-.706,1.518-2.221,1.516-.912,2.527-.2,2.425-.708,3.335,1.213,1.921-.5,3.538.808-.305,1.115-2.022,1.518-.808,2.728.5,1.62,2.425-1.821,3.64-.708,1.719.606,2.73-.407,1.009.1,1.009.909,2.122,1.109,5.155,1.617,8.49-.2,9.9-.3.912,2.122,4.045,2.728,3.941-3.131,5.558-1.817,0,1.817-.909,2.83,1.011,1.109,2.224,1.615,4.043,1.314,5.357,2.626,2.122,2.728,5.355,4.348.1-4.045,2.631-2.226,1.617.1,3.638,1.921,1.314-.808.4-3.841.912-1.009,1.821.4.909,4.144.3,5.965-3.64.3-3.337-.706-3.031-.608-3.133.808,2.122,4.146,3.742,4.45.4,2.83,1.414,3.133c1.388.414,1.314,3.031,2.124,2.627s.5-3.536-.4-4.948-.507-3.443.706-3.038,0,2.529.606,3.235,1.314-.706,2.731-1.514-.606-3.137-.1-4.352,2.122,1.011,2.726,3.135-1.515,2.025-1.515,3.135-1.921.606-2.527,1.212-.3,4.651.507,4.753,1.314-3.337,1.819-1.62,2.425-2.224,2.932-.606,2.93,3.438,3.841,3.034-.4-2.124-1.821-2.226-1.213-2.425.1-2.527,3.638,3.337,3.538,4.549-1.213,1.113-2.328,2.328-2.624-2.022-3.941-1.921,0,2.12.608,3.534-1.62,3.337.1,4.45,1.215-.706,1.516-1.513,1.62.2,2.529.909c.849.656,1.009-1.62,1.009-2.529s1.516-.407,2.325.81.909-1.316,2.122-1.115.4,2.124.4,3.235,2.122-.909,1.921.305a1.773,1.773,0,0,0-.011.511c1.122-.8,2.282-1.63,3.109-2.2C-712.6,411.125-716.377,410.179-715.7,408.432Z" transform="translate(0 65.639)" fill="#64137d" opacity="0.082"></path><path id="Trazado_407" data-name="Trazado 407" d="M-887.494,355.077c2.425-1.009,3.436-2.221,2.425-3.434S-889.36,355.854-887.494,355.077Z" transform="translate(1.247 133.343)" fill="#f4f4f4"></path><path id="Trazado_408" data-name="Trazado 408" d="M-876.376,349c-2.224-.808-8.076,2.746-6.063,3.034,1.414.2,2.02-1.213,3.638-1.213S-874.15,349.806-876.376,349Z" transform="translate(7.311 130.328)" fill="#f4f4f4"></path><path id="Trazado_409" data-name="Trazado 409" d="M-850.208,338.331c.1-1.113-1.518-1.011-3.538,1.314s-3.739,3.538-4.043,4.653-2.629-.206-3.337,1.208.5,4.556,1.921,3.542,1.516,0,2.427,0,5.052-2.83,5.961-4.25-1.617-1.817-1.717-2.726,2.122-.909,3.235-1.518S-850.309,339.444-850.208,338.331Z" transform="translate(32.388 117.237)" fill="#f4f4f4"></path><path id="Trazado_410" data-name="Trazado 410" d="M-883.732,332.828c-.2-1.617-4.549-.1-4.043,1.414s4.608,2.507,6.368,1.921c1.516-.507,2.02-2.122.909-3.133S-883.531,334.445-883.732,332.828Z" transform="translate(1.529 110.817)" fill="#f4f4f4"></path><path id="Trazado_411" data-name="Trazado 411" d="M-536.885,377.364c-.134-1.347-4.177-.271-6.065-1.75s-5.121,5.255-5.794,8.085-5.658,5.926-5.658,5.926-14.421.139-15.635.139c-.842,0-4.155,2.856-6.1,4.6a2.013,2.013,0,0,1,.171.245c1.457,2.631-3.841,4.246-8.895,4.45a33.188,33.188,0,0,0-3.627.346,5.152,5.152,0,0,1,.258,1.806c-.037.325-.58.723-1.349,1.132-.775,1.568-6.974,4.595-10.443,6.42-3.841,2.022-9.1,1.009-9.1-2.022s2.83-2.425,3.436-1.009c.227.528.909.143,1.834-.52a3.975,3.975,0,0,1-.738-3.575c-1.158-.507.645-5.032-1.7-5.809-2.425-.812-5.255,3.434-4.852.8s4.043-4.85,1.819-8.284-6.266-3.436-7.076-.812-3.637,1.416-4.649,3.436a16.594,16.594,0,0,0-1.21,9.707c.805,3.233-.2,4.848-3.235,6.669s-4.621-2.78-3.438-8.691c.81-4.047,3.034-7.882,1.011-7.882s2.629-4.857,6.872-5.864,9.5-.608,9.5-1.821c0-.245.19-.411.513-.522a29.364,29.364,0,0,0-2.6-1.8,1.337,1.337,0,0,1-.546.708c-1.665,1.161-1.215-1.821-4.246-1.821s-6.065,2.83-8.49,1.619-1.213-2.832-3.436-2.832,1.617-4.244-1.617-2.425-8.087,6.269-10.309,4.246-4.246.606-5.863-1.011,5.66-6.063,9.1-5.861a3.435,3.435,0,0,0,2.341-.905c-1.806-.662-5.534-2.118-6.518-.914-1.212,1.481-2.964.535-3.908-.676s-2.157.4-3.774-1.481-3.233-.541-4.177-.139-2.157-.673-3.908-1.345-.4-2.427-1.886-3.506-1.568,2.04-1.568,2.04l-125.624.678a4.167,4.167,0,0,0,.446.585c1.513,1.62.3,2.83.808,4.753s.1,4.649-1.416,4.649a1.22,1.22,0,0,1-.606-2.325c1.113-.606.507-2.83-.6-2.83-.65,0-.912-.76-.884-1.654-2.063.572-4.434.312-7.2-.017a1.263,1.263,0,0,1,.1.359,12.753,12.753,0,0,0,2.323,6.061c1.617,2.124.5,3.438,2.022,4.246s1.414,1.719,0,1.516-.4,1.113-.909,4.146-.4,9.3-.708,11.22-2.527,5.054-1.213,7.076a9.469,9.469,0,0,1,1.516,7.375c-.708,2.529-.606,4.042.5,5.963s.2,5.257,1.416,5.963a11.332,11.332,0,0,1,3.436,3.941c1.111,1.823,2.122.71,2.326,2.529s.2,2.124,1.817,2.83.608,2.525.608,3.536,2.122,2.832,4.751,5.156.405,4.244,2.323,4.244,3.741,1.113,5.66,2.328,2.527.5,3.841.808,3.74,3.133,4.246,5.054a16.989,16.989,0,0,0,1.024,2.875l10.48-1.375s3.239,2.269,5.075,2.7,11.77,4.1,11.77,4.1l12.957-.11,1.512-1.942h7.126s4.536,4.428,5.184,4.647,2.916,2.265,2.916,3.562a3.069,3.069,0,0,0,1.62,2.914c1.078.541,4.75,2.917,5.29,2.7s1.62-4.318,3.562-4.207,7.236,1.615,8.1,4.638a13.532,13.532,0,0,0,4.317,6.156c.864.647.433,2.486,1.081,3.458s.539,2.808,1.295,2.808,4.644,2.375,6.372,2.267a3.737,3.737,0,0,1,1.9.708c.208-3.61-3.508-4.22-1.321-5.876,2.527-1.925-.1-3.54,1.113-4.35s3.337-1.615,3.337-2.83,1.111-1.21,2.728-1.007,4.649-2.631,4.447-3.744.3-1.31,2.221-.909,1.62-2.224,2.832-1.819,2.224,1.113,2.323.2,1.314-.706,2.224.507,3.538,1.518,3.739.1,1.719,0,3.034,1.416,1.92,1.009,3.841,1.111,1.92-.4,2.02-1.617,2.124,2.626,4.045,2.83.4-1.213-1.011-2.323.3-1.62-.909-2.527,1.516-2.126,3.941-2.02,2.326.706,3.235-.71,1.819,0,1.819,1.21,3.943-.706,6.065-.706,4.043,1.817,4.244,3.036,1.619,1.817,3.135.5,2.83-2.832,4.244-1.416,2.83,3.337,4.549,5.054-.81,3.843.1,5.155-.1,3.135,1.921,4.549.2,4.346,1.819,4.753,2.932,2.927,3.135,3.939,3.233,2.325,3.436.606,1.819-3.739,2.02-5.355-1.212-7.381-2.527-9.2.3-2.226-1.314-4.344a15.377,15.377,0,0,1-2.527-8.9c.1-3.031,3.64-7.983,5.357-9.5s3.64-.708,4.045-2.326,2.527-3.635,3.739-3.635,2.527.3,2.728-1.009,2.224-2.936,4.852-3.337,1.111-1.823.4-3.033.606-2.427,1.111-1.62,2.122.909,3.133.2,3.337-2.626,1.113-2.728-2.73-1.009-1.416-1.518.2-2.927-1.617-3.131-1.213-1.111-.1-2.226-1.615-2.927-2.93-3.841.805-1.412,1.819-1.615.2-4.852.708-5.963,2.222-1.111,1.516,0-1.719,2.932-.4,4.447a5.685,5.685,0,0,1,1.213,5.456c-.5,2.328.507,1.719,2.022-1.314s1.717-5.658.708-5.963-.911-3.332.2-1.921,1.516,1.62,3.235-.2,3.538-4.95,2.425-5.66.5-1.416,2.527-1.31,6.366-1.219,6.669-1.823c.989-1.973-6.972.909-6.972-.2s5.054-2.224,7.377-2.323,1.215-3.233,2.226-1.923,2.527,1.113,3.839.305.3-3.133-1.213-3.536,1.113-1.416.606-2.325,1.011-4.551,2.932-4.952,1.011-1.62,2.629-1.62,1.921-1.921,3.335-3.332,3.436,2.219,5.66.2a26.081,26.081,0,0,1,3.4-2.553C-538.228,383.191-536.76,378.61-536.885,377.364Z" transform="translate(106.75 148.183)" fill="#64137d" opacity="0.08"></path><g id="Grupo_351" data-name="Grupo 351" transform="translate(-452.641 237.033)" opacity="0.082"><path id="Trazado_412" data-name="Trazado 412" d="M-424.075,256.02c-4.989,0-9.031.808-9.3,4.311s-6.6-.673-9.3.539-1.347-2.83-4.04-1.485-5.66,4.586-8.895,5.933-5.662,4.716-7.682,4.984,4.313-6.2,7.546-9.432,1.481-7.009-2.83-6.6-3.371,3.1-5.8,3.64-14.013,6.331-14.553,4.582,9.568-4.718,9.434-5.933-12.805-1.345-18.463-.535-15.633,4.043-15.77,2.425,11.593-3.91,17.521-4.584c6.063-.689,16.846.4,21.428-1.481s11.454-2.02,12.669-3.506-5.257-3.5-8.49-3.367-6.468-.271-6.2-1.888-4.984-2.022-5.523-3.235-10.647-.268-12.8-1.617-8.492-2.022-13.881-1.617-16.443.273-19,.539-4.177,1.215-6.468,1.078-5.8.676-4.448,2.159c2.44,2.683-3.638,3.774-3.233,1.752s-5.257-2.966-7.009-1.483c-2,1.689-11.054-1.752-12.4,0s-11.993,1.213-15.092,1.752,4.852,2.83,4.582,4.179-10.11,0-8.085,2.425,8.49,4.177,11.586,7.278-2.423,1.213-5.929-1.081-7.951-1.481-10.105-3.772-10.244-4.04-12.264-2.7c-2.406,1.607,5.524,4.582,5.524,6.336s-5.389-.4-6.331.268-5.662-4.582-8.356-4.582-.405,2.425-.405,5.794-5.255,5.392-3.774,3.1.4-8.219-2.427-9.3-10.105,2.3-13.879,2.159-8.758,1.078-5.526,2.966-.134,2.962-2.964.942-12.13,0-10.242,1.347,2.561,5.257,1.349,6.875-5.123-1.617-8.763-1.349-21.694,8.895-20.615,11.188,8.756.4,11.184,1.747-.808,6.336-3.774,8.358-14.014.134-14.284,2.559-17.385,2.83-17.385,6.74a3.284,3.284,0,0,0,2.694,3.367c2.423.522,5.391-.268,7.548,2.157s8.219,2.564,12.4.944,7.277.268,7.141,2.694-9.432-.944-12.262.81-11.591.269-11.186,2.157,4.718,1.483,8.221,2.154.269,2.159.136,3.64,1.884,1.213,5.387,2.964,9.3,2.83,7.412.81,3.64-1.754,4.584-.541,3.5-1.75,6.065-1.076,3.5-2.427,5.524-1.078,11.459,2.154,14.692,3.908,7.682,2.159,7.277,4.716,2.694,4.447,6.331,6.065a7.28,7.28,0,0,1,4.179,7.414c-.134,2.291,3.908,3.906,3.235,4.987s-.134,2.557,2.293,4.714-3.774,3.776-2.293,5.662-2.157,5.524,2.157,6.2,3.638-2.966,6.875-2.966-.134,2.83,1.615,4.584,5.389,1.347,8.761,4.175,1.213,4.179-1.89,1.89-12.126-1.752-12.126-.946,9.973,6.47,12.264,5.662,5.389,3.371,4.04,4.716-.671,4.72-.944,6.333-3.638,0-5.792.271-3.64.944-3.64,3.233-3.369,3.908-3.772,6.738,2.691,2.7,4.445,3.911-3.233,2.02-3.5,4.045,4.579,5.66,6.331,6.6.136,5.526.808,7.817,2.966-.543,2.7,2.423,2.159,2.832,2.293,4.584,4.311,1.481,3.505,3.906,1.21,4.181,2.155,5.526,4.447,3.64,5.118,5.391,2.7,4.04,5.121,3.371,2.562,1.617,4.448,1.345,4.852.808,5.394,2.293,6.331,2.83,7.946,3.1,1.89-2.694,3.374-3.5.944-6.741,2.289-7.145.944-6.6-.4-7.141-.808-2.7,2.293-2.291,2.022-2.7,3.5-3.1.808-3.235,1.886-3.5.946-2.159.134-3.233.138-1.888,1.754-2.159,1.212-2.557-.942-3.369-1.483-3.231.671-1.752,3.774.4,2.559-1.213,1.485-2.425,4.313-2.694,4.315-1.754,3.774-3.913,3.235-2.022,2.289-.132-.4,3.774.946,2.427,3.908-.4,8.492-1.754,9.027-5.121,10.1-8.759,6.336-3.235,5.664-5.66.942-3.369,4.309-1.752.676-1.078,4.447-1.078,3.1-1.351,6.74-1.481,13.07-1.752,16.307-4.449,10.105-4.987,12.935-6.738,3.508-3.235,1.754-2.289-5.391,1.076-8.087.4-7.009-2.966-10.107-1.215-1.21-2.559,1.347-2.964,1.485-1.615.812-4.311,4.311-.944,6.468,2.154a9.163,9.163,0,0,0,9.971,3.369c3.64-1.076.136-4.043,1.617-6.063s-11.185-8.356-11.861-10.512,3.235-.673,6.743.808,4.311-2.828,4.311-4.716-7.546-2.022-10.917-.136-6.6-2.425-2.02-2.964.4-2.425,1.754-3.77,7.139,3.9,10.105,2.96,5.121.136,7.682-1.884-4.584-3.908-6.063-5.662,7.407-1.076,10.105-.944,3.367-3.906,1.212-3.1-9.839-2.693-8.221-5.119,4.584.4,7.949-1.351.273-8.352-2.152-8.352-8.085-.808-8.085-2.022-4.718-2.293-3.371-3.506,3.1,1.485,6.2-.81,9.564.541,12.4,0-1.213-5.792-2.834-4.85-7.139,1.213-7.544-1.618,5.255,0,6.2-1.347-7.814-4.85-9.166-2.02-6.2,1.886-3.638.268,3.1-6.2,2.83-8.49,9.168-2.425,8.087-6.2,4.445-4.582,7.548-4.582-.137-4.043-3.1-3.638-6.065,3.77-7.546,2.425,3.5-3.774,6.2-3.774,9.163-.269,11.452-1.617-4.042-2.561-8.354-2.022-4.313-1.349,2.157-1.481,5.389-1.485,9.973-2.02,3.094-2.427,5.927-2.562,10.244-3.235,10.244-4.718S-419.09,256.02-424.075,256.02ZM-591.993,373.4c.132-2.155-2.291-.808-3.64-3.369s-8.226-3.618-8.893-1.615c-.271.808-2.425,2.02-.675,3.906s2.964,1.078,4.987,2.964S-592.13,375.553-591.993,373.4Z" transform="translate(687.542 -237.033)" fill="#64137d"></path></g><path id="Trazado_414" data-name="Trazado 414" d="M-696.161,430.863c-.29.6-1.791-.777-1.83-1.83s-1.555-1.243-1.555-3.068.738-2.921,1.674-1.325.31,2.644.463,3.423S-695.655,429.813-696.161,430.863Z" transform="translate(220.913 217.711)" fill="#64137d" opacity="0.08"></path><path id="Trazado_416" data-name="Trazado 416" d="M-692.558,507.89c1.263.74,3.053.533,3.477,0s1.576.632,3.265,2.533c.074.084.134.152.206.229,1.414-.31,3.2-.576,3.924-.123,1.267.793.95,3.649,2.693,3.807s3.016,1.906,2.856,2.852,1.9,1.431,1.745,2.858,4.6,1.109,5.236.637a2.731,2.731,0,0,1,2.7-.32c.795.474,2.219-.472,3.014-.158s3.967,1.589,3.332,2.7-2.854,2.856-2.379,3.813c.377.749,2.033,1.217,2.711,2.161a1.1,1.1,0,0,0,.223-.02c1.215-.264,1.749-4.846,1.749-6.193a34.07,34.07,0,0,1,.935-6.217c.764-2.652-2.916-4.517-2.916-7.39s1.457-1.275,3.1-2.458-.093-1.687-.914-1.871a2.233,2.233,0,0,1-1.184-2.5c.273-.868,5.288-.5,6.883-.5a13.306,13.306,0,0,0,5.1-1.687,2.084,2.084,0,0,0-.823-2.326c-1.23-.955-.773-2.323.184-3.419s-.591-2.185-1.778-3.505-.273-6.11,1.094-8.341-2.78-1.732-5.333-1.414a6.742,6.742,0,0,1-6.379-2.78c-1.641-2.1-3.874-.773-7.8-.684s-3.144-4.331-2.962-6.019-2.005-1.914-2.005-3.005-1.139-1.093-2.143-1,0-1.228.686-2.094.637-1.55.682-3.376,2.687-3.367,4.01-5.153a2.663,2.663,0,0,1,1.386-.881,1.372,1.372,0,0,1,1.109-.886c2.02-.4,3.031-1.717,1.108-2.834s-3.031,2.126-5.153,2.429-2.527,1.615-3.943,2.323-4.043.1-4.142,1.314c-.11,1.325-.909,0-2.122-.3s-4.348,2.423-4.246,3.941.606,2.93-1.617,4.348-3.538,4.043-4.549,5.255a.752.752,0,0,1-.992.232,2.439,2.439,0,0,1-.63,1.429,40.636,40.636,0,0,0-3.073,2.98c.569.546,1.1,1.037,1.461,1.42,1.414,1.518.5,2.733.909,3.542s.808,2.02,0,2.525-.1,6.065.808,7.076,0,1.92-1.011,3.939-1.92,2.934-3.739,3.033-1.719,2.932-2.323,2.932c-.483,0-.836,1.024-.907,1.9,1.7,1.425,4.744,3.153,5.625,3.153C-694.455,505.783-693.823,507.156-692.558,507.89Z" transform="translate(219.182 250.586)" fill="#64137d" stroke="#969696" stroke-miterlimit="10" stroke-width="0.25"></path></g><circle id="Elipse_14" data-name="Elipse 14" cx="5" cy="5" r="5" transform="translate(1361 956)" fill="#fff"></circle><g id="Grupo_356" data-name="Grupo 356" transform="translate(1234.495 776.349)"><g id="Grupo_353" data-name="Grupo 353" transform="translate(132.359 182.234)"><path id="Trazado_417" data-name="Trazado 417" d="M-867.173,471.758l-1.077-.06c0-.007.06-1.129.069-3.194l1.077,0C-867.113,470.614-867.173,471.758-867.173,471.758Z" transform="translate(868.25 -468.503)" fill="#4b4b4b"></path></g><g id="Grupo_354" data-name="Grupo 354" transform="translate(9.253 2.985)"><path id="Trazado_418" data-name="Trazado 418" d="M-802.71,557.95c-.081-2.1-.2-4.275-.36-6.453l1.068-.08c.158,2.191.278,4.376.362,6.489Zm-.929-12.891c-.22-2.127-.477-4.285-.764-6.419l1.061-.142c.287,2.144.546,4.313.768,6.446Zm-1.718-12.807c-.351-2.131-.734-4.268-1.141-6.356l1.051-.206c.409,2.1.794,4.247,1.145,6.386Zm-2.47-12.676c-.471-2.088-.98-4.2-1.515-6.274l1.038-.269c.535,2.086,1.049,4.208,1.519,6.3Zm-3.217-12.5c-.6-2.071-1.237-4.146-1.892-6.171l1.017-.331c.659,2.034,1.3,4.12,1.9,6.2Zm-3.974-12.271c-.725-2.021-1.492-4.049-2.277-6.031l.993-.4c.792,1.993,1.56,4.034,2.29,6.066Zm-4.751-11.992c-.852-1.957-1.751-3.931-2.671-5.866l.965-.462c.927,1.944,1.83,3.928,2.686,5.9Zm-5.539-11.635c-.991-1.907-2.025-3.815-3.069-5.664l.929-.529c1.053,1.86,2.091,3.774,3.088,5.7Zm-6.337-11.214c-1.115-1.815-2.281-3.643-3.469-5.425l.89-.6c1.194,1.793,2.367,3.63,3.491,5.459Zm-7.133-10.71c-1.254-1.742-2.553-3.47-3.861-5.146l.843-.662c1.314,1.684,2.622,3.427,3.884,5.178Zm-7.912-10.141c-1.37-1.621-2.795-3.249-4.242-4.834l.79-.727c1.455,1.6,2.891,3.234,4.267,4.864Zm-8.665-9.5c-1.492-1.514-3.039-3.025-4.6-4.49l.732-.785c1.571,1.475,3.127,3,4.629,4.52Zm-9.365-8.8c-1.6-1.4-3.261-2.782-4.929-4.12l.67-.841c1.676,1.348,3.345,2.744,4.959,4.146Zm-10.009-8.051c-1.708-1.271-3.465-2.527-5.224-3.735l.6-.888c1.772,1.217,3.54,2.481,5.258,3.759Zm-10.581-7.274c-1.8-1.137-3.638-2.264-5.483-3.344l.539-.927c1.853,1.084,3.711,2.215,5.515,3.361ZM-896.391,399c-1.855-1-3.773-1.993-5.7-2.95l.473-.963c1.939.961,3.869,1.961,5.733,2.965Zm-11.5-5.707c-1.939-.882-3.919-1.746-5.885-2.563l.409-.993c1.978.824,3.968,1.69,5.918,2.578Zm-11.85-4.939c-1.992-.759-4.024-1.5-6.035-2.2l.349-1.017c2.022.7,4.064,1.443,6.065,2.206Z" transform="translate(925.775 -385.146)" fill="#4b4b4b"></path></g><g id="Grupo_355" data-name="Grupo 355" transform="translate(0)"><path id="Trazado_419" data-name="Trazado 419" d="M-926.989,385.735q-1.531-.481-3.082-.941l.306-1.034q1.561.465,3.1.946Z" transform="translate(930.071 -383.76)" fill="#4b4b4b"></path></g></g><ellipse id="Elipse_15" data-name="Elipse 15" cx="4.135" cy="4.135" rx="4.135" ry="4.135" transform="translate(1223.862 770.441)" fill="#4b4b4b"></ellipse><ellipse id="Elipse_17" data-name="Elipse 17" cx="3.544" cy="3.544" rx="3.544" ry="3.544" transform="translate(1248.673 883.861)" fill="#4b4b4b"></ellipse><g id="Grupo_358" data-name="Grupo 358" transform="translate(1254.966 886.448) rotate(-31)"><g id="Grupo_354-2" data-name="Grupo 354"><path id="Trazado_418-2" data-name="Trazado 418" d="M57.133,119.569c-.269-1.972-.584-8.676-.9-10.608l.8-.191c.313,1.942.63,8.656.9,10.636Zm-1.913-16.456c-.36-1.932-.75-3.886-1.16-5.806l.795-.249c.41,1.93.8,3.894,1.163,5.834ZM52.758,91.547c-.459-1.916-.947-3.836-1.448-5.71l.778-.306c.5,1.882,1,3.812,1.457,5.736ZM49.715,80.192c-.555-1.87-1.142-3.746-1.743-5.581l.76-.37c.606,1.844,1.194,3.733,1.753,5.613ZM46.078,69.1c-.652-1.811-1.34-3.637-2.045-5.428l.739-.428c.71,1.8,1.4,3.635,2.056,5.456ZM41.837,58.33c-.759-1.765-1.55-3.53-2.349-5.241l.711-.49c.806,1.721,1.6,3.492,2.364,5.273ZM36.986,47.953c-.854-1.679-1.747-3.371-2.656-5.02l.682-.551c.914,1.659,1.812,3.359,2.672,5.052Zm-5.461-9.911c-.96-1.612-1.955-3.211-2.956-4.761l.646-.613c1.006,1.558,2.007,3.172,2.974,4.791Zm-6.057-9.383c-1.049-1.5-2.14-3.006-3.247-4.473l.6-.672c1.114,1.476,2.214,2.992,3.267,4.5Zm-6.634-8.792c-1.142-1.4-2.327-2.8-3.521-4.154l.56-.726c1.2,1.365,2.394,2.772,3.544,4.182Zm-7.17-8.14c-1.229-1.291-2.5-2.575-3.773-3.812L8.4,7.137c1.283,1.247,2.561,2.539,3.8,3.836ZM4,4.278C2.692,3.1,1.347,1.94,0,.822L.462,0c1.357,1.126,2.71,2.3,4.026,3.478Z" fill="#4b4b4b"></path></g></g><ellipse id="Elipse_18" data-name="Elipse 18" cx="3.544" cy="3.544" rx="3.544" ry="3.544" transform="translate(1298.294 911.035)" fill="#4b4b4b"></ellipse><g id="Grupo_359" data-name="Grupo 359" transform="matrix(-0.999, 0.052, -0.052, -0.999, 1365.673, 961.761)"><g id="Grupo_354-3" data-name="Grupo 354" transform="translate(9.253 2.985)"><path id="Trazado_418-3" data-name="Trazado 418" d="M51.393,46.318c-1.089-1.577-2.218-3.151-3.356-4.677l.534-.818c1.146,1.537,2.282,3.12,3.378,4.708Zm-6.835-9.163c-1.171-1.454-2.38-2.9-3.6-4.291l.489-.876c1.223,1.4,2.441,2.858,3.619,4.318Zm-7.3-8.386c-1.246-1.324-2.529-2.632-3.813-3.89l.44-.925c1.293,1.268,2.583,2.585,3.838,3.915Zm-7.722-7.577c-1.311-1.185-2.655-2.358-4-3.483l.394-.965c1.353,1.129,2.708,2.307,4.025,3.5Zm-8.086-6.757c-1.354-1.044-2.754-2.076-4.161-3.073l.345-1c1.415,1,2.824,2.043,4.184,3.089ZM13.053,8.491c-1.415-.918-2.86-1.819-4.3-2.67l.3-1.035c1.443.858,2.9,1.76,4.319,2.685ZM4.4,3.346C2.951,2.555,1.468,1.785,0,1.059L.255,0C1.731.73,3.221,1.5,4.681,2.3Z" fill="#4b4b4b"></path></g><g id="Grupo_355-2" data-name="Grupo 355" transform="translate(0 0)"><path id="Trazado_419-2" data-name="Trazado 419" d="M3.082,1.975Q1.551,1.494,0,1.034L.306,0Q1.867.465,3.4.946Z" fill="#4b4b4b"></path></g></g></g></svg> 