<?xml version="1.0" encoding="UTF-8"?> <svg xmlns="http://www.w3.org/2000/svg" width="104" height="104" viewBox="0 0 104 104"><g id="Grupo_399" data-name="Grupo 399" transform="translate(-0.275 -0.46)"><rect id="Rectángulo_192" data-name="Rectángulo 192" width="104" height="104" transform="translate(0.275 0.46)" fill="none"></rect><g id="beer" transform="translate(23.014 10.356)"><g id="Grupo_110" data-name="Grupo 110" transform="translate(0 0)"><g id="Grupo_109" data-name="Grupo 109"><path id="Trazado_195" data-name="Trazado 195" d="M318.626,179.877H310.89a1.757,1.757,0,0,0-1.757,1.757v.64a4.226,4.226,0,0,1-2.422,3.837l-3.657-13.647h2.509a1.757,1.757,0,1,0,0-3.514h-3.531a9.249,9.249,0,0,1-1.3-.094h0a9.222,9.222,0,0,1-7.9-9.115v-3.956a1.757,1.757,0,0,0-1.757-1.757H286.49a5.692,5.692,0,0,1-5.687-5.685v-.25h13.9a11.8,11.8,0,0,1,6.513,1.949,1.757,1.757,0,0,0,1.935-2.934,15.286,15.286,0,0,0-7.814-2.515,22.028,22.028,0,0,0-8.5-8.872c-.524-1.94-1.25-4.428-1.99-6.821-.574-1.85-1.36-4.3-2.089-6.265a5.681,5.681,0,0,0-5.76-9.219l-7.839,2.1a5.685,5.685,0,0,0-.379,10.866c.16.939.371,2.043.632,3.3a1.757,1.757,0,0,0,3.441-.713c-.368-1.775-.632-3.219-.785-4.293a1.758,1.758,0,0,0-1.6-1.5,2.173,2.173,0,0,1-.4-4.261l7.837-2.1A2.17,2.17,0,0,1,279.7,120.7a1.757,1.757,0,0,0-.636,2.1c.628,1.562,1.469,4.031,2.433,7.138.817,2.641,1.614,5.395,2.132,7.366a1.759,1.759,0,0,0,.809,1.068,21.212,21.212,0,0,1,6.88,6.205h-11.77a2.257,2.257,0,0,0-2.254,2.254v1.51a9.139,9.139,0,0,0,1.039,4.239,14.056,14.056,0,0,0-1.482,1.191,6.144,6.144,0,0,0-4.48-2.381c-.026-.322-.043-.649-.043-.983a20.276,20.276,0,0,1,2.878-9.561,1.758,1.758,0,0,0,.166-1.328c-.309-1.133-.673-2.558-1.026-4.011a1.757,1.757,0,0,0-3.415.829c.292,1.2.592,2.389.864,3.415a23.253,23.253,0,0,0-2.983,10.655c0,.327.013.649.033.97h-.935a6.15,6.15,0,0,0-1.293,12.162,6.141,6.141,0,0,0,2.612,8.208,6.139,6.139,0,0,0,1.888,8.559,6.145,6.145,0,0,0,5,9.728h2.784l1.316,4.911a4.149,4.149,0,0,0,5.083,2.934l18.918-5.068a4.151,4.151,0,0,0,2.976-3.123,7.715,7.715,0,0,0,5.381-6.3h6.058a1.757,1.757,0,1,0,0-3.514Zm-40.5-22.35a0,0,0,0,0,0,0,10.509,10.509,0,0,1,2.39-2.192,9.16,9.16,0,0,0,5.969,2.207h2.818v2.2a12.744,12.744,0,0,0,9.409,12.283,10.48,10.48,0,0,1-12.858,9.492,6.186,6.186,0,0,0-2.409-2.837,6.141,6.141,0,0,0-2.123-9.013,6.144,6.144,0,0,0-3.86-9.364A6.111,6.111,0,0,0,278.131,157.527Zm-10.223,2.636a2.636,2.636,0,1,1,0-5.272h4.073a2.636,2.636,0,0,1,0,5.272Zm1.558,6.15a2.639,2.639,0,0,1,2.636-2.636h4.074a2.636,2.636,0,0,1,0,5.272H272.1A2.639,2.639,0,0,1,269.465,166.313Zm2.278,8.786a2.639,2.639,0,0,1,2.636-2.636h4.074a2.636,2.636,0,1,1,0,5.272h-4.074A2.639,2.639,0,0,1,271.743,175.1Zm8.444,11.422h-4.077a2.636,2.636,0,0,1,0-5.272h4.074a2.636,2.636,0,0,1,0,5.272Zm23.114,2.9-18.918,5.068a.637.637,0,0,1-.779-.449l-1.185-4.423a6.172,6.172,0,0,0,3.782-4.457,13.85,13.85,0,0,0,2.052.154,13.992,13.992,0,0,0,12.525-7.762l2.972,11.091A.637.637,0,0,1,303.3,189.418Z" transform="translate(-261.757 -113.218)" fill="rgba(100,19,125,0.8)"></path></g></g><g id="Grupo_112" data-name="Grupo 112" transform="translate(43.257 38.68)"><g id="Grupo_111" data-name="Grupo 111"><path id="Trazado_196" data-name="Trazado 196" d="M460.011,284.469H451.33a15.37,15.37,0,0,0-1.615-5.2,1.757,1.757,0,1,0-3.116,1.625c1.833,3.515,1.21,6.316,1.335,8.1a1.757,1.757,0,0,0,3.514,0v-1.01h8.563a1.757,1.757,0,0,0,0-3.514Z" transform="translate(-446.4 -278.323)" fill="rgba(100,19,125,0.8)"></path></g></g></g></g></svg> 