<?xml version="1.0" encoding="UTF-8"?> <svg xmlns="http://www.w3.org/2000/svg" width="121" height="121" viewBox="0 0 121 121"><g id="Grupo_395" data-name="Grupo 395" transform="translate(-5453 -5066)"><rect id="Rectángulo_190" data-name="Rectángulo 190" width="121" height="121" transform="translate(5453 5066)" fill="none"></rect><g id="sachet" transform="translate(5480 5087)"><g id="Grupo_132" data-name="Grupo 132" transform="translate(41.845 27.745)"><g id="Grupo_131" data-name="Grupo 131"><path id="Trazado_234" data-name="Trazado 234" d="M312.828,176c-4.867,0-8.828,5.092-8.828,11.35s3.961,11.35,8.828,11.35,8.828-5.091,8.828-11.35S317.695,176,312.828,176ZM311.7,192.958a8.664,8.664,0,0,1,1.057,3.215c-3.443-.054-6.234-3.989-6.234-8.823s2.791-8.769,6.235-8.823a8.671,8.671,0,0,1-1.057,3.215,11.977,11.977,0,0,0,0,11.216Zm3.517,2.558a11.216,11.216,0,0,0-1.261-3.685,9.463,9.463,0,0,1,0-8.962,11.256,11.256,0,0,0,1.261-3.685c2.294,1.322,3.916,4.482,3.916,8.166S317.512,194.194,315.216,195.516Z" transform="translate(-304 -176)" fill="#64137d"></path></g></g><g id="Grupo_134" data-name="Grupo 134" transform="translate(41.845 12.611)"><g id="Grupo_133" data-name="Grupo 133"><rect id="Rectángulo_62" data-name="Rectángulo 62" width="17.656" height="2.522" fill="#64137d"></rect></g></g><g id="Grupo_136" data-name="Grupo 136" transform="translate(41.845 17.656)"><g id="Grupo_135" data-name="Grupo 135"><rect id="Rectángulo_63" data-name="Rectángulo 63" width="17.656" height="2.522" fill="#64137d"></rect></g></g><g id="Grupo_138" data-name="Grupo 138" transform="translate(41.845 22.7)"><g id="Grupo_137" data-name="Grupo 137"><rect id="Rectángulo_64" data-name="Rectángulo 64" width="17.656" height="2.522" fill="#64137d"></rect></g></g><g id="Grupo_140" data-name="Grupo 140" transform="translate(41.845 52.967)"><g id="Grupo_139" data-name="Grupo 139"><rect id="Rectángulo_65" data-name="Rectángulo 65" width="17.656" height="2.522" fill="#64137d"></rect></g></g><g id="Grupo_142" data-name="Grupo 142" transform="translate(41.845 58.011)"><g id="Grupo_141" data-name="Grupo 141"><rect id="Rectángulo_66" data-name="Rectángulo 66" width="17.656" height="2.522" fill="#64137d"></rect></g></g><g id="Grupo_144" data-name="Grupo 144" transform="translate(41.845 63.056)"><g id="Grupo_143" data-name="Grupo 143"><rect id="Rectángulo_67" data-name="Rectángulo 67" width="17.656" height="2.522" fill="#64137d"></rect></g></g><g id="Grupo_146" data-name="Grupo 146" transform="translate(35.311)"><g id="Grupo_145" data-name="Grupo 145"><path id="Trazado_235" data-name="Trazado 235" d="M291.786,8.933,293.275,0H275.094l-4.5,2.249L268.347,0h-5.795l1.489,8.933V69.257l-1.489,8.933h30.722l-1.488-8.933Zm-5.044,66.735V73.145h-2.522v2.522H281.7V73.145h-2.522v2.522h-2.522V73.145H274.13v2.522h-2.522V73.145h-2.522v2.522h-3.555l.84-5.044h23.1l.826,5.044ZM266.547,68.1l.016-58.011h22.718L289.264,68.1Zm22.91-60.534h-23.1l-.826-5.044H267.3l2.8,2.8,5.591-2.8H290.3Z" transform="translate(-262.552)" fill="#64137d"></path></g></g><g id="Grupo_148" data-name="Grupo 148" transform="translate(6.534 27.745)"><g id="Grupo_147" data-name="Grupo 147" transform="translate(0)"><path id="Trazado_236" data-name="Trazado 236" d="M88.828,176C83.961,176,80,181.092,80,187.35s3.961,11.35,8.828,11.35,8.828-5.091,8.828-11.35S93.695,176,88.828,176ZM87.7,192.958a8.663,8.663,0,0,1,1.057,3.215c-3.443-.054-6.234-3.989-6.234-8.823s2.791-8.769,6.235-8.823a8.671,8.671,0,0,1-1.057,3.215,11.977,11.977,0,0,0,0,11.216Zm3.517,2.558a11.215,11.215,0,0,0-1.261-3.685,9.463,9.463,0,0,1,0-8.962,11.255,11.255,0,0,0,1.261-3.685c2.294,1.322,3.916,4.482,3.916,8.166S93.512,194.194,91.216,195.516Z" transform="translate(-80 -176)" fill="#64137d"></path></g></g><g id="Grupo_150" data-name="Grupo 150" transform="translate(6.534 63.056)"><g id="Grupo_149" data-name="Grupo 149" transform="translate(0)"><rect id="Rectángulo_68" data-name="Rectángulo 68" width="17.656" height="2.522" fill="#64137d"></rect></g></g><g id="Grupo_152" data-name="Grupo 152" transform="translate(6.534 58.011)"><g id="Grupo_151" data-name="Grupo 151" transform="translate(0)"><rect id="Rectángulo_69" data-name="Rectángulo 69" width="17.656" height="2.522" fill="#64137d"></rect></g></g><g id="Grupo_154" data-name="Grupo 154" transform="translate(6.534 52.967)"><g id="Grupo_153" data-name="Grupo 153" transform="translate(0)"><rect id="Rectángulo_70" data-name="Rectángulo 70" width="17.656" height="2.522" fill="#64137d"></rect></g></g><g id="Grupo_156" data-name="Grupo 156" transform="translate(6.534 22.7)"><g id="Grupo_155" data-name="Grupo 155" transform="translate(0)"><rect id="Rectángulo_71" data-name="Rectángulo 71" width="17.656" height="2.522" fill="#64137d"></rect></g></g><g id="Grupo_158" data-name="Grupo 158" transform="translate(6.534 17.656)"><g id="Grupo_157" data-name="Grupo 157" transform="translate(0)"><rect id="Rectángulo_72" data-name="Rectángulo 72" width="17.656" height="2.522" fill="#64137d"></rect></g></g><g id="Grupo_160" data-name="Grupo 160" transform="translate(6.534 12.611)"><g id="Grupo_159" data-name="Grupo 159" transform="translate(0)"><rect id="Rectángulo_73" data-name="Rectángulo 73" width="17.656" height="2.522" fill="#64137d"></rect></g></g><g id="Grupo_162" data-name="Grupo 162" transform="translate(0)"><g id="Grupo_161" data-name="Grupo 161"><path id="Trazado_237" data-name="Trazado 237" d="M67.786,8.933,69.275,0H38.552l1.489,8.933V69.257l-1.489,8.933h5.795L46.6,75.941l4.5,2.249H69.275l-1.489-8.933Zm-16.1,66.735-5.592-2.8-2.795,2.8H41.531l.84-5.044h23.1l.826,5.044ZM42.547,68.1l.016-58.011H65.281L65.264,68.1ZM65.457,7.567h-23.1l-.826-5.044h3.555V5.044h2.522V2.522H50.13V5.044h2.522V2.522h2.522V5.044H57.7V2.522h2.522V5.044h2.522V2.522H66.3Z" transform="translate(-38.552)" fill="#64137d"></path></g></g></g></g></svg> 