<?xml version="1.0" encoding="UTF-8"?> <svg xmlns="http://www.w3.org/2000/svg" width="105" height="104" viewBox="0 0 105 104"><g id="Grupo_400" data-name="Grupo 400" transform="translate(0.216 -0.254)"><rect id="Rectángulo_191" data-name="Rectángulo 191" width="105" height="104" transform="translate(-0.216 0.254)" fill="none"></rect><g id="_360" data-name="360" transform="translate(14.959 26.466)"><path id="Trazado_191" data-name="Trazado 191" d="M144.188,70.479a2.432,2.432,0,0,0,1.913-2.367c0-1.626-1.461-2.83-3.9-2.83a5.071,5.071,0,0,0-4.062,1.84l1.447,1.565a3.327,3.327,0,0,1,2.349-1.1c.934,0,1.551.377,1.551,1.009,0,.6-.559.948-1.6.934h-1.222V71.7l1.219-.015c1.31,0,1.808.329,1.808.978,0,.6-.573,1.039-1.612,1.039a3.778,3.778,0,0,1-2.681-1.129l-1.475,1.7a5.612,5.612,0,0,0,4.29,1.73c2.5,0,4.111-1.3,4.111-3.118A2.516,2.516,0,0,0,144.188,70.479Zm0,0" transform="translate(-115.253 -54.602)" fill="rgba(100,19,125,0.8)"></path><path id="Trazado_192" data-name="Trazado 192" d="M209.748,69.073a3.926,3.926,0,0,0-2.4.813c.226-1.46,1.009-2.334,2.229-2.334a3.072,3.072,0,0,1,2.048.783l1.19-1.942a5.153,5.153,0,0,0-3.252-1.084c-3.024,0-4.939,2.259-4.939,5.541,0,3.042,1.46,5.165,4.547,5.165,2.3,0,4.065-1.447,4.065-3.629a3.275,3.275,0,0,0-3.494-3.313Zm-.724,4.759c-1.052,0-1.506-.557-1.672-1.7a1.74,1.74,0,0,1,1.612-.994,1.466,1.466,0,0,1,1.644,1.356,1.423,1.423,0,0,1-1.582,1.34Zm0,0" transform="translate(-170.992 -54.626)" fill="rgba(100,19,125,0.8)"></path><path id="Trazado_193" data-name="Trazado 193" d="M278.275,65.313c-2.787,0-4.759,2.213-4.759,5.345,0,3.148,1.973,5.361,4.759,5.361s4.758-2.213,4.758-5.361C283.033,67.526,281.075,65.313,278.275,65.313Zm0,8.372c-1.235,0-2.109-1.264-2.109-3.024s.874-3.011,2.109-3.011S280.4,68.9,280.4,70.66s-.873,3.024-2.122,3.024Zm0,0" transform="translate(-228.555 -54.63)" fill="rgba(100,19,125,0.8)"></path><path id="Trazado_194" data-name="Trazado 194" d="M38.576.324H37.311C22.457.324,0,6.3,0,15.3V40.835C0,47.921,10,51.7,17.223,51.7a1.315,1.315,0,0,0,1.315-1.315V32.027a62.777,62.777,0,0,1,19.4-3.074,66.293,66.293,0,0,1,19.4,3.077V50.381A1.315,1.315,0,0,0,58.663,51.7c7.221,0,17.223-3.774,17.223-10.861V15.3C75.886,6.3,53.43.324,38.576.324Zm-22.667,48.7C9.978,48.62,2.63,45.58,2.63,40.838V21.02c.192.2.394.39.608.579.048.043.1.085.147.127q.377.328.789.641c.038.028.073.057.11.085.3.22.618.432.946.638l.22.135c.334.2.68.4,1.042.584.053.027.108.052.161.078q.513.257,1.063.49c.065.027.126.056.191.082.394.162.805.313,1.226.456.091.031.182.06.274.089.434.14.878.272,1.338.388l.119.028c.44.109.893.205,1.356.292.089.017.178.035.268.05q.723.128,1.485.215c.1.012.207.022.31.033.53.055,1.068.1,1.622.125V49.023Zm22.035-22.7a66.3,66.3,0,0,0-19.4,2.931v-4.4a1.315,1.315,0,0,0-1.315-1.315c-7.142,0-11.78-2.692-13.653-5.494A5.034,5.034,0,0,1,2.63,15.3c0-6.241,19.857-12.345,34.681-12.345h1.265c14.823,0,34.681,6.1,34.681,12.345,0,3.454-5.071,8.238-14.593,8.238a1.315,1.315,0,0,0-1.315,1.315v4.406A70.2,70.2,0,0,0,37.943,26.323ZM73.256,40.835c0,4.742-7.348,7.782-13.278,8.185V26.141c.552-.025,1.088-.07,1.616-.125l.313-.033q.758-.089,1.481-.214l.273-.052c.46-.086.911-.182,1.348-.291l.124-.029c.46-.116.9-.248,1.334-.388.094-.03.186-.06.278-.091.421-.143.83-.293,1.223-.455l.2-.084q.546-.231,1.058-.487c.055-.027.111-.053.165-.08.361-.185.706-.381,1.04-.582l.223-.137c.329-.205.645-.417.944-.636.039-.028.074-.058.112-.087q.415-.311.789-.64c.049-.042.1-.084.148-.127.211-.19.416-.382.607-.58Zm0,0" transform="translate(0 -0.324)" fill="rgba(100,19,125,0.8)"></path></g></g></svg> 