<?xml version="1.0" encoding="UTF-8"?> <svg xmlns="http://www.w3.org/2000/svg" width="105" height="105" viewBox="0 0 105 105"><g id="Grupo_380" data-name="Grupo 380" transform="translate(2070 -266)"><rect id="Rectángulo_166" data-name="Rectángulo 166" width="105" height="105" transform="translate(-2070 266)" fill="none"></rect><g id="pills" transform="translate(-2045.975 296)" opacity="0.7"><g id="Grupo_287" data-name="Grupo 287" transform="translate(5.975 0)"><g id="Grupo_286" data-name="Grupo 286" transform="translate(0 0)"><path id="Trazado_336" data-name="Trazado 336" d="M34.943,6.662A8.946,8.946,0,0,0,26.3,0a9.022,9.022,0,0,0-7.8,4.484l-5.659,9.8,0,0v0l-5.659,9.8a8.98,8.98,0,0,0,15.114,9.667q.023-.033.043-.067L34.051,13.465A8.9,8.9,0,0,0,34.943,6.662Zm-14.136,26.1A7.192,7.192,0,0,1,8.726,24.985l5.213-9.03,1.936,1.117h0l10.5,6.065ZM32.5,12.569l-5.227,9.023-9.733-5.62,2.5-4.333a.894.894,0,1,0-1.549-.894l-2.5,4.333-1.162-.671,5.213-9.029A7.229,7.229,0,0,1,26.3,1.788,7.195,7.195,0,0,1,32.5,12.569Z" transform="translate(-5.975 0)" fill="#64137d"></path></g></g><g id="Grupo_289" data-name="Grupo 289" transform="translate(26.645 29.686)"><g id="Grupo_288" data-name="Grupo 288"><path id="Trazado_337" data-name="Trazado 337" d="M257.263,332.968a34.458,34.458,0,0,0-16.215,0c-2.594.741-3.911,1.785-3.914,3.1,0,0,0,0,0,0v7.948c0,1.321,1.315,2.367,3.908,3.108a34.572,34.572,0,0,0,16.228,0c2.593-.741,3.908-1.787,3.908-3.108V336.08s0,0,0-.006C261.177,334.755,259.86,333.71,257.263,332.968Zm-15.724,1.72a32.729,32.729,0,0,1,15.233,0c2.156.616,2.614,1.278,2.617,1.385h0v0c0,.109-.463.77-2.617,1.385a32.728,32.728,0,0,1-15.233,0c-2.162-.618-2.617-1.281-2.617-1.386S239.377,335.306,241.539,334.688Zm17.85,9.335c0,.128-.465.775-2.611,1.388a32.843,32.843,0,0,1-15.245,0c-2.146-.613-2.611-1.261-2.611-1.388v-5.661a11,11,0,0,0,2.126.819,34.459,34.459,0,0,0,16.215,0,11,11,0,0,0,2.126-.819v2.232a18.764,18.764,0,0,1-4.668,1.5.894.894,0,1,0,.341,1.755,21.8,21.8,0,0,0,4.327-1.286v1.464Z" transform="translate(-237.134 -332.001)" fill="#64137d"></path></g></g><g id="Grupo_291" data-name="Grupo 291" transform="translate(19.705 7.971)"><g id="Grupo_290" data-name="Grupo 290"><path id="Trazado_338" data-name="Trazado 338" d="M160.876,89.265a.894.894,0,0,0-1.221.327l-.014.025a.894.894,0,1,0,1.549.894l.014-.025A.894.894,0,0,0,160.876,89.265Z" transform="translate(-159.52 -89.145)" fill="#64137d"></path></g></g><g id="Grupo_293" data-name="Grupo 293" transform="translate(40.804 40.144)"><g id="Grupo_292" data-name="Grupo 292"><path id="Trazado_339" data-name="Trazado 339" d="M397.294,449.761a.894.894,0,0,0-.979-.8l-.02,0a.894.894,0,0,0,.083,1.784c.028,0,.057,0,.085,0l.029,0A.894.894,0,0,0,397.294,449.761Z" transform="translate(-395.486 -448.956)" fill="#64137d"></path></g></g></g></g></svg> 