<?xml version="1.0" encoding="UTF-8"?> <svg xmlns="http://www.w3.org/2000/svg" width="89" height="89" viewBox="0 0 89 89"><g id="Grupo_407" data-name="Grupo 407" transform="translate(-6036 -4571)"><rect id="Rectángulo_201" data-name="Rectángulo 201" width="89" height="89" transform="translate(6036 4571)" fill="none"></rect><g id="phone-call_3_" data-name="phone-call (3)" transform="translate(6050 4585)" opacity="0.677"><path id="Trazado_150" data-name="Trazado 150" d="M49.382,61.442a26.388,26.388,0,0,1-9.039-1.922C32.9,56.714,24.8,51.167,17.537,43.9S4.727,28.54,1.918,21.1C-.634,14.328-.64,8.773,1.9,6.231c.366-.366.738-.758,1.122-1.163C5.347,2.627,7.969-.12,11.445,0c2.4.1,4.716,1.587,7.093,4.544C25.56,13.282,22.394,16.394,18.73,20l-.647.641c-.6.6-1.732,3.375,8.8,13.91A58.42,58.42,0,0,0,35.6,42.033c1.476.959,4.115,2.41,5.2,1.327l.651-.657c3.6-3.656,6.716-6.812,15.444.2,2.957,2.377,4.443,4.7,4.542,7.095.143,3.474-2.625,6.1-5.067,8.421-.4.384-.8.756-1.161,1.12C53.945,60.808,51.926,61.442,49.382,61.442ZM11.2,2.067c-2.47,0-4.7,2.348-6.673,4.425-.4.417-.781.823-1.159,1.2-1.9,1.893-1.7,6.867.488,12.677C6.56,27.544,11.939,35.384,19,42.446S33.9,54.883,41.074,57.588c5.809,2.195,10.784,2.381,12.674.49.378-.378.783-.763,1.2-1.157,2.122-2.017,4.53-4.3,4.425-6.838-.072-1.742-1.341-3.617-3.772-5.569-7.272-5.848-9.306-3.784-12.679-.364l-.661.668c-1.612,1.614-4.23,1.256-7.785-1.054a60.344,60.344,0,0,1-9.05-7.752c-8.744-8.742-11.54-14.092-8.8-16.835l.659-.651c3.428-3.373,5.5-5.408-.353-12.685-1.957-2.428-3.829-3.7-5.572-3.772C11.3,2.067,11.251,2.067,11.2,2.067Z" transform="translate(0 0)" fill="#64137d" stroke="#64137d" stroke-width="1"></path></g></g></svg> 