<?xml version="1.0" encoding="UTF-8"?> <svg xmlns="http://www.w3.org/2000/svg" width="121" height="121" viewBox="0 0 121 121"><g id="Grupo_391" data-name="Grupo 391" transform="translate(-5292 -4898)"><rect id="Rectángulo_186" data-name="Rectángulo 186" width="121" height="121" transform="translate(5292 4898)" fill="none"></rect><g id="enterprise" transform="translate(5314 4919)"><path id="Trazado_216" data-name="Trazado 216" d="M49.3,118.108H88.315a1.3,1.3,0,0,0,1.3-1.3V97.3a1.3,1.3,0,0,0-1.3-1.3H49.3A1.3,1.3,0,0,0,48,97.3v19.507A1.3,1.3,0,0,0,49.3,118.108ZM70.108,98.6H87.014v16.906H70.108ZM50.6,98.6H67.507v16.906H50.6Zm0,0" transform="translate(-40.197 -80.394)" fill="#64137d"></path><path id="Trazado_217" data-name="Trazado 217" d="M49.3,334.108H88.315a1.3,1.3,0,0,0,1.3-1.3V313.3a1.3,1.3,0,0,0-1.3-1.3H49.3a1.3,1.3,0,0,0-1.3,1.3v19.507A1.3,1.3,0,0,0,49.3,334.108ZM70.108,314.6H87.014v16.906H70.108Zm-19.507,0H67.507v16.906H50.6Zm0,0" transform="translate(-40.197 -261.281)" fill="#64137d"></path><path id="Trazado_218" data-name="Trazado 218" d="M57.221,45.517h-2.6V7.8h1.3a1.3,1.3,0,0,0,1.3-1.3V1.3a1.3,1.3,0,0,0-1.3-1.3H1.3A1.3,1.3,0,0,0,0,1.3V6.5A1.3,1.3,0,0,0,1.3,7.8H2.6V76.728a1.3,1.3,0,0,0,1.3,1.3H74.127a1.3,1.3,0,0,0,1.3-1.3V48.118h2.6v-2.6Zm-5.2,29.911H5.2V48.118H52.019Zm0-29.911H5.2v-2.6H52.019Zm0-5.2H5.2V7.8H52.019ZM3.9,5.2H2.6V2.6H54.62V5.2ZM67.625,65.024h-2.6v2.6h2.6v7.8h-7.8V55.921h7.8Zm5.2,10.4h-2.6V54.62a1.3,1.3,0,0,0-1.3-1.3h-10.4a1.3,1.3,0,0,0-1.3,1.3V75.428h-2.6V48.118H72.827Zm0,0" fill="#64137d"></path><path id="Trazado_220" data-name="Trazado 220" d="M202.34,140.748l10.4-10.4,1.839,1.839-10.4,10.4Zm0,0" transform="translate(-169.448 -109.155)" fill="#64137d"></path><path id="Trazado_222" data-name="Trazado 222" d="M82.344,140.744l10.4-10.4,1.839,1.839-10.4,10.4Zm0,0" transform="translate(-68.958 -109.152)" fill="#64137d"></path><path id="Trazado_224" data-name="Trazado 224" d="M202.34,356.744l10.4-10.4,1.839,1.84-10.4,10.4Zm0,0" transform="translate(-169.448 -290.039)" fill="#64137d"></path><path id="Trazado_226" data-name="Trazado 226" d="M82.344,356.744l10.4-10.4,1.84,1.839-10.4,10.4Zm0,0" transform="translate(-68.958 -290.039)" fill="#64137d"></path></g></g></svg> 