<?xml version="1.0" encoding="UTF-8"?> <svg xmlns="http://www.w3.org/2000/svg" width="105" height="104" viewBox="0 0 105 104"><g id="Grupo_398" data-name="Grupo 398" transform="translate(0.069 -0.46)"><rect id="Rect치ngulo_193" data-name="Rect치ngulo 193" width="105" height="104" transform="translate(-0.069 0.46)" fill="none"></rect><g id="Grupo_397" data-name="Grupo 397" transform="translate(33.371 11.507)"><g id="vodka" transform="translate(0 0)"><path id="Sustracci칩n_2" data-name="Sustracci칩n 2" d="M29.192,82.016H9.731A9.742,9.742,0,0,1,0,72.285V31.973A15.21,15.21,0,0,1,12.511,16.936V10.865a4.18,4.18,0,0,1-2.78-3.914V4.171A4.175,4.175,0,0,1,13.9,0h11.12a4.175,4.175,0,0,1,4.171,4.171v2.78a4.177,4.177,0,0,1-2.78,3.914v6.071A15.209,15.209,0,0,1,38.923,31.973V72.285a9.741,9.741,0,0,1-9.731,9.731Zm-14.711-71.2v8.594a1.386,1.386,0,0,1-.442.12A12.408,12.408,0,0,0,2.78,31.973V72.285a6.971,6.971,0,0,0,6.951,6.951H29.192a6.97,6.97,0,0,0,6.951-6.951V31.973A12.408,12.408,0,0,0,24.884,19.532a1.4,1.4,0,0,1-.248-.048V10.812ZM13.9,2.78a1.392,1.392,0,0,0-1.391,1.391v2.78A1.392,1.392,0,0,0,13.9,8.341h11.12a1.392,1.392,0,0,0,1.391-1.391V4.171A1.392,1.392,0,0,0,25.022,2.78Z" fill="rgba(100,19,125,0.8)"></path></g></g></g></svg> 