<?xml version="1.0" encoding="UTF-8"?> <svg xmlns="http://www.w3.org/2000/svg" width="105" height="105" viewBox="0 0 105 105"><g id="Grupo_378" data-name="Grupo 378" transform="translate(1370 -266)"><rect id="Rectángulo_170" data-name="Rectángulo 170" width="105" height="105" transform="translate(-1370 266)" fill="none"></rect><g id="coffee" transform="translate(-1340.5 291)"><path id="Trazado_355" data-name="Trazado 355" d="M44.364,6.439H42.541l-2.07-4.883A2.547,2.547,0,0,0,38.122,0H8.854A2.547,2.547,0,0,0,6.505,1.556L4.435,6.439H2.613A2.115,2.115,0,0,0,.5,8.551v4.8a2.115,2.115,0,0,0,2.113,2.113H3.979L9.119,52.8A2.562,2.562,0,0,0,11.647,55H35.33a2.561,2.561,0,0,0,2.528-2.2L43,15.469h1.366a2.115,2.115,0,0,0,2.113-2.113v-4.8A2.115,2.115,0,0,0,44.364,6.439ZM35.729,52.5a.4.4,0,0,1-.4.348H11.647a.4.4,0,0,1-.4-.348l-5.1-37.035H40.829Zm8.6-39.183H2.648V8.587H26.791a1.074,1.074,0,1,0,0-2.148H6.769L8.483,2.394a.4.4,0,0,1,.371-.246H38.122a.4.4,0,0,1,.371.246l1.715,4.044H35.384a1.074,1.074,0,1,0,0,2.148h8.944Zm0,0" fill="rgba(100,19,125,0.7)"></path><path id="Trazado_356" data-name="Trazado 356" d="M106.5,215.418a11.6,11.6,0,1,0,11.6-11.6A11.615,11.615,0,0,0,106.5,215.418Zm11.6-9.453a9.453,9.453,0,1,1-9.453,9.453A9.464,9.464,0,0,1,118.1,205.965Zm0,0" transform="translate(-94.613 -181.922)" fill="rgba(100,19,125,0.7)"></path><path id="Trazado_357" data-name="Trazado 357" d="M148.64,256.286a7.3,7.3,0,1,0-2.14-5.165A7.256,7.256,0,0,0,148.64,256.286Zm8.811-1.519a5.154,5.154,0,0,1-6.837.4A3.2,3.2,0,0,1,153.8,252.2a5.353,5.353,0,0,0,4.793-2.979,5.162,5.162,0,0,1-1.147,5.551Zm-7.292-7.292a5.154,5.154,0,0,1,6.837-.4,3.2,3.2,0,0,1-3.191,2.975,5.353,5.353,0,0,0-4.793,2.979,5.162,5.162,0,0,1,1.147-5.551Zm0,0" transform="translate(-130.316 -217.625)" fill="rgba(100,19,125,0.7)"></path><path id="Trazado_358" data-name="Trazado 358" d="M276.313,59.941a1.074,1.074,0,1,0,.76.315A1.082,1.082,0,0,0,276.313,59.941Zm0,0" transform="translate(-245.225 -53.502)" fill="rgba(100,19,125,0.7)"></path></g></g></svg> 