<?xml version="1.0" encoding="UTF-8"?> <svg xmlns="http://www.w3.org/2000/svg" width="89" height="89" viewBox="0 0 89 89"><g id="Grupo_406" data-name="Grupo 406" transform="translate(-6175 -4571)"><rect id="Rectángulo_202" data-name="Rectángulo 202" width="89" height="89" transform="translate(6175 4571)" fill="none"></rect><g id="mail_2_" data-name="mail (2)" transform="translate(6187 4593)" opacity="0.677"><g id="Grupo_101" data-name="Grupo 101" transform="translate(11.087 21.818)"><path id="Trazado_151" data-name="Trazado 151" d="M31.691,28.245a1.016,1.016,0,0,1-.7-.279l-11.81-11.08a1.026,1.026,0,1,1,1.406-1.494L32.4,26.472a1.026,1.026,0,0,1-.7,1.773Z" transform="translate(8.76 -15.111)" fill="#64137d" stroke="#64137d" stroke-width="1"></path><path id="Trazado_152" data-name="Trazado 152" d="M6.429,28.244a1.026,1.026,0,0,1-.7-1.773l11.815-11.08a1.026,1.026,0,1,1,1.406,1.494L7.131,27.965A1.016,1.016,0,0,1,6.429,28.244Z" transform="translate(-5.402 -15.11)" fill="#64137d" stroke="#64137d" stroke-width="1"></path></g><path id="Trazado_153" data-name="Trazado 153" d="M58.523,49.735H5.131A5.137,5.137,0,0,1,0,44.6V9.613A5.137,5.137,0,0,1,5.131,4.482H58.523a5.137,5.137,0,0,1,5.131,5.131V44.6A5.137,5.137,0,0,1,58.523,49.735ZM5.131,6.535A3.083,3.083,0,0,0,2.053,9.613V44.6a3.083,3.083,0,0,0,3.079,3.079H58.523A3.083,3.083,0,0,0,61.6,44.6V9.613a3.083,3.083,0,0,0-3.079-3.079Z" transform="translate(0 -4.482)" fill="#64137d" stroke="#64137d" stroke-width="1"></path><path id="Trazado_154" data-name="Trazado 154" d="M31.134,31.427a5.74,5.74,0,0,1-3.769-1.359L1.011,7.077A1.026,1.026,0,1,1,2.359,5.53L28.714,28.518a3.841,3.841,0,0,0,4.838,0L59.874,5.567a1.027,1.027,0,1,1,1.351,1.548L34.9,30.066A5.735,5.735,0,0,1,31.134,31.427Z" transform="translate(0.693 -3.643)" fill="#64137d" stroke="#64137d" stroke-width="1"></path></g></g></svg> 