<?xml version="1.0" encoding="UTF-8"?> <svg xmlns="http://www.w3.org/2000/svg" width="190" height="190" viewBox="0 0 190 190"><g id="Grupo_387" data-name="Grupo 387" transform="translate(1015 -1746)"><rect id="Rectángulo_176" data-name="Rectángulo 176" width="190" height="190" transform="translate(-1015 1746)" fill="none"></rect><g id="Grupo_13" data-name="Grupo 13" transform="translate(-1007 1784)" opacity="0.7"><g id="lunch-box" transform="translate(66.11)"><path id="Trazado_46" data-name="Trazado 46" d="M109.082,33.234c-.029-.064-.08-.113-.114-.175a1.817,1.817,0,0,0-.264-.4L90.83,14.816c-.023-.023-.054-.03-.077-.05a1.825,1.825,0,0,0-.5-.334,1.8,1.8,0,0,0-.647-.13c-.014,0-.025-.007-.038-.007H77.045V8.932A8.944,8.944,0,0,0,68.111,0H43.091a8.944,8.944,0,0,0-8.934,8.934v5.362H21.651c-.029,0-.05.014-.079.016a1.766,1.766,0,0,0-.6.122,1.724,1.724,0,0,0-.5.334c-.025.021-.055.029-.079.05L2.517,32.66c-.014.014-.018.032-.03.045a1.743,1.743,0,0,0-.493,1.22v78.647a1.785,1.785,0,0,0,1.787,1.787c.02,0,.034-.011.052-.011H71.677c.005,0,.013,0,.018,0s.013,0,.018,0H107.42c.005,0,.013,0,.018,0a1.781,1.781,0,0,0,.691-.143c.018-.007.029-.023.045-.03a1.809,1.809,0,0,0,.527-.35,1.746,1.746,0,0,0,.347-.524c.009-.018.025-.03.034-.048a1.8,1.8,0,0,0,.139-.708V33.943a1.8,1.8,0,0,0-.139-.709ZM22.393,17.868H85.246L70.954,32.139H8.1ZM44.877,10.72H66.322v3.574H44.877Zm60.77,97.528L91.353,93.954V20.39l14.294,14.273ZM73.482,34.667,87.78,20.39V93.954l-14.3,14.3ZM5.567,35.712H69.908v75.062H5.567Zm84,61.508,13.554,13.554H76.012ZM37.73,8.932a5.367,5.367,0,0,1,5.36-5.36h25.02a5.367,5.367,0,0,1,5.36,5.36v5.362H69.9V8.943s0-.005,0-.009a1.787,1.787,0,0,0-1.789-1.789l-.009,0h-25l-.009,0A1.787,1.787,0,0,0,41.3,8.934s0,.005,0,.009v5.351H37.73Z" transform="translate(-1.993 0.002)" fill="#64137d"></path><path id="Trazado_47" data-name="Trazado 47" d="M30.649,65.305A19.655,19.655,0,1,0,10.994,45.651,19.678,19.678,0,0,0,30.649,65.305Zm0-35.735A16.081,16.081,0,1,1,14.568,45.651,16.1,16.1,0,0,1,30.649,29.57Z" transform="translate(5.089 20.457)" fill="#64137d"></path><path id="Trazado_48" data-name="Trazado 48" d="M26.715,52.437A10.721,10.721,0,1,0,15.994,41.717,10.731,10.731,0,0,0,26.715,52.437Zm0-17.868a7.147,7.147,0,1,1-7.147,7.147A7.154,7.154,0,0,1,26.715,34.57Z" transform="translate(9.023 24.39)" fill="#64137d"></path><path id="Trazado_49" data-name="Trazado 49" d="M48.516,50H12.781a1.787,1.787,0,1,0,0,3.574H48.516a1.787,1.787,0,1,0,0-3.574Z" transform="translate(5.089 39.34)" fill="#64137d"></path><path id="Trazado_50" data-name="Trazado 50" d="M38.222,53H16.781a1.787,1.787,0,1,0,0,3.574H38.222a1.787,1.787,0,0,0,0-3.574Z" transform="translate(8.236 41.702)" fill="#64137d"></path></g><g id="food-container" transform="translate(0 21.49)"><path id="Trazado_51" data-name="Trazado 51" d="M69.363,34.463,62.8,19.407V5.647A5.653,5.653,0,0,0,57.15,0H13.969A5.653,5.653,0,0,0,8.322,5.647V19.354L.413,34.367c-.731.753-.238.4-.383,18.9a1.358,1.358,0,0,0,2.716,0V36.788H15.181v53.2H5.691a2.948,2.948,0,0,1-2.945-2.945V58.34a1.358,1.358,0,1,0-2.716,0v28.7A5.667,5.667,0,0,0,5.691,92.7H64a5.667,5.667,0,0,0,5.661-5.661C69.545,32.248,69.934,35.174,69.363,34.463ZM9.564,22.823l4.85,11.131H3.7Zm7.817,11.131L11.754,21.048h48.8l5.628,12.906ZM11.038,5.647a2.934,2.934,0,0,1,2.931-2.931H57.15a2.934,2.934,0,0,1,2.931,2.931V18.332H11.038ZM64,89.986H17.9v-53.2H66.946V87.041A2.948,2.948,0,0,1,64,89.986Zm0,0" transform="translate(0)" fill="#64137d"></path><path id="Trazado_52" data-name="Trazado 52" d="M145.851,241.766a19.554,19.554,0,1,0,19.554,19.554A19.577,19.577,0,0,0,145.851,241.766Zm0,36.393A16.838,16.838,0,1,1,162.69,261.32,16.857,16.857,0,0,1,145.851,278.158Zm0,0" transform="translate(-103.43 -197.992)" fill="#64137d"></path><path id="Trazado_53" data-name="Trazado 53" d="M201.655,314.982h9.6a1.358,1.358,0,0,0,0-2.716h-9.6a1.358,1.358,0,1,0,0,2.716Zm0,0" transform="translate(-164.031 -255.727)" fill="#64137d"></path><path id="Trazado_54" data-name="Trazado 54" d="M166.655,342.266a1.358,1.358,0,1,0,0,2.716h22.27a1.358,1.358,0,1,0,0-2.716Zm0,0" transform="translate(-135.368 -280.295)" fill="#64137d"></path><path id="Trazado_55" data-name="Trazado 55" d="M211.251,372.266h-9.6a1.358,1.358,0,1,0,0,2.716h9.6a1.358,1.358,0,0,0,0-2.716Zm0,0" transform="translate(-164.031 -304.864)" fill="#64137d"></path><path id="Trazado_56" data-name="Trazado 56" d="M136.061,29.625h-4.534a1.358,1.358,0,1,0,0,2.716h4.534a2.444,2.444,0,0,1,0,4.889h-21a2.444,2.444,0,1,1,0-4.889h11.4a1.358,1.358,0,1,0,0-2.716h-11.4a5.16,5.16,0,1,0,0,10.32h21a5.16,5.16,0,0,0,0-10.32Zm0,0" transform="translate(-90 -24.261)" fill="#64137d"></path></g></g></g></svg> 