<?xml version="1.0" encoding="UTF-8"?> <svg xmlns="http://www.w3.org/2000/svg" width="105" height="105" viewBox="0 0 105 105"><g id="Grupo_379" data-name="Grupo 379" transform="translate(1203 -266)"><rect id="Rectángulo_171" data-name="Rectángulo 171" width="105" height="105" transform="translate(-1203 266)" fill="none"></rect><g id="wine_1_" data-name="wine (1)" transform="translate(-1171 286)"><path id="Trazado_423" data-name="Trazado 423" d="M15.738,19.438a1.067,1.067,0,0,1-.8-1.026V1.067A1.067,1.067,0,0,0,13.867,0h-6.4A1.067,1.067,0,0,0,6.4,1.067V18.412a1.067,1.067,0,0,1-.805,1.026A7.466,7.466,0,0,0,0,26.667V62.933A1.067,1.067,0,0,0,1.067,64h19.2a1.067,1.067,0,0,0,1.067-1.067V26.667A7.467,7.467,0,0,0,15.738,19.438Zm-7.2-17.3H12.8V4.267H8.533Zm10.667,48H2.133V35.2H19.2ZM2.133,61.867v-9.6H19.2v9.6ZM19.2,33.067H2.133v-6.4a5.332,5.332,0,0,1,4-5.165,3.2,3.2,0,0,0,2.4-3.09V6.4H12.8V18.412a3.2,3.2,0,0,0,2.4,3.093,5.333,5.333,0,0,1,4,5.161Zm0,0" fill="rgba(100,19,125,0.7)"></path><path id="Trazado_424" data-name="Trazado 424" d="M184.3,23.852a15.986,15.986,0,0,1-2.431-8.48V1.067A1.067,1.067,0,0,0,180.8,0h-6.4a1.067,1.067,0,0,0-1.067,1.067V15.372a15.983,15.983,0,0,1-2.429,8.477l-.148.235A18.118,18.118,0,0,0,168,33.695V62.933A1.067,1.067,0,0,0,169.067,64h17.067a1.067,1.067,0,0,0,1.067-1.067V33.695a18.126,18.126,0,0,0-2.758-9.615ZM175.467,2.133h4.267V4.267h-4.267Zm9.6,59.733H170.133V33.695a15.983,15.983,0,0,1,2.429-8.477l.148-.235a18.118,18.118,0,0,0,2.756-9.611V6.4h4.267v8.972a18.126,18.126,0,0,0,2.758,9.615l.144.229a15.986,15.986,0,0,1,2.431,8.48Zm0,0" transform="translate(-145.6)" fill="rgba(100,19,125,0.7)"></path><path id="Trazado_425" data-name="Trazado 425" d="M205.333,280a5.333,5.333,0,1,0,5.333,5.333A5.334,5.334,0,0,0,205.333,280Zm0,8.533a3.2,3.2,0,1,1,3.2-3.2A3.2,3.2,0,0,1,205.333,288.533Zm0,0" transform="translate(-173.333 -242.667)" fill="rgba(100,19,125,0.7)"></path></g></g></svg> 