<?xml version="1.0" encoding="UTF-8"?> <svg xmlns="http://www.w3.org/2000/svg" width="121" height="121" viewBox="0 0 121 121"><g id="Grupo_394" data-name="Grupo 394" transform="translate(-5292 -5066)"><rect id="Rectángulo_189" data-name="Rectángulo 189" width="121" height="121" transform="translate(5292 5066)" fill="none"></rect><g id="team" transform="translate(5313 5098)"><g id="Grupo_118" data-name="Grupo 118" transform="translate(59.855 24.442)"><g id="Grupo_117" data-name="Grupo 117"><path id="Trazado_227" data-name="Trazado 227" d="M401.738,229.792c-2.655-1.327-7.633-1.343-7.844-1.343a1.143,1.143,0,1,0,0,2.286c1.285,0,5.014.2,6.822,1.1a1.143,1.143,0,0,0,1.022-2.045Z" transform="translate(-392.751 -228.449)" fill="#64137d"></path></g></g><g id="Grupo_120" data-name="Grupo 120" transform="translate(0 0)"><g id="Grupo_119" data-name="Grupo 119" transform="translate(0 0)"><path id="Trazado_228" data-name="Trazado 228" d="M74.541,110.125l-4.721-1.349a.479.479,0,0,1-.346-.459v-1.576a8.589,8.589,0,0,0,1.093-.9,8.409,8.409,0,0,0,2.574-6.083V97.588l.456-.913a7.292,7.292,0,0,0,.766-3.244v-5.89A1.143,1.143,0,0,0,73.219,86.4h-11a7.262,7.262,0,0,0-7.254,7.254v.068a6.063,6.063,0,0,0,.637,2.7l.585,1.171v1.867a8.918,8.918,0,0,0,3.666,7.211v1.651c0,.255,0,.36-.944.63l-2.3.658-6.663-2.423a1.142,1.142,0,0,0-.312-.875L47.5,104.07v-3.755c.225-.185.447-.376.662-.577a13.415,13.415,0,0,0,4.227-9.752v-3a13.212,13.212,0,0,0,1.222-5.556V69.209a1.143,1.143,0,0,0-1.143-1.143H35.362a10.932,10.932,0,0,0-10.92,10.92V81.43a13.212,13.212,0,0,0,1.222,5.556v2.58a13.966,13.966,0,0,0,4.889,10.66v3.844l-2.129,2.237a1.142,1.142,0,0,0-.312.875l-7.032,2.557a5.994,5.994,0,0,0-1.413.74l-1.1-.552a8.73,8.73,0,0,0,4.379-3.543,1.143,1.143,0,0,0,0-1.022c-.824-1.648-.924-4.669-1-7.1-.027-.808-.052-1.571-.1-2.251-.39-5.482-4.558-9.617-9.695-9.617s-9.305,4.134-9.695,9.617c-.048.68-.074,1.443-.1,2.251-.08,2.427-.18,5.447-1,7.1a1.143,1.143,0,0,0,0,1.022,8.729,8.729,0,0,0,4.383,3.541l-3.067,1.534A4.784,4.784,0,0,0,0,115.76V124.2a1.143,1.143,0,0,0,2.286,0V115.76A2.51,2.51,0,0,1,3.681,113.5l3.82-1.91,1.329,1.263a4.807,4.807,0,0,0,6.626,0l1.328-1.262,1.245.623a6.019,6.019,0,0,0-.919,3.191v8.8a1.143,1.143,0,1,0,2.286,0v-8.8a3.757,3.757,0,0,1,2.466-3.52l7.415-2.7,3.087,4.63a2.357,2.357,0,0,0,1.735,1.042q.118.012.236.012a2.356,2.356,0,0,0,1.67-.693l1.883-1.883V124.2a1.143,1.143,0,0,0,2.286,0V112.3l1.883,1.883a2.355,2.355,0,0,0,1.67.693q.117,0,.236-.012a2.357,2.357,0,0,0,1.735-1.042l3.087-4.63,7.414,2.7a3.757,3.757,0,0,1,2.466,3.52v8.8a1.143,1.143,0,1,0,2.286,0v-8.8a6.042,6.042,0,0,0-1.691-4.182l.282-.081a6.268,6.268,0,0,0,1.064-.384l2.918,2.918v10.526a1.143,1.143,0,1,0,2.286,0V113.679l2.9-2.9a2.719,2.719,0,0,0,.486.193l4.721,1.349a2.534,2.534,0,0,1,1.83,2.426v9.455a1.143,1.143,0,1,0,2.286,0V114.75A4.83,4.83,0,0,0,74.541,110.125ZM7.333,108.106a8.217,8.217,0,0,1-3.668-2.355,12.6,12.6,0,0,0,.652-2.737,8.523,8.523,0,0,0,3.017,3.722Zm6.548,3.093a2.522,2.522,0,0,1-3.477,0l-1.063-1.01a2.365,2.365,0,0,0,.278-1.116v-1.218a8.5,8.5,0,0,0,5.047,0v1.217a2.365,2.365,0,0,0,.278,1.117Zm-1.738-5.247a6.2,6.2,0,0,1-6.19-6.19,1.136,1.136,0,0,0-1.331-1.126c0-.1.007-.2.01-.294.025-.786.05-1.528.1-2.165a8.486,8.486,0,0,1,2.311-5.329,7.1,7.1,0,0,1,10.208,0,8.486,8.486,0,0,1,2.311,5.329c.045.637.07,1.379.1,2.165l.007.2a10.271,10.271,0,0,0-5.646-4.125,14.345,14.345,0,0,0-4.348-.689,1.143,1.143,0,0,0-.791.349L6.813,96.219a1.143,1.143,0,0,0,1.646,1.587l1.716-1.78c1.478.072,6.232.625,8.081,4.7A6.175,6.175,0,0,1,12.143,105.952Zm4.809,2.158v-1.363a8.455,8.455,0,0,0,3.018-3.726,12.583,12.583,0,0,0,.651,2.731A8.256,8.256,0,0,1,16.951,108.109Zm11-18.543V86.731a1.143,1.143,0,0,0-.114-.5,10.964,10.964,0,0,1-1.108-4.8V78.986a8.644,8.644,0,0,1,8.634-8.634H51.329V81.43a10.964,10.964,0,0,1-1.108,4.8,1.143,1.143,0,0,0-.114.5v3.255a10.973,10.973,0,0,1-3.5,8.084,11.377,11.377,0,0,1-.878.743l-.02.014a10.99,10.99,0,0,1-7.417,2.213A11.321,11.321,0,0,1,27.951,89.566Zm6.436,23a.072.072,0,0,1-.064.023.073.073,0,0,1-.058-.035l-3.555-5.332,1.144-1.2,5.393,3.686Zm4.643-4.411-6.19-4.231V101.79a12.869,12.869,0,0,0,5.3,1.531q.452.029.9.029a13.24,13.24,0,0,0,6.178-1.514v2.088Zm4.764,4.4a.073.073,0,0,1-.058.035.07.07,0,0,1-.064-.023l-2.86-2.86,5.393-3.686,1.144,1.2Zm20.871-.964L62.071,109a3.136,3.136,0,0,0,.071-.679v-.482a8.014,8.014,0,0,0,2.263.4c.088,0,.175,0,.263,0a8.49,8.49,0,0,0,2.52-.381v.46a2.732,2.732,0,0,0,.083.666Zm4.31-7.384a6.143,6.143,0,0,1-4.5,1.744,6.4,6.4,0,0,1-6-6.494V97.318a1.142,1.142,0,0,0-.121-.511l-.706-1.412a3.765,3.765,0,0,1-.4-1.675v-.068a4.973,4.973,0,0,1,4.968-4.968h9.856v4.747a4.994,4.994,0,0,1-.524,2.222l-.577,1.154a1.142,1.142,0,0,0-.121.511v2.444A6.141,6.141,0,0,1,68.975,104.2Z" transform="translate(0 -68.066)" fill="#64137d"></path></g></g><g id="Grupo_122" data-name="Grupo 122" transform="translate(70.854 47.663)"><g id="Grupo_121" data-name="Grupo 121" transform="translate(0 0)"><path id="Trazado_229" data-name="Trazado 229" d="M466.066,380.814a1.143,1.143,0,0,0-1.143,1.143v7.333a1.143,1.143,0,0,0,2.286,0v-7.333A1.143,1.143,0,0,0,466.066,380.814Z" transform="translate(-464.923 -380.814)" fill="#64137d"></path></g></g><g id="Grupo_124" data-name="Grupo 124" transform="translate(4.889 49.174)"><g id="Grupo_123" data-name="Grupo 123"><path id="Trazado_230" data-name="Trazado 230" d="M33.22,390.728a1.143,1.143,0,0,0-1.143,1.143v5.822a1.143,1.143,0,0,0,2.286,0v-5.822A1.143,1.143,0,0,0,33.22,390.728Z" transform="translate(-32.077 -390.728)" fill="#64137d"></path></g></g><g id="Grupo_126" data-name="Grupo 126" transform="translate(29.331 10.384)"><g id="Grupo_125" data-name="Grupo 125" transform="translate(0 0)"><path id="Trazado_231" data-name="Trazado 231" d="M211.521,139.6c-4.323-4.323-13.368-3.5-17.056-2.941a2.347,2.347,0,0,0-2,2.338v2.633a1.143,1.143,0,0,0,2.286,0v-2.633a.076.076,0,0,1,.06-.077,36.108,36.108,0,0,1,7.426-.363c3.564.237,6.146,1.132,7.673,2.659a1.143,1.143,0,1,0,1.616-1.616Z" transform="translate(-192.46 -136.203)" fill="#64137d"></path></g></g><g id="Grupo_128" data-name="Grupo 128" transform="translate(24.442 50.107)"><g id="Grupo_127" data-name="Grupo 127"><path id="Trazado_232" data-name="Trazado 232" d="M161.527,396.853A1.143,1.143,0,0,0,160.384,398v4.889a1.143,1.143,0,0,0,2.286,0V398A1.143,1.143,0,0,0,161.527,396.853Z" transform="translate(-160.384 -396.853)" fill="#64137d"></path></g></g><g id="Grupo_130" data-name="Grupo 130" transform="translate(51.329 50.107)"><g id="Grupo_129" data-name="Grupo 129"><path id="Trazado_233" data-name="Trazado 233" d="M337.949,396.853A1.143,1.143,0,0,0,336.806,398v4.889a1.143,1.143,0,0,0,2.286,0V398A1.143,1.143,0,0,0,337.949,396.853Z" transform="translate(-336.806 -396.853)" fill="#64137d"></path></g></g></g></g></svg> 