<?xml version="1.0" encoding="UTF-8"?> <svg xmlns="http://www.w3.org/2000/svg" width="31.281" height="28.688" viewBox="0 0 31.281 28.688"><g id="home" transform="translate(0.557 -0.833)"><path id="Trazado_155" data-name="Trazado 155" d="M25.828,29.935H5.143a.457.457,0,0,1-.457-.457v-17a.457.457,0,1,1,.914,0V29.021h19.77V12.478a.457.457,0,1,1,.914,0v17A.457.457,0,0,1,25.828,29.935Z" transform="translate(-0.402 -0.913)" fill="#64137d" stroke="#64137d" stroke-width="1"></path><path id="Trazado_156" data-name="Trazado 156" d="M29.71,16.109a.459.459,0,0,1-.314-.124L15.083,2.468.772,15.984a.457.457,0,0,1-.628-.665L14.768,1.507a.458.458,0,0,1,.629,0L30.025,15.319a.458.458,0,0,1-.314.79Z" transform="translate(0)" fill="#64137d" stroke="#64137d" stroke-width="1"></path><path id="Trazado_157" data-name="Trazado 157" d="M19.763,30.6h-7.3a.457.457,0,0,1-.457-.457V20.238a.457.457,0,0,1,.457-.457h7.3a.457.457,0,0,1,.457.457v9.906A.457.457,0,0,1,19.763,30.6Zm-6.839-.914h6.382V20.7H12.924Z" transform="translate(-1.031 -1.579)" fill="#64137d" stroke="#64137d" stroke-width="1"></path></g></svg> 