<?xml version="1.0" encoding="UTF-8"?> <svg xmlns="http://www.w3.org/2000/svg" width="23.828" height="17.229" viewBox="0 0 23.828 17.229"><g id="mail_2_" data-name="mail (2)" transform="translate(0.5 -3.982)"><g id="Grupo_101" data-name="Grupo 101" transform="translate(3.976 12.306)"><path id="Trazado_151" data-name="Trazado 151" d="M23.459,19.822a.365.365,0,0,1-.252-.1l-4.236-3.974a.368.368,0,1,1,.5-.536l4.236,3.974a.368.368,0,0,1-.252.636Z" transform="translate(-8.952 -15.111)" fill="#64137d" stroke="#64137d" stroke-width="1"></path><path id="Trazado_152" data-name="Trazado 152" d="M5.77,19.822a.368.368,0,0,1-.252-.636l4.237-3.974a.368.368,0,1,1,.5.536L6.022,19.722A.365.365,0,0,1,5.77,19.822Z" transform="translate(-5.402 -15.112)" fill="#64137d" stroke="#64137d" stroke-width="1"></path></g><path id="Trazado_153" data-name="Trazado 153" d="M20.988,20.711H1.84A1.842,1.842,0,0,1,0,18.871V6.322a1.842,1.842,0,0,1,1.84-1.84H20.988a1.842,1.842,0,0,1,1.84,1.84V18.871A1.842,1.842,0,0,1,20.988,20.711ZM1.84,5.218a1.106,1.106,0,0,0-1.1,1.1V18.871a1.106,1.106,0,0,0,1.1,1.1H20.988a1.106,1.106,0,0,0,1.1-1.1V6.322a1.106,1.106,0,0,0-1.1-1.1Z" fill="#64137d" stroke="#64137d" stroke-width="1"></path><path id="Trazado_154" data-name="Trazado 154" d="M11.588,14.656a2.058,2.058,0,0,1-1.352-.487L.785,5.924a.368.368,0,1,1,.484-.555l9.452,8.245a1.377,1.377,0,0,0,1.735,0L21.9,5.382a.368.368,0,1,1,.484.555l-9.44,8.231A2.057,2.057,0,0,1,11.588,14.656Z" transform="translate(-0.174 -0.21)" fill="#64137d" stroke="#64137d" stroke-width="1"></path></g></svg> 