<?xml version="1.0" encoding="UTF-8"?> <svg xmlns="http://www.w3.org/2000/svg" xmlns:xlink="http://www.w3.org/1999/xlink" width="1920" height="109.638" viewBox="0 0 1920 109.638"><defs><clipPath id="clip-path"><path id="Sustracci贸n_4" data-name="Sustracci贸n 4" d="M1920,951H0V844.259c.07.107,1.74,2.685,6.8,6.5a80.089,80.089,0,0,0,10.672,6.66,141.557,141.557,0,0,0,17.452,7.635c16.509,6.036,37.046,10.846,61.04,14.3,29.992,4.312,65.5,6.5,105.544,6.5,30.236,0,63.554-1.253,99.029-3.725,38.974-2.715,81.524-6.97,126.467-12.645.089-.017,9.306-1.806,25.462-4.392,15.023-2.405,39.4-6.033,70.232-9.663,34.657-4.08,70.243-7.331,105.767-9.663,44.4-2.914,88.838-4.392,132.069-4.392,37.014,0,73.726,1.088,109.118,3.233,39.275,2.381,77.875,6.123,114.729,11.122.164.023,16.706,2.31,44.85,5.655,26.052,3.1,67.745,7.769,118.425,12.449,56.959,5.259,113.419,9.454,167.813,12.467,67.993,3.767,132.933,5.688,193.014,5.71h2.283c180.845-.077,318.531-17.114,409.234-50.637V951Z" transform="translate(-3353 -2032)" fill="#fff"></path></clipPath><linearGradient id="linear-gradient" x1="0.78" y1="1.347" x2="-0.114" y2="0.729" gradientUnits="objectBoundingBox"><stop offset="0" stop-color="#33e2f9" stop-opacity="0"></stop><stop offset="0.133" stop-color="#33e2f9" stop-opacity="0.333"></stop><stop offset="1" stop-color="#b300ff" stop-opacity="0"></stop></linearGradient></defs><g id="Grupo_421" data-name="Grupo 421" transform="translate(3353 1190.637)"><path id="Sustracci贸n_3" data-name="Sustracci贸n 3" d="M1920,951H0V844.259c.07.107,1.74,2.685,6.8,6.5a80.089,80.089,0,0,0,10.672,6.66,141.557,141.557,0,0,0,17.452,7.635c16.509,6.036,37.046,10.846,61.04,14.3,29.992,4.312,65.5,6.5,105.544,6.5,30.236,0,63.554-1.253,99.029-3.725,38.974-2.715,81.524-6.97,126.467-12.645.089-.017,9.306-1.806,25.462-4.392,15.023-2.405,39.4-6.033,70.232-9.663,34.657-4.08,70.243-7.331,105.767-9.663,44.4-2.914,88.838-4.392,132.069-4.392,37.014,0,73.726,1.088,109.118,3.233,39.275,2.381,77.875,6.123,114.729,11.122.164.023,16.706,2.31,44.85,5.655,26.052,3.1,67.745,7.769,118.425,12.449,56.959,5.259,113.419,9.454,167.813,12.467,67.993,3.767,132.933,5.688,193.014,5.71h2.283c180.845-.077,318.531-17.114,409.234-50.637V951Z" transform="translate(-3353 -2032)" fill="#fff"></path><g id="Enmascarar_grupo_57" data-name="Enmascarar grupo 57" clip-path="url(#clip-path)"><path id="Trazado_430" data-name="Trazado 430" d="M1280.241,401.015c-95.219,121.078,602.537,71.356,774.114,89.806,213.458,19.67,309.257,146.238,137.2,213.88-63.34,22.376-160.626,30.307-195.6,64.272-34.582,31.284-6.073,83.24-11.13,118.073-12.054,83.067-118.293,152.628-322.122,149.384-420.4-1.474-654.8-290.838-698.84-442.809-20.586-65.179-41.705-168.05,51.011-227.239s332.444-54.9,265.37,34.634" transform="translate(-4244.106 -1841.496) rotate(-11)" fill="url(#linear-gradient)"></path></g></g></svg> 