<?xml version="1.0" encoding="UTF-8"?> <svg xmlns="http://www.w3.org/2000/svg" width="23.681" height="23.639" viewBox="0 0 23.681 23.639"><g id="phone-call_3_" data-name="phone-call (3)" transform="translate(0.543 0.5)"><path id="Trazado_150" data-name="Trazado 150" d="M18.2,22.64a9.723,9.723,0,0,1-3.331-.708,24.988,24.988,0,0,1-8.4-5.754,25.007,25.007,0,0,1-5.755-8.4C-.234,5.279-.236,3.233.7,2.3c.135-.135.272-.279.413-.429C1.97.968,2.936-.044,4.217,0A3.713,3.713,0,0,1,6.83,1.676C9.418,4.894,8.251,6.041,6.9,7.37l-.238.236c-.221.221-.638,1.244,3.244,5.126a21.526,21.526,0,0,0,3.211,2.756c.544.353,1.516.888,1.915.489l.24-.242c1.328-1.347,2.475-2.51,5.691.075a3.71,3.71,0,0,1,1.674,2.614c.053,1.28-.967,2.249-1.867,3.1-.148.142-.293.279-.428.413A2.966,2.966,0,0,1,18.2,22.64ZM4.126.761c-.91,0-1.732.865-2.459,1.63-.146.154-.288.3-.427.442-.7.7-.627,2.53.18,4.671A24.241,24.241,0,0,0,7,15.64a24.223,24.223,0,0,0,8.133,5.579c2.141.809,3.973.877,4.67.18.139-.139.289-.281.442-.426.782-.743,1.669-1.585,1.63-2.52a3.079,3.079,0,0,0-1.39-2.052c-2.68-2.155-3.429-1.394-4.672-.134l-.244.246c-.594.595-1.559.463-2.869-.388a22.235,22.235,0,0,1-3.335-2.856c-3.222-3.221-4.252-5.193-3.244-6.2l.243-.24c1.263-1.243,2.026-1.993-.13-4.674A3.089,3.089,0,0,0,4.185.762Z" transform="translate(0 0)" fill="#64137d" stroke="#64137d" stroke-width="1"></path></g></svg> 