<?xml version="1.0" encoding="UTF-8"?> <svg xmlns="http://www.w3.org/2000/svg" width="48.055" height="48.055" viewBox="0 0 48.055 48.055"><g id="right-btn" transform="translate(47.055 47.055) rotate(180)"><path id="Trazado_65" data-name="Trazado 65" d="M23.027,0A23.027,23.027,0,1,1,0,23.027,23.062,23.062,0,0,1,23.027,0Z" transform="translate(46.055 46.055) rotate(180)" fill="none" stroke="#fff" stroke-width="2"></path><path id="Trazado_66" data-name="Trazado 66" d="M.4,20.022a1.341,1.341,0,0,0,.971.4,1.4,1.4,0,0,0,.971-.4l8.839-8.839a1.374,1.374,0,0,0,0-1.942L2.344.4A1.373,1.373,0,0,0,.4,2.344L8.27,10.212.4,18.08A1.374,1.374,0,0,0,.4,20.022Z" transform="translate(27.607 33.38) rotate(180)" fill="#fff"></path></g></svg> 